<svg xmlns="http://www.w3.org/2000/svg" width="68" height="68" viewBox="0 0 68 68">
  <g id="Grupo_55563" data-name="Grupo 55563" transform="translate(-1928.48 172.29)">
    <circle id="Elipse_4485" data-name="Elipse 4485" cx="34" cy="34" r="34" transform="translate(1928.48 -172.29)" fill="#635bd3"/>
    <path id="Trazado_101789" data-name="Trazado 101789" d="M1990.1-155.426c0-.954-.046-1.9-.114-2.835a33.947,33.947,0,0,0-27.51-14.029,34,34,0,0,0-34,34,33.835,33.835,0,0,0,4.852,17.508,38.771,38.771,0,0,0,17.814,4.315A38.959,38.959,0,0,0,1990.1-155.426Z" fill="#8979f3"/>
    <path id="Trazado_101790" data-name="Trazado 101790" d="M1956.823-129.272c-1.677-11.153-3.31-22.014-4.965-33.017.478.1.865.152,1.241.252,6.647,1.764,13.291,3.542,19.943,5.287a1.294,1.294,0,0,1,1.126,1.277q2.162,17.072,4.384,34.136a5.809,5.809,0,0,1-2.193,5.278,9.792,9.792,0,0,1-5.752,2.482,6.891,6.891,0,0,1-7.215-6.307,6.24,6.24,0,0,1,6.1-6.88,16.81,16.81,0,0,1,4.012.85,11.672,11.672,0,0,1,1.177.432c-.02-.515-.008-.868-.051-1.214-.67-5.391-1.337-10.782-2.046-16.168a1.32,1.32,0,0,0-.653-.952c-4.762-1.365-9.539-2.673-14.314-3.99a1.459,1.459,0,0,0-.351.037,13.034,13.034,0,0,0,.06,1.322c1.018,7.081,2.023,14.163,3.09,21.236a5.066,5.066,0,0,1-1.345,4.549,9.683,9.683,0,0,1-5.335,3.065,6.764,6.764,0,0,1-7.46-4.4,6.571,6.571,0,0,1,2.852-7.891,6.82,6.82,0,0,1,5.966-.026C1955.579-129.72,1956.073-129.548,1956.823-129.272Zm14.992-19c-.084-.74-.2-1.361-.216-1.984a1.423,1.423,0,0,0-1.26-1.522c-2.538-.659-5.052-1.417-7.579-2.123-1.848-.515-3.7-1.026-5.558-1.5a1.851,1.851,0,0,0-.942.129,10.1,10.1,0,0,0,.232,2.49c.083.3.709.519,1.127.637,4.4,1.248,8.812,2.469,13.221,3.692C1971.118-148.37,1971.41-148.343,1971.815-148.271Z" fill="#fff"/>
  </g>
</svg>
