<svg xmlns="http://www.w3.org/2000/svg" width="86" height="86" viewBox="0 0 86 86">
  <g id="Grupo_55566" data-name="Grupo 55566" transform="translate(-1414.304 -699.225)">
    <circle id="Elipse_4488" data-name="Elipse 4488" cx="43" cy="43" r="43" transform="translate(1414.304 699.225)" fill="#8979f3"/>
    <g id="Grupo_55567" data-name="Grupo 55567">
      <path id="Trazado_101801" data-name="Trazado 101801" d="M1435.8,779.814a43.878,43.878,0,0,1-20.46-47.2l54.093,2.738Z" fill="#fffad2"/>
      <path id="Trazado_101802" data-name="Trazado 101802" d="M1478.194,729.088v-21.4a4.28,4.28,0,0,1,4.28-4.28h0a4.28,4.28,0,0,1,4.28,4.28v21.4a4.28,4.28,0,0,1-4.28,4.28h0A4.28,4.28,0,0,1,1478.194,729.088Z" fill="#adadad"/>
      <path id="Trazado_101803" data-name="Trazado 101803" d="M1492.637,720.89l5.856,16.088a3.423,3.423,0,0,1-2.047,4.388l-28.957,10.54a3.424,3.424,0,0,1-4.389-2.046l-5.855-16.088a3.423,3.423,0,0,1,2.046-4.388l28.958-10.54A3.423,3.423,0,0,1,1492.637,720.89Z" fill="#cccdce"/>
      <path id="Trazado_101804" data-name="Trazado 101804" d="M1496.446,741.367l-28.958,10.539a3.423,3.423,0,0,1-4.388-2.046l-1.757-4.827a3.425,3.425,0,0,0,4.389,2.047l12.87-4.684a1.713,1.713,0,0,1,1.023-2.2l11.261-4.1a1.712,1.712,0,0,1,2.2,1.023h0l1.609-.586a3.422,3.422,0,0,0,2.046-4.388l1.757,4.826A3.425,3.425,0,0,1,1496.446,741.367Zm-20.334-10.818,11.261-4.1a1.712,1.712,0,0,0,1.024-2.194h0a1.713,1.713,0,0,0-2.195-1.024l-11.261,4.1a1.712,1.712,0,0,0,1.171,3.218Zm.148,5.412a1.712,1.712,0,0,0,2.194,1.023l11.262-4.1a1.712,1.712,0,0,0,1.023-2.194h0a1.711,1.711,0,0,0-2.194-1.023l-11.262,4.1A1.713,1.713,0,0,0,1476.26,735.961Zm-6.733,7.531a1.37,1.37,0,1,0-1.755-.819A1.37,1.37,0,0,0,1469.527,743.492Zm3.861-1.406a1.37,1.37,0,1,0-1.755-.818A1.369,1.369,0,0,0,1473.388,742.086Z" fill="#adadad"/>
      <path id="Trazado_101805" data-name="Trazado 101805" d="M1459.291,729.384l8.2,22.522-13.482,11.306a1.712,1.712,0,0,1-2.709-.727l-1.506-4.138-8.2-22.523-1.506-4.138a1.711,1.711,0,0,1,1.608-2.3Z" fill="#414669"/>
      <path id="Trazado_101806" data-name="Trazado 101806" d="M1441.7,729.389l17.594-.005,6.457,17.739-13.482,11.306a1.712,1.712,0,0,1-2.709-.727l-1.506-4.138-6.456-17.74-1.506-4.138A1.711,1.711,0,0,1,1441.7,729.389Z" fill="#415a87"/>
    </g>
  </g>
</svg>
