<svg xmlns="http://www.w3.org/2000/svg" width="295" height="355" viewBox="0 0 295 355">
  <g id="Grupo_55380" data-name="Grupo 55380" transform="translate(-180 -2728)">
    <rect id="Rectángulo_5561" data-name="Rectángulo 5561" width="295" height="355" transform="translate(180 2728)" fill="none"/>
    <g id="Grupo_55561" data-name="Grupo 55561" transform="translate(180 2814.572)">
      <g id="Grupo_55419" data-name="Grupo 55419" transform="translate(0 0)">
        <g id="Grupo_55381" data-name="Grupo 55381" transform="translate(69.97 133.276)">
          <path id="Trazado_101651" data-name="Trazado 101651" d="M335.328,869.246c46.8-22.642,46.432,34.215,18.941,51.772s26.5,30.287,6.1,50.692c-11.249,11.247-68.347,1.6-114.155,1.757-49.912.174-51.347-50.586-40.808-80.492,6.512-18.481,44.065-57.291,69.1-28.124C274.5,864.852,288.529,891.888,335.328,869.246Z" transform="translate(-200.137 -854.335)" fill="#ffe9ab"/>
        </g>
        <g id="Grupo_55382" data-name="Grupo 55382" transform="translate(14.407 243.791)">
          <path id="Trazado_101652" data-name="Trazado 101652" d="M448.762,1001.053H168.512s47.739-40.984,178.14-17.233C363.45,976.289,425.777,971.945,448.762,1001.053Z" transform="translate(-168.512 -976.416)" fill="#ffeed7"/>
        </g>
        <g id="Grupo_55388" data-name="Grupo 55388" transform="translate(5.147 193.061)">
          <g id="Grupo_55383" data-name="Grupo 55383">
            <path id="Trazado_101653" data-name="Trazado 101653" d="M415,992.566s22.232-37.853,6.116-53.413-12.91,48.407-12.91,48.407.016-54.676-20.3-52.759,12.02,53.13,12.02,53.13-15.66-32.342-30.888-23.777,28.048,34.965,28.048,34.965-25.232-21.493-33.985-5.925a7.333,7.333,0,0,0,4.057,10.536c3.714,1.271,9.432,1.958,18.021.38,26.848-8.4,29.951-10.634,29.644-9.588S415,992.566,415,992.566Z" transform="translate(-362.15 -934.753)" fill="#a0c0e5"/>
          </g>
          <g id="Grupo_55384" data-name="Grupo 55384" transform="translate(47.977 9.223)">
            <path id="Trazado_101654" data-name="Trazado 101654" d="M368.478,991.379h0a.221.221,0,0,0,.217-.225C368.339,970,377.908,943.265,378,943a.221.221,0,0,0-.415-.15c-.1.268-9.694,27.081-9.333,48.313A.222.222,0,0,0,368.478,991.379Z" transform="translate(-368.246 -942.701)" fill="#fff"/>
          </g>
          <g id="Grupo_55385" data-name="Grupo 55385" transform="translate(28.046 5.854)">
            <path id="Trazado_101655" data-name="Trazado 101655" d="M395.576,991.105a.227.227,0,0,0,.119-.035.222.222,0,0,0,.067-.305c-6.139-9.617-9.508-22.477-11.253-31.573a135.4,135.4,0,0,1-2.4-19.169.221.221,0,1,0-.442-.008,132.9,132.9,0,0,0,2.408,19.261c1.753,9.133,5.139,22.051,11.316,31.727A.22.22,0,0,0,395.576,991.105Z" transform="translate(-381.667 -939.798)" fill="#fff"/>
          </g>
          <g id="Grupo_55386" data-name="Grupo 55386" transform="translate(11.28 30.272)">
            <path id="Trazado_101656" data-name="Trazado 101656" d="M411.488,990.772a.221.221,0,0,0,.136-.4c-18.771-14.586-24.15-29.242-24.2-29.388a.221.221,0,1,0-.417.149c.052.147,5.466,14.917,24.349,29.589A.215.215,0,0,0,411.488,990.772Z" transform="translate(-386.992 -960.841)" fill="#fff"/>
          </g>
          <g id="Grupo_55387" data-name="Grupo 55387" transform="translate(2.597 58.055)">
            <path id="Trazado_101657" data-name="Trazado 101657" d="M419.543,989.885a.222.222,0,0,0,.1-.419c-11.949-6.088-21.835-6.24-28.59-.441l-.072.061a.221.221,0,1,0,.288.335l.073-.061c8.346-7.167,19.887-3.684,28.1.5A.218.218,0,0,0,419.543,989.885Z" transform="translate(-390.905 -984.785)" fill="#fff"/>
          </g>
        </g>
        <g id="Grupo_55394" data-name="Grupo 55394" transform="translate(259.549 199.905)">
          <g id="Grupo_55389" data-name="Grupo 55389" transform="translate(0)">
            <path id="Trazado_101658" data-name="Trazado 101658" d="M193.8,943.868s18.566,24.533-3.315,51.277C173.911,968.18,193.8,943.868,193.8,943.868Z" transform="translate(-183.891 -943.868)" fill="#fec3b9"/>
          </g>
          <g id="Grupo_55390" data-name="Grupo 55390" transform="translate(6.486 0.221)">
            <path id="Trazado_101659" data-name="Trazado 101659" d="M189.52,995.225a.223.223,0,0,0,.216-.172l.111-.485a154.175,154.175,0,0,0,3.567-45.6l-.469-4.71a.224.224,0,0,0-.243-.2.22.22,0,0,0-.2.242l.469,4.7a153.766,153.766,0,0,1-3.558,45.462l-.111.485a.221.221,0,0,0,.165.266A.249.249,0,0,0,189.52,995.225Z" transform="translate(-189.299 -944.059)" fill="#fff"/>
          </g>
          <g id="Grupo_55391" data-name="Grupo 55391" transform="translate(10.266 18.566)">
            <path id="Trazado_101660" data-name="Trazado 101660" d="M184.352,968.056l.028,0c4.877-.621,6.4-7.621,6.464-7.918a.221.221,0,0,0-.433-.092c-.014.071-1.524,6.99-6.087,7.571a.221.221,0,0,0,.028.441Z" transform="translate(-184.131 -959.868)" fill="#fff"/>
          </g>
          <g id="Grupo_55392" data-name="Grupo 55392" transform="translate(5.639 6.409)">
            <path id="Trazado_101661" data-name="Trazado 101661" d="M194.43,959.117a.221.221,0,0,0,.089-.424c-5.744-2.553-4.745-8.98-4.734-9.044a.221.221,0,1,0-.435-.073c-.012.068-1.064,6.831,4.991,9.521A.2.2,0,0,0,194.43,959.117Z" transform="translate(-189.274 -949.391)" fill="#fff"/>
          </g>
          <g id="Grupo_55393" data-name="Grupo 55393" transform="translate(0.849 21.218)">
            <path id="Trazado_101662" data-name="Trazado 101662" d="M198.9,974.788a.522.522,0,0,0,.292-.073.221.221,0,0,0-.238-.372,3.793,3.793,0,0,1-1.877-.788,14.733,14.733,0,0,1-6.406-11.2.222.222,0,0,0-.441.043c.685,7.013,5.057,10.871,7.532,12.044A3.087,3.087,0,0,0,198.9,974.788Zm.048-.441Z" transform="translate(-190.226 -962.154)" fill="#fff"/>
          </g>
        </g>
        <g id="Grupo_55401" data-name="Grupo 55401" transform="translate(265.955 228.198)">
          <g id="Grupo_55395" data-name="Grupo 55395" transform="translate(0.088)">
            <path id="Trazado_101663" data-name="Trazado 101663" d="M197.174,968.427s-.022,25.551-28.958,22.776C170.869,965.9,197.174,968.427,197.174,968.427Z" transform="translate(-168.216 -968.357)" fill="#fec3b9"/>
          </g>
          <g id="Grupo_55396" data-name="Grupo 55396" transform="translate(0 0.066)">
            <path id="Trazado_101664" data-name="Trazado 101664" d="M168.445,991.441a.218.218,0,0,0,.1-.022l.33-.156a80.151,80.151,0,0,0,26.211-19.831l2.13-2.658a.221.221,0,1,0-.345-.276l-2.126,2.651a79.7,79.7,0,0,1-26.061,19.715l-.33.157a.221.221,0,0,0,.1.421Z" transform="translate(-168.224 -968.414)" fill="#fff"/>
          </g>
          <g id="Grupo_55397" data-name="Grupo 55397" transform="translate(15.414 13.3)">
            <path id="Trazado_101665" data-name="Trazado 101665" d="M177.061,981.889a9.841,9.841,0,0,0,4-.894.221.221,0,0,0-.2-.393c-.045.023-4.654,2.307-8.091-.729a.221.221,0,1,0-.292.332A6.757,6.757,0,0,0,177.061,981.889Z" transform="translate(-172.397 -979.819)" fill="#fff"/>
          </g>
          <g id="Grupo_55398" data-name="Grupo 55398" transform="translate(20.243 0.213)">
            <path id="Trazado_101666" data-name="Trazado 101666" d="M174.482,977.078a.213.213,0,0,0,.1-.022.22.22,0,0,0,.1-.295c-2.591-5.383,1.242-7.713,1.405-7.809a.221.221,0,0,0-.223-.382c-.044.026-4.352,2.622-1.58,8.382A.222.222,0,0,0,174.482,977.078Z" transform="translate(-173.353 -968.54)" fill="#fff"/>
          </g>
          <g id="Grupo_55399" data-name="Grupo 55399" transform="translate(9.484 3.951)">
            <path id="Trazado_101667" data-name="Trazado 101667" d="M184.8,984.443a.221.221,0,0,0,.082-.426,7.373,7.373,0,0,1-1.329-3.341,10.3,10.3,0,0,1,1.826-8.554.221.221,0,0,0-.034-.311.219.219,0,0,0-.31.034c-2.935,3.638-2.187,8.007-1.73,9.718.389,1.45,1.01,2.709,1.413,2.866A.246.246,0,0,0,184.8,984.443Z" transform="translate(-182.87 -971.762)" fill="#fff"/>
          </g>
          <g id="Grupo_55400" data-name="Grupo 55400" transform="translate(6.177 19.403)">
            <path id="Trazado_101668" data-name="Trazado 101668" d="M186.945,987.161a9.515,9.515,0,0,0,2.082-.195.221.221,0,1,0-.1-.429,13.922,13.922,0,0,1-8.616-1.435.222.222,0,0,0-.3.1.22.22,0,0,0,.1.3A15.514,15.514,0,0,0,186.945,987.161Z" transform="translate(-179.989 -985.079)" fill="#fff"/>
          </g>
        </g>
        <g id="Grupo_55402" data-name="Grupo 55402" transform="translate(44.386 56.292)">
          <path id="Trazado_101669" data-name="Trazado 101669" d="M299.318,829.382l-.519-1.873,4.879-1.353.364-.158.022.051.041-.012.784,1.8-.042.012,3.216,7.381a5.016,5.016,0,0,1,1.942-1.463c1.989-.867,4.1-.425,4.716.986s-.5,3.259-2.489,4.125-4.1.425-4.715-.986a2.038,2.038,0,0,1-.116-.372l-4.035-9.261Z" transform="translate(-298.799 -825.998)" fill="#fff"/>
        </g>
        <g id="Grupo_55403" data-name="Grupo 55403" transform="translate(58.398 75.354)">
          <path id="Trazado_101670" data-name="Trazado 101670" d="M283.691,846.426l-1-2.365,11.464-1.635,1,2.365h0l.969,2.3,1.527,3.666a4.28,4.28,0,0,1,1.676-1.219c1.706-.711,3.5-.306,4,.905s-.47,2.767-2.176,3.479-3.5.305-4-.905a1.659,1.659,0,0,1-.094-.318l-3.216-7.721-9.027,1.288,2.994,7.185a4.287,4.287,0,0,1,1.676-1.217c1.706-.711,3.5-.306,4,.905s-.47,2.767-2.176,3.479a3.58,3.58,0,0,1-3.385-.14l-.728-1.729h0l-3.505-8.322Z" transform="translate(-282.696 -842.426)" fill="#ffa5a1"/>
        </g>
        <g id="Grupo_55405" data-name="Grupo 55405" transform="translate(42.977 33.852)">
          <g id="Grupo_55404" data-name="Grupo 55404">
            <path id="Trazado_101671" data-name="Trazado 101671" d="M382.992,813.365a3.353,3.353,0,1,0-3.357-3.348A3.356,3.356,0,0,0,382.992,813.365Zm-.008-5.379a2.027,2.027,0,1,1-2.022,2.03A2.031,2.031,0,0,1,382.984,807.985Z" transform="translate(-379.635 -806.659)" fill="#fff"/>
          </g>
        </g>
        <g id="Grupo_55414" data-name="Grupo 55414" transform="translate(172.886 -60)">
          <g id="Grupo_55407" data-name="Grupo 55407" transform="translate(34.952 40.619)">
            <g id="Grupo_55406" data-name="Grupo 55406">
              <path id="Trazado_101672" data-name="Trazado 101672" d="M314.331,815.552l-.392-1.9,4.958-1.025.374-.133.019.052.042-.008.663,1.847-.042.008,2.718,7.579a5.034,5.034,0,0,1,2.035-1.331c2.042-.732,4.119-.151,4.639,1.3s-.715,3.218-2.757,3.95-4.119.151-4.639-1.3a2.061,2.061,0,0,1-.091-.378l-3.409-9.509Z" transform="translate(-313.939 -812.491)" fill="#ffa5a1"/>
            </g>
          </g>
          <g id="Grupo_55409" data-name="Grupo 55409" transform="translate(0 20.746)">
            <g id="Grupo_55408" data-name="Grupo 55408">
              <path id="Trazado_101673" data-name="Trazado 101673" d="M354.689,799.667l-.035.534-.161,2.473-.19,2.925-.321,4.651a5.036,5.036,0,0,1,2.4-.4c2.165.15,3.834,1.517,3.728,3.053s-1.947,2.659-4.111,2.51-3.834-1.515-3.728-3.052a2.022,2.022,0,0,1,.07-.383l.675-9.795-10.154-3.388-.63,9.117a5.037,5.037,0,0,1,2.4-.4c2.164.15,3.833,1.517,3.727,3.053s-1.947,2.66-4.111,2.51a4.2,4.2,0,0,1-3.481-1.925l.048-.725.1-1.471.69-10.579.038-.6.157-2.411Z" transform="translate(-340.764 -795.364)" fill="#ffa5a1"/>
            </g>
          </g>
          <g id="Grupo_55411" data-name="Grupo 55411" transform="translate(71.044 38.767)">
            <g id="Grupo_55410" data-name="Grupo 55410" transform="translate(0)">
              <path id="Trazado_101674" data-name="Trazado 101674" d="M293.568,817.593a3.352,3.352,0,1,0-3.127-3.563A3.356,3.356,0,0,0,293.568,817.593Zm.349-5.368a2.027,2.027,0,1,1-2.154,1.89A2.031,2.031,0,0,1,293.917,812.225Z" transform="translate(-290.434 -810.895)" fill="#ffa5a1"/>
            </g>
          </g>
          <g id="Grupo_55413" data-name="Grupo 55413" transform="translate(37.335)">
            <g id="Grupo_55412" data-name="Grupo 55412" transform="translate(0)">
              <path id="Trazado_101675" data-name="Trazado 101675" d="M321.706,786.5A4.511,4.511,0,1,0,317.5,781.7,4.516,4.516,0,0,0,321.706,786.5Zm.471-7.222a2.726,2.726,0,1,1-2.9,2.543A2.731,2.731,0,0,1,322.177,779.274Z" transform="translate(-317.489 -777.485)" fill="#ffa5a1"/>
            </g>
          </g>
        </g>
        <g id="Grupo_55416" data-name="Grupo 55416" transform="translate(83.076 48.031)">
          <g id="Grupo_55415" data-name="Grupo 55415" transform="translate(0)">
            <path id="Trazado_101676" data-name="Trazado 101676" d="M275.988,819.7l.456-.822,3.821,3.661-.436.784-.688,1.238-.886,1.582a1.967,1.967,0,0,1,.911.259c.736.413,1.1,1.171.8,1.694a1.367,1.367,0,0,1-1.865.2c-.737-.413-1.1-1.171-.8-1.694a.788.788,0,0,1,.088-.123l1.868-3.334-3.008-2.882-1.739,3.1a1.96,1.96,0,0,1,.91.26c.737.412,1.1,1.171.8,1.694a1.365,1.365,0,0,1-1.864.2,1.633,1.633,0,0,1-.9-1.257l.415-.75h0l2.118-3.809Z" transform="translate(-273.455 -818.878)" fill="#ffa5a1"/>
          </g>
        </g>
        <g id="Grupo_55417" data-name="Grupo 55417" transform="translate(228.131 93.397)">
          <path id="Trazado_101677" data-name="Trazado 101677" d="M189.845,858.183c.955-.02,1.909.006,2.86.049s1.9.1,2.851.181,1.894.181,2.836.3,1.882.259,2.816.42a56.157,56.157,0,0,1,5.546,1.215,45.591,45.591,0,0,1,5.357,1.8,38.388,38.388,0,0,1,5.031,2.5,28.617,28.617,0,0,1,4.5,3.3,25.249,25.249,0,0,1,3.695,4.135,24.214,24.214,0,0,1,2.658,4.856c.164.433.341.861.5,1.3l.429,1.323.355,1.347c.065.223.1.453.151.68l.139.685a35.673,35.673,0,0,1,.584,5.564c.021.468.006.938.01,1.405v.7l-.03.7-.067,1.408-.126,1.406-.065.7-.093.7-.184,1.4-.231,1.4c-.08.465-.145.934-.248,1.4-.2.925-.361,1.858-.6,2.774l-.335,1.381c-.108.462-.245.915-.365,1.374l-.372,1.374c-.129.457-.275.909-.412,1.364l-.417,1.363c-.144.452-.3.9-.451,1.352-1.193,3.612-2.59,7.162-4.048,10.693a106.954,106.954,0,0,0,4.762-10.435c.175-.446.352-.891.519-1.34l.48-1.355c.158-.454.325-.9.476-1.359l.437-1.371c.142-.458.3-.911.426-1.376l.384-1.389c.272-.923.468-1.866.7-2.8.12-.466.2-.941.3-1.413l.28-1.419.219-1.432.109-.716.08-.721.158-1.442.1-1.449.044-.726.014-.728c0-.485.029-.97.016-1.456l-.048-1.459c-.017-.485-.077-.97-.114-1.456-.023-.243-.038-.485-.068-.728l-.1-.725c-.07-.483-.125-.968-.231-1.446a27.6,27.6,0,0,0-1.628-5.639,25.6,25.6,0,0,0-6.814-9.5,32.623,32.623,0,0,0-10.06-5.828,48.692,48.692,0,0,0-11.233-2.642c-1.908-.218-3.822-.357-5.738-.395A48.987,48.987,0,0,0,189.845,858.183Z" transform="translate(-189.845 -857.975)" fill="#a0c0e5"/>
        </g>
        <g id="Grupo_55418" data-name="Grupo 55418" transform="translate(0 115.153)">
          <path id="Trazado_101678" data-name="Trazado 101678" d="M428.886,876.725a16.29,16.29,0,0,0-2.386,2.589,28.27,28.27,0,0,0-1.964,2.933,43.686,43.686,0,0,0-3.048,6.374,69.258,69.258,0,0,0-3.619,13.656,107.565,107.565,0,0,0-1.365,14.07c-.174,4.711-.073,9.427.186,14.129l.984-.69a23.4,23.4,0,0,0-7.014-1.918,17.691,17.691,0,0,0-3.691.03,14.13,14.13,0,0,0-3.609.926,12.159,12.159,0,0,0-5.707,4.737,14.359,14.359,0,0,0-1.591,3.366,17.677,17.677,0,0,0-.771,3.6,27.234,27.234,0,0,0,.234,7.254,43.416,43.416,0,0,0,1.753,6.974,59.949,59.949,0,0,0,2.708,6.621c1.022,2.15,2.143,4.249,3.338,6.3l.913-.926c-.941-.508-1.9-.992-2.881-1.42a27.392,27.392,0,0,0-3.031-1.107,17.143,17.143,0,0,0-6.452-.737,11.488,11.488,0,0,0-3.211.788,9.6,9.6,0,0,0-2.8,1.781,9.979,9.979,0,0,0-2.02,2.61,11.848,11.848,0,0,0-1.143,3.059,16.609,16.609,0,0,0-.132,6.414,23.918,23.918,0,0,0,1.887,6.08,29.863,29.863,0,0,0,3.265,5.427c.636.842,1.316,1.649,2.024,2.428s1.461,1.514,2.23,2.23a32.841,32.841,0,0,1-7.048-10.292,23.359,23.359,0,0,1-1.654-5.976,16.194,16.194,0,0,1,.284-6.1,10.949,10.949,0,0,1,1.123-2.8,9,9,0,0,1,1.875-2.307,8.816,8.816,0,0,1,2.521-1.535,10.376,10.376,0,0,1,2.9-.654,15.932,15.932,0,0,1,5.98.8,28.342,28.342,0,0,1,2.868,1.1c.938.42,1.852.9,2.755,1.395a.675.675,0,0,0,.914-.922v0a71.846,71.846,0,0,1-5.805-12.719,41.907,41.907,0,0,1-1.67-6.736,25.7,25.7,0,0,1-.2-6.844,16.738,16.738,0,0,1,.711-3.3,12.782,12.782,0,0,1,1.41-3.016,10.931,10.931,0,0,1,2.17-2.477,10.786,10.786,0,0,1,2.822-1.7,12.544,12.544,0,0,1,3.219-.837,16.1,16.1,0,0,1,3.37-.039,22.082,22.082,0,0,1,6.592,1.735l.007,0a.7.7,0,0,0,.921-.37.716.716,0,0,0,.056-.322q-.468-7-.365-14.009a114.114,114.114,0,0,1,1.076-13.957c.334-2.309.737-4.611,1.276-6.882a63,63,0,0,1,1.928-6.727A45.568,45.568,0,0,1,424.8,882.4l.425-.767.448-.753c.3-.5.618-.992.954-1.471A16.3,16.3,0,0,1,428.886,876.725Z" transform="translate(-382.321 -876.725)" fill="#a0c0e5"/>
        </g>
      </g>
      <g id="Grupo_55560" data-name="Grupo 55560" transform="translate(169.525 -65.429)">
        <g id="Grupo_55484" data-name="Grupo 55484" transform="translate(-108 -6)">
          <g id="Grupo_55440" data-name="Grupo 55440" transform="translate(36.949 139.618)">
            <g id="Grupo_55423" data-name="Grupo 55423" transform="translate(48.471 160.319)">
              <g id="Grupo_55420" data-name="Grupo 55420" transform="translate(1.218)">
                <path id="Trazado_101679" data-name="Trazado 101679" d="M332.723,1003.827h0a7.691,7.691,0,0,0,7.669-7.669v-9.064a7.691,7.691,0,0,0-7.669-7.668h0a7.691,7.691,0,0,0-7.668,7.668v9.064A7.691,7.691,0,0,0,332.723,1003.827Z" transform="translate(-325.055 -979.426)" fill="#faaf85"/>
              </g>
              <g id="Grupo_55421" data-name="Grupo 55421" transform="translate(0 17.586)">
                <path id="Trazado_101680" data-name="Trazado 101680" d="M322.356,988.941h17.086l4.457,7.128H322.356Z" transform="translate(-322.356 -988.941)" fill="#021c4c"/>
              </g>
              <g id="Grupo_55422" data-name="Grupo 55422" transform="translate(0.022 22.736)">
                <path id="Trazado_101681" data-name="Trazado 101681" d="M315.648,991.727h20.283l11.016,6.255a4.236,4.236,0,0,1,2.482,2.5h0a2.209,2.209,0,0,1-2.14,2.974l-31.641-.965Z" transform="translate(-315.648 -991.727)" fill="#021c4c"/>
              </g>
            </g>
            <g id="Grupo_55426" data-name="Grupo 55426" transform="translate(27.471 0.264)">
              <g id="Grupo_55424" data-name="Grupo 55424" transform="translate(7.011 78.095)">
                <path id="Trazado_101682" data-name="Trazado 101682" d="M329.758,936.98c-1.625,1.92-13.26,13.433-13.529,54.831l-.272,41.4h33.282s16.7-87.277,13.723-94.406S329.758,936.98,329.758,936.98Z" transform="translate(-315.957 -935.082)" fill="#2d59b8"/>
              </g>
              <g id="Grupo_55425" data-name="Grupo 55425">
                <path id="Trazado_101683" data-name="Trazado 101683" d="M324.844,1002.406l45.174-25.039s4.4-50.012-11.2-84.538l-33.5,2.255s-9.223,14.149-9.67,29.07l2.486,17.108Z" transform="translate(-315.647 -892.829)" fill="#2d59b8"/>
              </g>
            </g>
            <g id="Grupo_55430" data-name="Grupo 55430" transform="translate(10.337 162.761)">
              <g id="Grupo_55427" data-name="Grupo 55427" transform="translate(13.518)">
                <path id="Trazado_101684" data-name="Trazado 101684" d="M346.687,1005.146h0a7.864,7.864,0,0,0,7.84-7.84v-8.716a7.864,7.864,0,0,0-7.84-7.842h0a7.864,7.864,0,0,0-7.842,7.842v8.716A7.864,7.864,0,0,0,346.687,1005.146Z" transform="translate(-338.845 -980.747)" fill="#faaf85"/>
              </g>
              <g id="Grupo_55428" data-name="Grupo 55428" transform="translate(7.937 17.064)">
                <path id="Trazado_101685" data-name="Trazado 101685" d="M360.453,989.979h-17.46l-4.555,7.128h22.015Z" transform="translate(-338.439 -989.979)" fill="#021c4c"/>
              </g>
              <g id="Grupo_55429" data-name="Grupo 55429" transform="translate(0 20.629)">
                <path id="Trazado_101686" data-name="Trazado 101686" d="M348.654,991.908l18.307.116a1.322,1.322,0,0,1,1.429,1.318v7.7a1.322,1.322,0,0,1-1.286,1.321l-27.3.749a1.324,1.324,0,0,1-1.041-2.185l2.795-3.257C343.666,995.207,344.562,995.472,348.654,991.908Z" transform="translate(-338.439 -991.908)" fill="#021c4c"/>
              </g>
            </g>
            <g id="Grupo_55433" data-name="Grupo 55433" transform="translate(0)">
              <g id="Grupo_55431" data-name="Grupo 55431" transform="translate(0.572 78.095)">
                <path id="Trazado_101687" data-name="Trazado 101687" d="M367.863,936.837c1.623,1.92,13.258,13.433,13.529,54.831l.27,41.4H348.381s-16.7-87.277-13.722-94.406S367.863,936.837,367.863,936.837Z" transform="translate(-334.304 -934.939)" fill="#1d78e5"/>
              </g>
              <g id="Grupo_55432" data-name="Grupo 55432">
                <path id="Trazado_101688" data-name="Trazado 101688" d="M381.232,1002.263,336.06,977.224s-4.4-50.012,11.2-84.538l33.5,2.255s-6.11,15.842-5.665,30.763c-2.486,17.106,3.382,15.786,3.382,15.786Z" transform="translate(-335.487 -892.686)" fill="#1d78e5"/>
              </g>
            </g>
            <g id="Grupo_55434" data-name="Grupo 55434" transform="translate(61.584 178.944)">
              <path id="Trazado_101689" data-name="Trazado 101689" d="M324.213,992a2.5,2.5,0,1,0,2.5-2.5A2.5,2.5,0,0,0,324.213,992Z" transform="translate(-324.213 -989.503)" fill="#fff5e8"/>
            </g>
            <g id="Grupo_55435" data-name="Grupo 55435" transform="translate(22.491 180.016)">
              <path id="Trazado_101690" data-name="Trazado 101690" d="M345.364,992.582a2.5,2.5,0,1,0,2.5-2.5A2.5,2.5,0,0,0,345.364,992.582Z" transform="translate(-345.364 -990.083)" fill="#fff5e8"/>
            </g>
            <g id="Grupo_55437" data-name="Grupo 55437" transform="translate(57.087 177.946)">
              <g id="Grupo_55436" data-name="Grupo 55436" transform="translate(0)">
                <path id="Trazado_101691" data-name="Trazado 101691" d="M338.335,998.894l.054-.7L322.2,996.948l-2.839-7.985-.664.237,2.992,8.415.227.017Zm-19.189-9.48,2.8,7.866Z" transform="translate(-318.695 -988.963)" fill="#4c5f7c"/>
              </g>
            </g>
            <g id="Grupo_55439" data-name="Grupo 55439" transform="translate(13.234 179.774)">
              <g id="Grupo_55438" data-name="Grupo 55438">
                <path id="Trazado_101692" data-name="Trazado 101692" d="M343.606,999.7l16.067-2.048,1.514-7.559-.691-.138-1.414,7.064L343.516,999Zm4.482-.926-4.177.532Zm11.289-1.438.434-2.17Z" transform="translate(-343.516 -989.952)" fill="#4c5f7c"/>
              </g>
            </g>
          </g>
          <path id="Trazado_101693" data-name="Trazado 101693" d="M376.575,857.119s-9.947-14.221-25.068-8.188.739-12.232-20.455,4.917c-8.74,7.073,9.927,31.947,17.479,28.269S376.575,857.119,376.575,857.119Z" transform="translate(-281.468 -792.424)" fill="#fff5e8"/>
          <path id="Trazado_101694" data-name="Trazado 101694" d="M358.7,818.924s.917-1.883-3.235-1.772-20.355,14.631-13.507,23.068,7.87-12.465,11.687-13.219S358.7,818.924,358.7,818.924Z" transform="translate(-284.96 -817.146)" fill="#011a4b"/>
          <g id="Grupo_55441" data-name="Grupo 55441" transform="translate(55.232 0.245)">
            <path id="Trazado_101695" data-name="Trazado 101695" d="M329.21,835.706c-4.157,12.326,1.63,21.967,9.694,28.127,7.489,5.722,18.145-5.388,24.75-16.509,8.132-13.694-3.628-22.22-13.139-25.428S333.369,823.38,329.21,835.706Z" transform="translate(-324.76 -814.194)" fill="#306879"/>
            <path id="Trazado_101696" data-name="Trazado 101696" d="M334.514,839.967c-1.582,2.146-3.9,2.726-5.183,1.3s-1.031-4.327.551-6.474,3.9-2.726,5.183-1.3S336.1,837.819,334.514,839.967Z" transform="translate(-295.532 -804.19)" fill="#ff9769"/>
            <path id="Trazado_101697" data-name="Trazado 101697" d="M355.635,818.584a25.067,25.067,0,0,0-9.469-1.259,76.433,76.433,0,0,1-6.8,7.393c-1.649,1.619-3.259,3.264-4.817,4.968-.712.78-1.449,1.517-2.2,2.255-.338.329-.675.664-1,1.009,0,.052-.1.176-.194.268-.1.129-.209.259-.227.286a5.317,5.317,0,0,1-2.268,1.824c-.954,12.751,1.7,27.558,11.921,27.889,11.284.366,22.741-3.456,26.9-15.782S366.333,822.192,355.635,818.584Z" transform="translate(-328.477 -817.279)" fill="#011a4b"/>
            <path id="Trazado_101698" data-name="Trazado 101698" d="M349.376,867.524l-5.391-.279c-4.905-.253-8.452-5.351-7.569-10.881l2.292-14.328.567-3.543c3.345,1.443,13.494,6.1,18.327,11.345l.4,7.3.018.34C358.337,863.07,354.284,867.777,349.376,867.524Z" transform="translate(-332.049 -799.284)" fill="#faaf85"/>
            <path id="Trazado_101699" data-name="Trazado 101699" d="M356.031,853.694a3.224,3.224,0,0,1-3.478,3.4c-17.505-1.444-14.444-8.912-15.622-14.9a28.635,28.635,0,0,1-.529-4s.4.161,1.1.458c3.345,1.445,13.494,6.1,18.328,11.347Z" transform="translate(-330.266 -799.544)" fill="#ff9769"/>
            <path id="Trazado_101700" data-name="Trazado 101700" d="M363.189,842.957A32.057,32.057,0,0,0,362,848.041a60.67,60.67,0,0,0-.638,8c-.179,9.038-5.436,10.857-11.838,11.6a15.482,15.482,0,0,1-11.014-3.131,21.329,21.329,0,0,1-4.648-4.744,27.114,27.114,0,0,1-4.793-12.694c-1.458-12.509-1.636-22.767,15.174-24.724S367.212,830.771,363.189,842.957Z" transform="translate(-323.928 -813.176)" fill="#faaf85"/>
            <path id="Trazado_101701" data-name="Trazado 101701" d="M357.493,833.534a7.14,7.14,0,0,0-.294,1.133,5.42,5.42,0,0,1-.728,1.432,4.079,4.079,0,0,1-2.806,1.66c-.039.007-.081.013-.122.017a6.994,6.994,0,0,1-1.711-.007,10.367,10.367,0,0,1-1.146-.2,29.22,29.22,0,0,1-3.669-1.1c-7.692-2.9-6.663-7.022-14.834-4.671-3.037.876-4.282-.713-4.61-3.179-.009-.068-.017-.138-.022-.209a17.836,17.836,0,0,1,.148-4.21c.074-.518-.176-1.25.251-1.545C347.7,808.966,358.454,831.75,357.493,833.534Z" transform="translate(-315.298 -816.415)" fill="#011a4b"/>
            <path id="Trazado_101702" data-name="Trazado 101702" d="M356.425,827.16s-9.831,5.475-8.428,11.374c.967,4.066-1.085,3.345-1.085,3.345s-5.534.057-5.987.033,2.674-14.729,2.674-14.729l12.552-5.619Z" transform="translate(-338.933 -813.644)" fill="#011a4b"/>
            <path id="Trazado_101703" data-name="Trazado 101703" d="M332.522,837.474h0a1.671,1.671,0,0,0,1.75-1.577l.074-1.41a1.672,1.672,0,0,0-1.576-1.752h0a1.671,1.671,0,0,0-1.75,1.577l-.074,1.412A1.671,1.671,0,0,0,332.522,837.474Z" transform="translate(-298.488 -804.17)" fill="#1b1b51"/>
            <path id="Trazado_101704" data-name="Trazado 101704" d="M339.388,837.112h0a1.671,1.671,0,0,0,1.75-1.577l.074-1.41a1.669,1.669,0,0,0-1.575-1.75h0a1.671,1.671,0,0,0-1.752,1.575l-.074,1.412A1.671,1.671,0,0,0,339.388,837.112Z" transform="translate(-318.044 -804.476)" fill="#1b1b51"/>
            <path id="Trazado_101705" data-name="Trazado 101705" d="M352.113,837.516c-.059,2.669-1.663,4.5-3.584,4.083s-3.428-2.915-3.369-5.583,1.664-4.5,3.584-4.083S352.172,834.848,352.113,837.516Z" transform="translate(-342.528 -804.899)" fill="#faaf85"/>
          </g>
          <path id="Trazado_101706" data-name="Trazado 101706" d="M321.935,896.578l-2.88-38.4c2.935-2.212,14.768-9.787,15.324-8.866,5.639,26.938,25.164,16.047,28.338,10.9,2.961-4.8-2.321-12.764-2.44-13.089,0,0,16.311,1.911,24.349,5.961.2.1.4.213.608.331v28A6.1,6.1,0,0,0,382.261,885c-4.8,13.01,21.828,48.931,3.081,64.588-18.847,11.737-37.991-.479-50.421-2.192-7.537-1.039-12.4-7.914-10.474-14.723,2.177-7.694,4.157-17.884,2.443-25.774A28.669,28.669,0,0,0,321.935,896.578Z" transform="translate(-279.051 -791.717)" fill="#011a4b"/>
          <path id="Trazado_101707" data-name="Trazado 101707" d="M405.919,859.287s2.033,8.593-14.564,24.129-23.671,23.447-31.153,21.741-12.049-4.6-9.759-16.185S393.909,835.932,405.919,859.287Z" transform="translate(-349.849 -787.353)" fill="#011a4b"/>
          <g id="Grupo_55443" data-name="Grupo 55443" transform="translate(85.311 61.502)">
            <path id="Trazado_101708" data-name="Trazado 101708" d="M318.373,911.532s-3.562,1.774-9.84-13.577-.754-32.031-.754-32.031l12.566-7.151L336.133,878.9s9.977,15.053-1.678,22.806C329.395,905.072,318.373,911.532,318.373,911.532Z" transform="translate(-287.363 -843.338)" fill="#011a4b"/>
            <g id="Grupo_55442" data-name="Grupo 55442" transform="translate(0)">
              <path id="Trazado_101709" data-name="Trazado 101709" d="M344.556,898.8s-1.976,3.384-15.6-5.811-18.193-25.872-18.193-25.872l21.074-16.7L343.122,864.6s8.212,12.587,10.491,19.3C355.542,889.585,344.556,898.8,344.556,898.8Z" transform="translate(-310.766 -850.422)" fill="#011a4b"/>
              <path id="Trazado_101710" data-name="Trazado 101710" d="M333.93,879.7c.4.928,3.673,4.673-1.029,11.315s-4.076,6.678-10.121,6.67-7.341-.457-9.506-6.308-7.977-11.359-6.637-13.932S326.524,862.5,333.93,879.7Z" transform="translate(-284.337 -833.192)" fill="#011a4b"/>
            </g>
          </g>
          <path id="Trazado_101711" data-name="Trazado 101711" d="M343.924,841.812s-1.3,4.547-5.89,3.748c-4.105-.713-5.177-5.175-5.177-5.175Z" transform="translate(-256.37 -797.434)" fill="#fff"/>
          <path id="Trazado_101712" data-name="Trazado 101712" d="M349.313,833.66s-1.07,3.48,0,5.356C346.458,838.212,345.654,831.606,349.313,833.66Z" transform="translate(-287.642 -803.473)" fill="#ff9769"/>
          <g id="Grupo_55483" data-name="Grupo 55483" transform="translate(17.583 9.07)">
            <g id="Grupo_55472" data-name="Grupo 55472" transform="translate(0)">
              <g id="Grupo_55461" data-name="Grupo 55461">
                <path id="Trazado_101713" data-name="Trazado 101713" d="M319.473,975.237l3.192,46.665a.933.933,0,0,1-1.841.274l-14.076-43.542Z" transform="translate(-204.439 -692.113)" fill="#af6751"/>
                <g id="Grupo_55445" data-name="Grupo 55445" transform="translate(8.679 107.757)">
                  <g id="Grupo_55444" data-name="Grupo 55444" transform="translate(0 2.087)">
                    <path id="Trazado_101714" data-name="Trazado 101714" d="M301.452,932.65l5.942-1.8c.257-.078.512-.165.767-.261a23.558,23.558,0,0,0,6.258-3.859l-5.942,1.8a23.558,23.558,0,0,1-6.258,3.859C301.964,932.486,301.709,932.573,301.452,932.65Z" transform="translate(-195.082 -843.1)" fill="#ffb000"/>
                    <path id="Trazado_101715" data-name="Trazado 101715" d="M371.929,1000.507l5.942-1.8c.3-.089.59-.189.874-.294a8.281,8.281,0,0,0,5.844-8.382c-.006-4.281-2.4-21.089-6.748-27.07-5.478-7.53-12.019-6.818-14.893-6.018a1.176,1.176,0,0,1-1.44-1.137,17.679,17.679,0,0,0-4.257-10.31,27.451,27.451,0,0,1-4.63-7.757c-9.243-20.745,8.107-47.588,27.977-56.258l-5.94,1.8c-19.871,8.668-37.222,35.511-27.977,56.258a27.431,27.431,0,0,0,4.628,7.756,17.677,17.677,0,0,1,4.257,10.31,1.178,1.178,0,0,0,1.44,1.139c2.874-.8,9.415-1.514,14.893,6.016,4.349,5.981,6.743,22.791,6.75,27.072a8.283,8.283,0,0,1-5.846,8.38C372.518,1000.319,372.226,1000.417,371.929,1000.507Z" transform="translate(-344.127 -881.484)" fill="#ffb000"/>
                    <path id="Trazado_101716" data-name="Trazado 101716" d="M385.528,1017.925l5.94-1.8c-32.3,9.77-56.838-2.484-65.283-25.56-7.336-20.044-3.782-20.542-3.179-26.48a20.566,20.566,0,0,0-3.471-13.583,16.335,16.335,0,0,1-1.968-3.593c-.222-.627.081-1.281.967-1.549l-5.942,1.8c-.884.268-1.188.922-.967,1.551a16.36,16.36,0,0,0,1.968,3.591,20.572,20.572,0,0,1,3.471,13.585c-.6,5.937-4.157,6.434,3.179,26.478C328.688,1015.443,353.227,1027.7,385.528,1017.925Z" transform="translate(-290.804 -827.296)" fill="#ffb000"/>
                  </g>
                  <path id="Trazado_101717" data-name="Trazado 101717" d="M317.727,882.442c-19.871,8.67-37.22,35.513-27.977,56.258a27.453,27.453,0,0,0,4.63,7.757,17.679,17.679,0,0,1,4.257,10.31,1.176,1.176,0,0,0,1.44,1.137c2.874-.8,9.415-1.512,14.893,6.018,4.349,5.981,6.742,22.789,6.748,27.07a8.28,8.28,0,0,1-5.844,8.382,21.162,21.162,0,0,1-6.888,1.137c-.885.268-1.188.922-.967,1.549a16.333,16.333,0,0,0,1.968,3.593,20.566,20.566,0,0,1,3.471,13.583c-.6,5.938-4.157,6.436,3.179,26.48,8.818,24.1,35.187,36.393,69.619,24.131,34.058-13.433,48.682-43.364,36.374-65.8-8.009-14.6-9.4-16.531-13.675-20.636a20.487,20.487,0,0,1-6.112-12.592,16.391,16.391,0,0,0-.819-4.024,1.133,1.133,0,0,0-1.43-.715,23.561,23.561,0,0,1-6.258,3.859c-3.416,1.281-6.888.972-9.824-2.5-2.75-3.251-11.755-17.581-12.306-24.985-.691-9.326,4.73-13.1,7.426-14.391a1.2,1.2,0,0,0,.359-1.813,17.746,17.746,0,0,1-3.406-10.628,27.7,27.7,0,0,0-1.481-8.938C368.763,884.843,338.328,875.928,317.727,882.442Z" transform="translate(-281.255 -880.355)" fill="#af6751"/>
                </g>
                <g id="Grupo_55450" data-name="Grupo 55450" transform="translate(50.988 182.002)">
                  <g id="Grupo_55447" data-name="Grupo 55447" transform="translate(3.466 20.837)">
                    <g id="Grupo_55446" data-name="Grupo 55446" transform="translate(0 19.363)">
                      <path id="Trazado_101718" data-name="Trazado 101718" d="M342.038,942.513a2.024,2.024,0,1,0,.835,2.739A2.026,2.026,0,0,0,342.038,942.513Z" transform="translate(-339.061 -942.275)" fill="#465c77"/>
                      <path id="Trazado_101719" data-name="Trazado 101719" d="M337.87,946.012s2.312.569,4.292-2.408c-1.863.943-3.992-.979-3.992-.979Z" transform="translate(-335.91 -941.98)" fill="#465c77"/>
                    </g>
                    <path id="Trazado_101720" data-name="Trazado 101720" d="M343.132,952.522s1.541-3.51-3.41-12.633l-2.837-6.221,4-1.869S347.579,948.971,343.132,952.522Z" transform="translate(-336.584 -931.799)" fill="#465c77"/>
                  </g>
                  <g id="Grupo_55449" data-name="Grupo 55449" transform="translate(0 0)">
                    <g id="Grupo_55448" data-name="Grupo 55448" transform="translate(1.9)">
                      <ellipse id="Elipse_4487" data-name="Elipse 4487" cx="2.024" cy="2.024" rx="2.024" ry="2.024" transform="matrix(-0.1, -0.995, 0.995, -0.1, 2.412, 4.433)" fill="#465c77"/>
                      <path id="Trazado_101721" data-name="Trazado 101721" d="M344.248,920.757s-2.157-1.009-4.68,1.525c2.011-.562,3.726,1.739,3.726,1.739Z" transform="translate(-339.568 -920.497)" fill="#465c77"/>
                    </g>
                    <path id="Trazado_101722" data-name="Trazado 101722" d="M340.435,921.653s-1.543,3.51,3.408,12.633l2.837,6.221-3.8,1.859S335.988,925.2,340.435,921.653Z" transform="translate(-338.94 -919.568)" fill="#465c77"/>
                  </g>
                </g>
                <g id="Grupo_55455" data-name="Grupo 55455" transform="translate(78.05 172.406)">
                  <g id="Grupo_55452" data-name="Grupo 55452" transform="translate(13.08 16.996)">
                    <g id="Grupo_55451" data-name="Grupo 55451" transform="translate(12.385 13.776)">
                      <path id="Trazado_101723" data-name="Trazado 101723" d="M311.882,933.294a2.024,2.024,0,1,1,1.179,2.608A2.025,2.025,0,0,1,311.882,933.294Z" transform="translate(-310.335 -931.983)" fill="#465c77"/>
                      <path id="Trazado_101724" data-name="Trazado 101724" d="M316.918,934.949s-1.362,1.954-4.815,1.024c2.022-.523,2.355-3.373,2.355-3.373Z" transform="translate(-312.103 -931.459)" fill="#465c77"/>
                    </g>
                    <path id="Trazado_101725" data-name="Trazado 101725" d="M326.912,942.814s-3.475-1.617-5.776-11.74l-1.976-6.545-4.238,1.236S321.228,943.082,326.912,942.814Z" transform="translate(-314.922 -924.529)" fill="#465c77"/>
                  </g>
                  <g id="Grupo_55454" data-name="Grupo 55454" transform="translate(0)">
                    <g id="Grupo_55453" data-name="Grupo 55453" transform="translate(0 0.027)">
                      <path id="Trazado_101726" data-name="Trazado 101726" d="M330.317,918.3a2.024,2.024,0,1,1-1.665-2.329A2.024,2.024,0,0,1,330.317,918.3Z" transform="translate(-326.295 -914.841)" fill="#465c77"/>
                      <path id="Trazado_101727" data-name="Trazado 101727" d="M325.827,917.309s.956-2.181,4.523-1.943c-1.882.906-1.652,3.767-1.652,3.767Z" transform="translate(-325.435 -915.348)" fill="#465c77"/>
                    </g>
                    <path id="Trazado_101728" data-name="Trazado 101728" d="M319.152,915.336s3.477,1.619,5.778,11.742l1.974,6.545,4.085-1.111S324.837,915.069,319.152,915.336Z" transform="translate(-313.737 -915.333)" fill="#465c77"/>
                  </g>
                </g>
                <path id="Trazado_101729" data-name="Trazado 101729" d="M339.743,839.964l55.2,130.279h0a33.33,33.33,0,0,0-21.5,8.084l-.043.035L330.555,843.426Z" transform="translate(-320.719 -806.861)" fill="#465c77"/>
                <path id="Trazado_101730" data-name="Trazado 101730" d="M329.743,954.4s.1,28.894,9.792,51.567c-7.6,3.118-8.3,3.053-8.3,3.053l-23.37-46.693Z" transform="translate(-223.376 -709.787)" fill="#465c77"/>
                <path id="Trazado_101731" data-name="Trazado 101731" d="M322.181,946.154l26.057-9.82a2.507,2.507,0,0,0,1.458-3.22h0a2.506,2.506,0,0,0-3.22-1.457l-26.059,9.82a2.5,2.5,0,0,0-1.456,3.22h0A2.5,2.5,0,0,0,322.181,946.154Z" transform="translate(-253.905 -729.216)" fill="#ffb000"/>
                <path id="Trazado_101732" data-name="Trazado 101732" d="M314.538,958.055a1.428,1.428,0,1,0,.834-1.841A1.429,1.429,0,0,0,314.538,958.055Z" transform="translate(-213.303 -708.327)" fill="#324c66"/>
                <path id="Trazado_101733" data-name="Trazado 101733" d="M317.069,959.008a1.428,1.428,0,1,0,.832-1.839A1.427,1.427,0,0,0,317.069,959.008Z" transform="translate(-220.51 -707.518)" fill="#324c66"/>
                <path id="Trazado_101734" data-name="Trazado 101734" d="M319.961,960.1a1.428,1.428,0,1,0,.832-1.839A1.427,1.427,0,0,0,319.961,960.1Z" transform="translate(-228.747 -706.594)" fill="#324c66"/>
                <path id="Trazado_101735" data-name="Trazado 101735" d="M322.16,960.926a1.428,1.428,0,1,0,.832-1.839A1.429,1.429,0,0,0,322.16,960.926Z" transform="translate(-235.011 -705.891)" fill="#324c66"/>
                <path id="Trazado_101736" data-name="Trazado 101736" d="M317.159,958.766a1.428,1.428,0,1,0,.833-1.839A1.429,1.429,0,0,0,317.159,958.766Z" transform="translate(-220.768 -707.723)" fill="#fff3b6"/>
                <path id="Trazado_101737" data-name="Trazado 101737" d="M320.033,959.816a1.428,1.428,0,1,0,.832-1.841A1.426,1.426,0,0,0,320.033,959.816Z" transform="translate(-228.953 -706.833)" fill="#fff3b6"/>
                <path id="Trazado_101738" data-name="Trazado 101738" d="M322.232,960.645a1.428,1.428,0,1,0,.832-1.841A1.426,1.426,0,0,0,322.232,960.645Z" transform="translate(-235.216 -706.13)" fill="#fff3b6"/>
                <g id="Grupo_55456" data-name="Grupo 55456" transform="translate(17.936 35.646)">
                  <path id="Trazado_101739" data-name="Trazado 101739" d="M399.445,1054.91a.472.472,0,0,0,.115-.013.527.527,0,0,0,.4-.629l-9.563-43.26a.467.467,0,0,0-.033-.1L316.088,841.656a.528.528,0,1,0-.967.425l74.258,169.206,9.552,43.209A.527.527,0,0,0,399.445,1054.91Z" transform="translate(-315.076 -841.34)" fill="#fff3b6"/>
                </g>
                <g id="Grupo_55457" data-name="Grupo 55457" transform="translate(15.346 35.861)">
                  <path id="Trazado_101740" data-name="Trazado 101740" d="M399.935,1056.665a.584.584,0,0,0,.146-.02.531.531,0,0,0,.362-.655l-12.1-42.238-.018-.054L318.572,841.785a.529.529,0,0,0-.98.4l69.739,171.888,12.1,42.213A.531.531,0,0,0,399.935,1056.665Z" transform="translate(-317.554 -841.456)" fill="#fff3b6"/>
                </g>
                <g id="Grupo_55458" data-name="Grupo 55458" transform="translate(13.468 36.95)">
                  <path id="Trazado_101741" data-name="Trazado 101741" d="M399.408,1057.953a.529.529,0,0,0,.5-.7l-13.879-41.381L321.411,842.388a.528.528,0,1,0-.989.37l64.612,173.468,13.873,41.366A.528.528,0,0,0,399.408,1057.953Z" transform="translate(-320.389 -842.045)" fill="#fff3b6"/>
                </g>
                <g id="Grupo_55459" data-name="Grupo 55459" transform="translate(11.337 37.371)">
                  <path id="Trazado_101742" data-name="Trazado 101742" d="M399.642,1059.441a.529.529,0,0,0,.482-.741l-17.815-40.189L323.655,842.633a.528.528,0,0,0-1,.334l58.662,175.9.018.048,17.825,40.209A.525.525,0,0,0,399.642,1059.441Z" transform="translate(-322.626 -842.273)" fill="#fff3b6"/>
                </g>
                <path id="Trazado_101743" data-name="Trazado 101743" d="M314.629,957.814a1.428,1.428,0,1,0,.832-1.841A1.426,1.426,0,0,0,314.629,957.814Z" transform="translate(-213.561 -708.531)" fill="#fff3b6"/>
                <g id="Grupo_55460" data-name="Grupo 55460">
                  <path id="Trazado_101744" data-name="Trazado 101744" d="M365.348,861.146c.93-2.127,3.32-9.644-3.78-19.407-8.426-11.589,2.95-18.337,2.95-18.337s1.216,9.385,10.862,18.054c5.879,5.282,6.149,10.544,5.465,13.849Z" transform="translate(-358.46 -820.91)" fill="#af6751"/>
                  <path id="Trazado_101745" data-name="Trazado 101745" d="M360.3,833.647a8.568,8.568,0,1,0,5-11.04A8.568,8.568,0,0,0,360.3,833.647Z" transform="translate(-356.628 -822.054)" fill="#af6751"/>
                </g>
              </g>
              <path id="Trazado_101746" data-name="Trazado 101746" d="M321.479,879.537a27.059,27.059,0,0,1-11.622,16.418c-9.7,6.109-1.307,20.5,9.609,19.474s24.636-12.587,27.212-19.435,3.366-20.743,3.366-20.743Z" transform="translate(-229.672 -776.928)" fill="#011a4b"/>
              <g id="Grupo_55471" data-name="Grupo 55471" transform="translate(54.522 123.986)">
                <g id="Grupo_55462" data-name="Grupo 55462" transform="translate(7.685 14.105)">
                  <path id="Trazado_101747" data-name="Trazado 101747" d="M333.8,901.82s2.952,3.728,4.73,2.636a.61.61,0,0,0,.118-.876l-1.209-1.856S333.61,899.143,333.8,901.82Z" transform="translate(-332.749 -893.512)" fill="#fcc69a"/>
                  <path id="Trazado_101748" data-name="Trazado 101748" d="M333.9,898.02c.137.1.32,6.229,1.054,7.055s3.885,1.673,3.756-1.763,1.026-3.434,1.026-3.434-.983-2.525-2.791-3.018A3.073,3.073,0,0,0,333.9,898.02Z" transform="translate(-333.901 -896.767)" fill="#fcc69a"/>
                  <path id="Trazado_101749" data-name="Trazado 101749" d="M335.219,902.057a1.86,1.86,0,0,1-1.266.266l.006.013c1.449,1.5,2.172,1.455,2.545,1.194.355-.248.07-.355-.976-1.429a.268.268,0,0,0-.063-.05A.223.223,0,0,0,335.219,902.057Z" transform="translate(-330.908 -892.314)" fill="#ffdfc7"/>
                  <path id="Trazado_101750" data-name="Trazado 101750" d="M335.859,902.057a1.86,1.86,0,0,1-1.266.266c.261.118,1.377.575,1.512-.272A.223.223,0,0,0,335.859,902.057Z" transform="translate(-331.549 -892.314)" fill="#ffe3dc"/>
                </g>
                <g id="Grupo_55469" data-name="Grupo 55469" transform="translate(0)">
                  <g id="Grupo_55468" data-name="Grupo 55468">
                    <g id="Grupo_55467" data-name="Grupo 55467">
                      <path id="Trazado_101751" data-name="Trazado 101751" d="M327.965,901.073s4.482,2.153,7.683,1.174L337,899.582l6.521-3.488a10.854,10.854,0,0,0-7.073-3.983c-3.235,3.9-10.289,7.216-10.289,7.216Z" transform="translate(-315.698 -886.612)" fill="#fcc69a"/>
                      <path id="Trazado_101752" data-name="Trazado 101752" d="M340.5,903.453a4.617,4.617,0,0,0,2.966-3.878c-2.148-2.091-3.715-1.963-3.944-1.421-.135.976-.972,4.532-.972,4.532A2.093,2.093,0,0,0,340.5,903.453Z" transform="translate(-338.545 -881.774)" fill="#fcc69a"/>
                      <path id="Trazado_101753" data-name="Trazado 101753" d="M339.5,901.084a12.778,12.778,0,0,0,4.8-.764,3.091,3.091,0,0,0-1.462-3.868l-5.937,1.484s-1.092.967-.749,1.758S339.5,901.084,339.5,901.084Z" transform="translate(-335.051 -882.929)" fill="#fcc69a"/>
                      <path id="Trazado_101754" data-name="Trazado 101754" d="M332.76,901a9.517,9.517,0,0,1,3.488.575c1.493.632,6.343-1.5,6.3-2.566s-6.51-3.31-6.51-3.31-3.5,1.309-4.4,1.536S332.76,901,332.76,901Z" transform="translate(-324.401 -883.57)" fill="#fcc69a"/>
                      <path id="Trazado_101755" data-name="Trazado 101755" d="M341.925,905s.525.516,1.218-.194-.614-3.526-1.468-4.329-1.419-.573-1.419-.573-1.6.22-1.54,1.2S341.319,903.432,341.925,905Z" transform="translate(-338.715 -880.03)" fill="#fcc69a"/>
                      <path id="Trazado_101756" data-name="Trazado 101756" d="M336.64,894.359c.079.024.118.041.118.041a7.591,7.591,0,0,1,.242,1.233v0c.022.168.046.357.067.566l.02.2c.03.322.057.686.078,1.094a3.652,3.652,0,0,1-.063.856,8.495,8.495,0,0,1-1.2,2.787,4.961,4.961,0,0,1-3.942,2.233,2.247,2.247,0,0,1-2.033-.647c-1.094-1.5-3.989-2.31-3.989-2.31s4.083-5.135,6.606-6.031a2.561,2.561,0,0,1,.386-.1A7.827,7.827,0,0,1,336.64,894.359Z" transform="translate(-308.933 -884.917)" fill="#fcc69a"/>
                      <g id="Grupo_55463" data-name="Grupo 55463" transform="translate(1.733 22.984)">
                        <path id="Trazado_101757" data-name="Trazado 101757" d="M339.253,901.571l.41.074.107.116,1.157,1.251a.782.782,0,0,1,.213.636l-.031.235a9.262,9.262,0,0,1-1.623-1.717A1.33,1.33,0,0,1,339.253,901.571Z" transform="translate(-339.253 -901.571)" fill="#ffdfc7"/>
                        <path id="Trazado_101758" data-name="Trazado 101758" d="M340,901.571l.41.074.107.116a.653.653,0,0,0-.285.4A1.331,1.331,0,0,1,340,901.571Z" transform="translate(-339.998 -901.571)" fill="#ffe3dc"/>
                      </g>
                      <path id="Trazado_101759" data-name="Trazado 101759" d="M333.624,890.232a3.385,3.385,0,0,1,1.181,4.124c-2.412,2.667-2.8,4.526-2.785,5.495v0a2.556,2.556,0,0,0,.067.566,1.11,1.11,0,0,0,.066.207l-.046-.006c-.15-.018-.3-.04-.442-.066a9.33,9.33,0,0,1-4.1-1.952,14.094,14.094,0,0,1-3.17-3.608,60.657,60.657,0,0,0,3.859-5.589A6.514,6.514,0,0,1,333.624,890.232Z" transform="translate(-303.952 -889.136)" fill="#fcc69a"/>
                      <g id="Grupo_55464" data-name="Grupo 55464" transform="translate(1.184 20.354)">
                        <path id="Trazado_101760" data-name="Trazado 101760" d="M339.46,900.148a.1.1,0,0,0-.107.083c0,.011.006.02.007.031a4.79,4.79,0,0,1,2.24.68l.007-.015a.088.088,0,0,0-.015-.081C341.575,900.819,341.083,900.157,339.46,900.148Z" transform="translate(-339.353 -900.148)" fill="#f4a76e"/>
                      </g>
                      <g id="Grupo_55465" data-name="Grupo 55465" transform="translate(3.041 16.751)">
                        <path id="Trazado_101761" data-name="Trazado 101761" d="M338.683,898.2a.129.129,0,0,0-.146.083.139.139,0,0,0,.055.162,4.734,4.734,0,0,1,1.828,1.105.116.116,0,0,0,.033-.091.127.127,0,0,0-.009-.042A2.192,2.192,0,0,0,338.683,898.2Z" transform="translate(-338.529 -898.199)" fill="#f4a76e"/>
                      </g>
                      <g id="Grupo_55466" data-name="Grupo 55466" transform="translate(12.372 13.799)">
                        <path id="Trazado_101762" data-name="Trazado 101762" d="M334.319,897.188a2.419,2.419,0,0,1,.425.98,3.5,3.5,0,0,1,.124.978.139.139,0,0,0,.081.022.1.1,0,0,0,.092-.07l0-.019a2.8,2.8,0,0,0-1.057-2.462.124.124,0,0,0-.089-.013A4.392,4.392,0,0,1,334.319,897.188Z" transform="translate(-333.899 -896.602)" fill="#f4a76e"/>
                      </g>
                      <path id="Trazado_101763" data-name="Trazado 101763" d="M326.41,889.729a3.385,3.385,0,0,1,1.181,4.124c-2.412,2.667-2.8,4.526-2.785,5.495v0c.022.168.046.357.067.566a1.106,1.106,0,0,0,.067.207l-.046-.005c.03.322.057.686.078,1.094a3.649,3.649,0,0,1-.063.856,8.4,8.4,0,0,1-.456-2.017,9,9,0,0,1-.006-1.976,7.67,7.67,0,0,1,1.27-3.482A5.539,5.539,0,0,0,326.41,889.729Z" transform="translate(-296.738 -888.632)" fill="#fbb581"/>
                    </g>
                  </g>
                </g>
                <g id="Grupo_55470" data-name="Grupo 55470" transform="translate(12.559 10.076)">
                  <path id="Trazado_101764" data-name="Trazado 101764" d="M332.073,909.885c-1.776-.8.033-9.143.859-12.57l4.12-1.346a11.865,11.865,0,0,1-.211,2.2C335.407,906.449,334.311,910.89,332.073,909.885Z" transform="translate(-331.318 -893.415)" fill="#fcc69a"/>
                  <path id="Trazado_101765" data-name="Trazado 101765" d="M329.894,907.751c-1.551-.7-.366-7.158.51-11.064l4.377-1.43c-.031.244-.068.5-.116.778C333.23,904.315,332.134,908.759,329.894,907.751Z" transform="translate(-325.019 -894.019)" fill="#fcc69a"/>
                  <path id="Trazado_101766" data-name="Trazado 101766" d="M327.843,905.793c-1.388-.623-.586-5.857.225-9.751l4.454-1.455C331.131,902.538,330.035,906.778,327.843,905.793Z" transform="translate(-318.971 -894.587)" fill="#fcc69a"/>
                </g>
              </g>
            </g>
            <g id="Grupo_55482" data-name="Grupo 55482" transform="translate(6.739 58.69)">
              <g id="Grupo_55473" data-name="Grupo 55473" transform="translate(16.747 6.155)">
                <path id="Trazado_101767" data-name="Trazado 101767" d="M353.913,858.5s2.931,3.567,1.529,5.029a.591.591,0,0,1-.856-.067l-1.514-1.529S351.414,857.771,353.913,858.5Z" transform="translate(-345.703 -856.052)" fill="#fcc69a"/>
                <path id="Trazado_101768" data-name="Trazado 101768" d="M355.1,857.138c.063.15,5.844,1.584,6.478,2.453s.789,4.029-2.445,3.2-3.469.268-3.469.268-2.2-1.453-2.292-3.27A2.986,2.986,0,0,1,355.1,857.138Z" transform="translate(-353.368 -857.138)" fill="#fcc69a"/>
                <path id="Trazado_101769" data-name="Trazado 101769" d="M352.508,860.822a1.8,1.8,0,0,0,.512-1.146l.013.007c1.128,1.686.933,2.36.61,2.661-.309.285-.353-.005-1.155-1.22a.227.227,0,0,1-.035-.07A.224.224,0,0,1,352.508,860.822Z" transform="translate(-343.605 -854.985)" fill="#ffdfc7"/>
                <path id="Trazado_101770" data-name="Trazado 101770" d="M352.944,860.822a1.8,1.8,0,0,0,.512-1.146c.061.272.264,1.425-.567,1.379A.224.224,0,0,1,352.944,860.822Z" transform="translate(-344.041 -854.985)" fill="#ffe3dc"/>
              </g>
              <g id="Grupo_55480" data-name="Grupo 55480">
                <g id="Grupo_55479" data-name="Grupo 55479">
                  <g id="Grupo_55478" data-name="Grupo 55478">
                    <path id="Trazado_101771" data-name="Trazado 101771" d="M368.138,860.342s1.122,4.7-.464,7.534l-2.809.737-4.652,5.471a10.54,10.54,0,0,1-2.325-7.534c4.371-2.266,8.966-8.28,8.966-8.28Z" transform="translate(-351.454 -850.023)" fill="#fcc69a"/>
                    <path id="Trazado_101772" data-name="Trazado 101772" d="M358.448,855.828a4.483,4.483,0,0,1-4.292,2.017c-1.541-2.469-1.1-3.929-.538-4.037.954.074,4.5.011,4.5.011A2.033,2.033,0,0,1,358.448,855.828Z" transform="translate(-332.791 -853.808)" fill="#fcc69a"/>
                    <path id="Trazado_101773" data-name="Trazado 101773" d="M360.355,857.451a12.421,12.421,0,0,1-1.711,4.4,3,3,0,0,1-3.369-2.184l2.628-5.329s1.144-.837,1.824-.349S360.355,857.451,360.355,857.451Z" transform="translate(-338.557 -853.789)" fill="#fcc69a"/>
                    <path id="Trazado_101774" data-name="Trazado 101774" d="M361.789,858.634a9.182,9.182,0,0,0-.172,3.429c.292,1.547-2.724,5.711-3.732,5.449s-1.8-6.861-1.8-6.861,1.963-3.05,2.364-3.863S361.789,858.634,361.789,858.634Z" transform="translate(-341.484 -851.412)" fill="#fcc69a"/>
                    <path id="Trazado_101775" data-name="Trazado 101775" d="M356.179,857.688s.381.606-.434,1.116-3.222-1.307-3.807-2.283-.251-1.464-.251-1.464.538-1.475,1.456-1.214S354.821,856.793,356.179,857.688Z" transform="translate(-327.663 -853.804)" fill="#fcc69a"/>
                    <path id="Trazado_101776" data-name="Trazado 101776" d="M357.122,870.851c.007.08.015.12.015.12a7.454,7.454,0,0,0,1.12.482h0c.155.057.329.118.523.181l.189.061q.446.141,1.022.3a3.532,3.532,0,0,0,.824.115,8.263,8.263,0,0,0,2.893-.564,4.825,4.825,0,0,0,2.93-3.283,2.186,2.186,0,0,0-.2-2.064c-1.2-1.346-1.371-4.258-1.371-4.258s-5.713,2.817-7.083,5.029a2.562,2.562,0,0,0-.179.344A7.625,7.625,0,0,0,357.122,870.851Z" transform="translate(-348.378 -846.91)" fill="#fcc69a"/>
                    <g id="Grupo_55474" data-name="Grupo 55474" transform="translate(26.925 2.076)">
                      <path id="Trazado_101777" data-name="Trazado 101777" d="M351.528,854.931l-.015.4.089.126.95,1.355a.764.764,0,0,0,.56.334l.227.017a8.943,8.943,0,0,0-1.294-1.895A1.287,1.287,0,0,0,351.528,854.931Z" transform="translate(-351.513 -854.931)" fill="#ffdfc7"/>
                      <path id="Trazado_101778" data-name="Trazado 101778" d="M352.228,854.931l-.015.4.089.126a.644.644,0,0,1,.444-.188A1.287,1.287,0,0,0,352.228,854.931Z" transform="translate(-352.213 -854.931)" fill="#ffe3dc"/>
                    </g>
                    <path id="Trazado_101779" data-name="Trazado 101779" d="M361.741,870.412a3.288,3.288,0,0,0,3.672,1.968c3.028-1.741,4.872-1.73,5.787-1.514h0a2.477,2.477,0,0,1,.523.181,1.073,1.073,0,0,1,.183.105l.006-.044c.013-.146.022-.29.026-.434a9.046,9.046,0,0,0-1.007-4.292,13.674,13.674,0,0,0-2.773-3.752,59.025,59.025,0,0,1-6.1,2.512A6.33,6.33,0,0,0,361.741,870.412Z" transform="translate(-361.322 -846.324)" fill="#fcc69a"/>
                    <g id="Grupo_55475" data-name="Grupo 55475" transform="translate(24.43 1.029)">
                      <path id="Trazado_101780" data-name="Trazado 101780" d="M353.73,854.452a.1.1,0,0,1,.1-.087.16.16,0,0,1,.03.015,4.756,4.756,0,0,0-.057,1,4.647,4.647,0,0,0,.242,1.262l-.017,0a.086.086,0,0,1-.074-.03C353.931,856.594,353.4,855.994,353.73,854.452Z" transform="translate(-353.624 -854.365)" fill="#f4a76e"/>
                    </g>
                    <g id="Grupo_55476" data-name="Grupo 55476" transform="translate(20.72 2.058)">
                      <path id="Trazado_101781" data-name="Trazado 101781" d="M355.36,855.045a.13.13,0,0,1,.109-.122.14.14,0,0,1,.144.087,4.588,4.588,0,0,0,.673,1.963.125.125,0,0,1-.092.013.122.122,0,0,1-.039-.017A2.129,2.129,0,0,1,355.36,855.045Z" transform="translate(-355.354 -854.922)" fill="#f4a76e"/>
                    </g>
                    <g id="Grupo_55477" data-name="Grupo 55477" transform="translate(16.026 10.282)">
                      <path id="Trazado_101782" data-name="Trazado 101782" d="M357.669,859.89a2.37,2.37,0,0,0,.843.6,3.344,3.344,0,0,0,.9.32.135.135,0,0,1,.006.081.1.1,0,0,1-.087.074h-.017a2.722,2.722,0,0,1-2.12-1.512.118.118,0,0,1,.006-.087A4.186,4.186,0,0,0,357.669,859.89Z" transform="translate(-357.19 -859.371)" fill="#f4a76e"/>
                    </g>
                    <path id="Trazado_101783" data-name="Trazado 101783" d="M360.339,866.928a3.288,3.288,0,0,0,3.672,1.969c3.028-1.741,4.872-1.73,5.787-1.514h0c.155.057.329.118.523.181a1.072,1.072,0,0,1,.183.105l.006-.044q.446.141,1.022.3a3.538,3.538,0,0,0,.824.115,8.151,8.151,0,0,0-1.821-.849,8.773,8.773,0,0,0-1.874-.41,7.427,7.427,0,0,0-3.565.488A5.383,5.383,0,0,1,360.339,866.928Z" transform="translate(-359.92 -842.84)" fill="#fbb581"/>
                  </g>
                </g>
              </g>
              <g id="Grupo_55481" data-name="Grupo 55481" transform="translate(9.674 12.002)">
                <path id="Trazado_101784" data-name="Trazado 101784" d="M366.165,862.1c-.392-1.848-8.683-1.85-12.106-1.771l-2.126,3.634a11.537,11.537,0,0,0,2.131.253C362.218,864.555,366.658,864.43,366.165,862.1Z" transform="translate(-347.9 -860.302)" fill="#fcc69a"/>
                <path id="Trazado_101785" data-name="Trazado 101785" d="M366.661,863.908c-.342-1.615-6.718-1.819-10.605-1.793l-2.259,3.861c.238.02.492.037.763.048C362.715,866.366,367.156,866.24,366.661,863.908Z" transform="translate(-351.841 -858.765)" fill="#fcc69a"/>
                <path id="Trazado_101786" data-name="Trazado 101786" d="M367.139,865.677c-.307-1.445-5.439-1.759-9.3-1.791l-2.3,3.928C363.372,868.13,367.623,867.962,367.139,865.677Z" transform="translate(-355.539 -857.261)" fill="#fcc69a"/>
              </g>
            </g>
          </g>
        </g>
      </g>
    </g>
  </g>
</svg>
