<svg xmlns="http://www.w3.org/2000/svg" width="68" height="68" viewBox="0 0 68 68">
  <g id="Grupo_55564" data-name="Grupo 55564" transform="translate(-2022.764 172.29)">
    <circle id="Elipse_4485" data-name="Elipse 4485" cx="34" cy="34" r="34" transform="translate(2022.764 -172.29)" fill="#635bd3"/>
    <path id="Trazado_101791" data-name="Trazado 101791" d="M2084.387-155.426c0-.954-.046-1.9-.113-2.835a33.947,33.947,0,0,0-27.51-14.029,34,34,0,0,0-34,34,33.834,33.834,0,0,0,4.852,17.508,38.767,38.767,0,0,0,17.813,4.315A38.959,38.959,0,0,0,2084.387-155.426Z" fill="#8979f3"/>
    <path id="Trazado_101792" data-name="Trazado 101792" d="M2055.053-149.765c.673,1.826,1.272,3.431,1.856,5.042,2.3,6.346,4.534,12.719,6.926,19.032,1.389,3.662-.074,6.339-2.572,8.761a10,10,0,0,1-5.568,2.675c-3.926.613-8.065-2.791-8.42-6.925a6.915,6.915,0,0,1,6.951-7.666c1.489-.015,2.981.174,4.663.282-.355-1.064-.659-2.059-1.017-3.034q-5.065-13.8-10.146-27.6a6.3,6.3,0,0,0-.278-.834c-.409-.754-.007-.979.634-1.266,1.567-.7,2.565-.616,4.073.741,2.3,2.07,5.279,3.384,7.966,5.026,2.655,1.623,5.529,2.982,7.906,4.944a13.487,13.487,0,0,1,4.831,12.6,33.3,33.3,0,0,1-1.5,5.614c-.1.317-.582.516-.887.769-.147-.365-.442-.741-.418-1.1.385-5.7-1.513-10.422-6.127-13.859A18.117,18.117,0,0,0,2055.053-149.765Z" fill="#fff"/>
  </g>
</svg>
