<svg xmlns="http://www.w3.org/2000/svg" width="295" height="345" viewBox="0 0 295 345">
  <g id="Grupo_55616" data-name="Grupo 55616" transform="translate(-180 -494)">
    <g id="Grupo_53977" data-name="Grupo 53977">
      <g id="Grupo_53976" data-name="Grupo 53976" transform="translate(-43.5)">
        <ellipse id="Elipse_4424" data-name="Elipse 4424" cx="95" cy="8.5" rx="95" ry="8.5" transform="translate(285 814)" opacity="0.09"/>
        <g id="Grupo_53975" data-name="Grupo 53975" transform="translate(286.922 512.588)">
          <path id="Trazado_100575" data-name="Trazado 100575" d="M217.937,72.575a13.212,13.212,0,0,0-2.556-2.094l.41,2.811s-3.833-2.708-3.986-3.016-2.964-.46-3.884,0,5.228,4.752,5.228,4.752-5.841,0-6.71-.358-3.627-.1-3.934,1.227,7.308,2.4,7.308,2.4,2.658,1.686,3.219,2.811-1.073,2.453-1.073,2.453l-2.3-3.22a24.133,24.133,0,0,0-2.964-1.736c-.92-.358-1.227,1.021-1.175,1.431s2.708,2.861,2.964,3.729,2.657,6.592,2.657,6.592l1.431,3.683-13.49,33.11S176.8,110.8,172.962,107.733s-11.083-4.7-12.311-4.9-5.113-2.658-5.113-2.658v-7.6c5.183-2.665,10.359-8.544,10.359-8.544s5.179-1.226,6.132-3.269,1.5-5.587,0-5.314,3.383-11.911-4.224-19.214c-10.221-9.811-22.893-1.5-22.893-1.5a13.255,13.255,0,0,0-6,8.722c-1.09,6-1.5,17.169,1.634,23.166a17.284,17.284,0,0,0,4.275,5.653l-2.162,8.109s-1.738.307-8.483-.408-9.4,4.087-10.527,5.825-2.964,12.775-2.964,12.775-7.052,20.032-7.563,20.032-32.4-4.5-32.4-4.5l-6.03-2.759s-5.723-1.432-7.46-.92,4.6,3.781,4.6,3.781a28.522,28.522,0,0,1-3.986.306c-1.023-.1-1.941-2.452-2.248-2.964s-1.84-.306-1.84-.306-.613,3.884.2,5.314a13.9,13.9,0,0,1,1.023,4.5s-4.8,2.351-5.724,2.861.512,2.044.512,2.044l9.606-2.351s-2.453,3.168-3.373,4.293a2.974,2.974,0,0,0,0,3.986c1.125,1.328,6.132-6.439,6.132-6.439l9.505-4.906s35.26,8.79,36.384,8.79,3.851-4.531,3.851-4.531a40.888,40.888,0,0,1-.273,19.351c-2.726,10.629.818,27.526.818,28.616s-2.453,15.263-2.453,20.985,4.632,48.24,4.632,54.509,7.087,15.261,7.087,15.261l11.445,13.114c0,.006,4.146,5.906,8.819,12.8-.532,17.98-1.732,35.207-1.732,35.207l-7.155,16.353a31.833,31.833,0,0,1-3.474,3.066c-1.022.613-.818,2.248,3.271,1.839a99.417,99.417,0,0,1,11.447,0s6.132-11.242,7.153-13.285,1.227-7.359-.2-10.834c-1.174-2.851-1.106-6.126,1.325-16.007a20.872,20.872,0,0,1,2.354,4.663c.511,3.474,1.431,17.476,1.431,17.476s-4.089,7.768-3.168,8.891,3.168,0,3.168,0l6.54-5.417s0-9.709.614-11.65,7.256-10.629,5.62-13.389-6.132-4.19-6.132-4.19l-7.1-10.451c2.43-15.085.857-33.072-.565-38.4a37.7,37.7,0,0,1-1.431-10.426c3.066-13.49,7.359-60.707,6.95-72.154s-17.221-26.572-20.032-31.171-.561-11.6,1.125-16.046,11.549-14.717,11.549-14.717l5.57-8.841,20.9,13.44s17.221,7.971,17.476,7.716S211.8,120,211.8,120s5.212-26.47,5.212-26.675.767-8.942.818-9.658.715-5.57,1.278-6.438S218.192,73.138,217.937,72.575ZM150.228,266.147c0,2.248,1.226,10.016,1.226,10.016.257,2.123.436,4.667.557,7.483-2.674-4.146-5.473-7.277-8.029-7.827a2.176,2.176,0,0,0-.294-.2c-4.634-2.453-2.726-15.808-2.726-15.808l5.792-53.962S150.228,263.9,150.228,266.147Z" transform="translate(-58.959 -51.437)" fill="#8979f3"/>
          <path id="Trazado_100576" data-name="Trazado 100576" d="M216.871,67.573a.719.719,0,0,0-.831.593l-.169,1.012-4.517-3.766a.722.722,0,0,0-.924,1.109l4.6,3.835-.346,2.776c-.13-.511-.288-.616-.425-.7-.242-.144-.329-.668-.332-.881v-.586l-7.8-1.618a.721.721,0,1,0-.293,1.412l6.713,1.393a2.346,2.346,0,0,0,.782,1.392,67.234,67.234,0,0,1-.058,9.442l-1.353-1.849-3.952-6.813a.721.721,0,1,0-1.247.724l3.993,6.876,2.449,3.353v1.849l-11.005,40.4L200.5,124.3a.721.721,0,0,0-1.282.662l1.441,2.788-34.735-23.544-16.985-4.273.312-.959-.362-.128,4.006-23.163c2.922-3.5,6.229-7.344,7.009-8.043a.724.724,0,0,0,.511-.691l-.013-.529-.474-.172c-.57-.206-.8-.275-7.489,7.73a.707.707,0,0,0-.343.043l-7.057-9.207a.721.721,0,1,0-1.145.877l7.56,9.865-4.223,24.425a.677.677,0,0,0,.006.209l-1.509,3.9-3.259-4.743-.424.042c-4.09.4-10.309,1-10.661,1.018l-3,.61-12.342,35.335-1.213-1.976a.722.722,0,0,0-1.23.754l1.1,1.788L81.6,131.174a.718.718,0,0,0-.389-.646L71.25,125.52a.721.721,0,1,0-.648,1.288l4.8,2.416-1.25-.195L74,129l-4.893,1.37-3.693-3.125a.721.721,0,1,0-.932,1.1l3.872,3.278.486.984-3.729-.864a.721.721,0,0,0-.326,1.4l4.88,1.129.495,1-9.151,2.033a.721.721,0,0,0,.156,1.425.831.831,0,0,0,.157-.016l9.5-2.11.352.714-5.029,5.737a.721.721,0,0,0,1.089.946l5.326-6.138h0l.616-.71,8.453-4.523,34.073,5.913,1.472,2.4a.722.722,0,0,0,1.23-.754l-1.39-2.264,12.462-35.675,2.008-.418c.9-.063,7.12-.668,10.277-.978l3.642,5.3-5.01,15.437c-.193.786-4.726,19.269-4.413,23.023.257,3.082,5.182,27.2,6.954,35.811l-1.79,1.918-16.079-.388a.71.71,0,0,0-.74.7.723.723,0,0,0,.7.74l14.8.358-3.128,3.352-6.377,2.752v79.816l24.584,34.8-.734,33.007-6.3,18.5a.722.722,0,1,0,1.366.466l6.372-18.707.7-31.284,11.63,16.464V341.5a.721.721,0,1,0,1.442,0V322.471l-13.017-18.43.888-40.006V183.857l6,3.144a.721.721,0,0,0,.669-1.278l-10.832-5.679-5.694,2.457-2.566-.062q-.119-.575-.323-1.568l7.388-7.918a.721.721,0,1,0-1.054-.984l-6.69,7.168c-1.908-9.3-6.487-31.781-6.725-34.637-.235-2.817,2.76-15.988,4.363-22.508l6.715-20.685,16.726,4.165,36.825,24.96,1.875,3.626a.721.721,0,1,0,1.281-.662l-2.054-3.976,11.444-42.005.022-2.322v-.006c.13-2.185.212-3.978.261-5.462a.737.737,0,0,0,.111.009.722.722,0,0,0,.711-.6L217.463,68.4A.721.721,0,0,0,216.871,67.573ZM74.087,130.479c.577.089,1.379.215,2.194.339l0,0c-.372.474-3.163,1.454-5.666,2.121l-.646-1.31Zm-1.712,5.475-.177.2-.208-.421a.649.649,0,0,0,0-.118.7.7,0,0,0-.245-.381l-.48-.975c2.361-.636,5.762-1.713,6.288-2.765a.735.735,0,0,0,.052-.482c.831.123,1.526.218,1.865.251l.864.434Zm69.378,47.855,2.052.05a.782.782,0,0,0,.189.105L140,185.687ZM155.8,183.1v80.918l-.845,38.042L131.76,269.223v-78.41l6.284-2.711,7.23,4.2a.719.719,0,0,0,.985-.261.722.722,0,0,0-.261-.986l-6.307-3.662,7.972-3.44,2.708.066h.017a.72.72,0,0,0,.3-1.373l2.322-1Zm-12.463-.7-.267-.006.216-.232Z" transform="translate(-58.302 -45.646)" fill="#f1bf5e"/>
        </g>
      </g>
      <rect id="Rectángulo_5214" data-name="Rectángulo 5214" width="295" height="345" transform="translate(180 494)" fill="none"/>
    </g>
    <text id="Rigging" transform="translate(228.5 527)" fill="#8979f3" font-size="20" font-family="Roboto-Black, Roboto" font-weight="800"><tspan x="0" y="19">Riggin</tspan></text>
  </g>
</svg>
