<svg xmlns="http://www.w3.org/2000/svg" width="400" height="164" viewBox="0 0 400 164">
  <g id="Grupo_54003" data-name="Grupo 54003" transform="translate(887.984 332.378)">
    <g id="Rectángulo_5227" data-name="Rectángulo 5227" transform="translate(-52)">
      <rect id="Rectángulo_5227-2" data-name="Rectángulo 5227" width="295" height="164" transform="translate(-782.984 -332.378)" fill="#cceff7"/>
      <rect id="Rectángulo_5228" data-name="Rectángulo 5228" width="294" height="163" transform="translate(-782.484 -331.878)" fill="#cceff7"/>
    </g>
    <g id="Rectángulo_5227-3" data-name="Rectángulo 5227" transform="translate(-105)">
      <rect id="Rectángulo_5229" data-name="Rectángulo 5229" width="400" height="164" transform="translate(-782.984 -332.378)" fill="#cceff7"/>
      <rect id="Rectángulo_5230" data-name="Rectángulo 5230" width="399" height="163" transform="translate(-782.484 -331.878)" fill="#cceff7"/>
    </g>
    <path id="Trazado_100579" data-name="Trazado 100579" d="M-716.841-171.555a18.344,18.344,0,0,0,7.973-9.7l1.978,1.007a19.193,19.193,0,0,1-10.052,9.783l-.188,2.023h25.176l1.262-5.777a16.61,16.61,0,0,1-7.283-2.809,39.145,39.145,0,0,0,7.594,1.388l.089-.406.057.42a32.822,32.822,0,0,0,8.556-.326,14.641,14.641,0,0,1-8.354,1.8l.781,5.711h22.847a16.793,16.793,0,0,1-9.03-9.377l1.978-1.007a17.508,17.508,0,0,0,7.74,9.626v.758h2.049c-.482-14.1-1.226-25.122-2.049-30.349h-27.688l.071.517h-21.024Z" transform="translate(-59)" fill="#267fbf"/>
    <g id="Grupo_53991" data-name="Grupo 53991" transform="translate(-59)">
      <path id="Trazado_100580" data-name="Trazado 100580" d="M-648.027-226.463c-12.28-.527-23.622-9.553-33.516-15.053l6.314-18.426c10.205,6.048,22.623,14.351,27.777,18.135C-637.3-234.657-641.506-225.2-648.027-226.463Z" fill="#ffa88f"/>
      <path id="Trazado_100581" data-name="Trazado 100581" d="M-677.092-261.306c8.075,2.347,16.183,7.339,22.955,12.138-10.1,8.336-5.946,19.424-5.206,22.08l-18.513-9.968C-685.613-242.657-692.032-261.991-677.092-261.306Z" fill="#8979f3"/>
      <path id="Trazado_100582" data-name="Trazado 100582" d="M-662.346-228.7s-2.721-5.851.79-13.524c2.45-5.354,5.652-7.578,6.62-7.387s3.868,1.271,2.657,4.156c0,0-3.815,2.146-5.935,8.057-2.74,7.642.55,9,.55,9S-660.137-225.29-662.346-228.7Z" fill="#fff"/>
    </g>
    <g id="Grupo_53992" data-name="Grupo 53992" transform="translate(-59)">
      <path id="Trazado_100583" data-name="Trazado 100583" d="M-735.586-226.449c12.249-1.013,23.224-10.481,32.893-16.369l-7.039-18.162c-9.958,6.448-22.036,15.236-27.036,19.222C-746.628-234.211-742.051-224.924-735.586-226.449Z" fill="#ffa88f"/>
      <path id="Trazado_100584" data-name="Trazado 100584" d="M-707.925-262.416c-7.976,2.664-15.879,7.975-22.456,13.038,10.423,7.929,6.712,19.173,6.078,21.856l18.1-10.694C-698.671-244.119-693.024-263.693-707.925-262.416Z" fill="#8979f3"/>
      <path id="Trazado_100585" data-name="Trazado 100585" d="M-721.367-229.253s2.486-5.954-1.326-13.483c-2.66-5.252-5.947-7.347-6.907-7.118s-3.815,1.423-2.49,4.258c0,0,3.9,1.993,6.249,7.815,3.041,7.528-.192,9.02-.192,9.02S-723.439-225.757-721.367-229.253Z" fill="#fff"/>
    </g>
    <path id="Trazado_100586" data-name="Trazado 100586" d="M-664.15-187.717c-7.783,5.278-41.59,6.465-53.582,1.018q.176-2.215.345-4.33c2.119-26.351,3.725-41.809,6.828-66.826,13.879-7.567,31.633-6.268,37.5-1.245l8.423,67.465Z" transform="translate(-59)" fill="#8979f3"/>
    <path id="Trazado_100587" data-name="Trazado 100587" d="M-688.465-241.727l.562,12.8,12.044-.49-.85-12.913Z" transform="translate(-59)" fill="#5d51f4"/>
    <path id="Trazado_100588" data-name="Trazado 100588" d="M-683.946-262.463c2.661.516,6.295,2.887,2.986,8.261s-22.446,4.795-23.263-1.547S-686.606-262.98-683.946-262.463Z" transform="translate(-59)" fill="#fff"/>
    <g id="Grupo_53993" data-name="Grupo 53993" transform="translate(-59)">
      <path id="Trazado_100589" data-name="Trazado 100589" d="M-683.5-259.268l-.492-2.1-1.773-7.536-2.337-9.961-12.573.339-.426,20.948C-699.646-249.988-680.575-253.055-683.5-259.268Z" fill="#ffa88f"/>
      <path id="Trazado_100590" data-name="Trazado 100590" d="M-697.256-270.8s8.584,7.9,13.261,9.424l-1.773-7.536Z" fill="#0d0d0d" opacity="0.5" style="mix-blend-mode: soft-light;isolation: isolate"/>
    </g>
    <g id="Grupo_53995" data-name="Grupo 53995" transform="translate(-59)">
      <g id="Grupo_53994" data-name="Grupo 53994">
        <path id="Trazado_100591" data-name="Trazado 100591" d="M-680.24-291.3c4.519,6.446,6.077,17.1-1.446,22.44s-18.869,1.722-25.1-7.05-5.183-20.215,2.34-25.558S-684.554-302.633-680.24-291.3Z" fill="#ffa88f"/>
        <path id="Trazado_100592" data-name="Trazado 100592" d="M-686.361-281.95a.144.144,0,0,1-.125-.071.145.145,0,0,1,.05-.2c.016-.009,1.563-.945,1.4-2.188-.094-.744-.894-.712-1.851-.6a1.809,1.809,0,0,1-.832,0l-.032-.015-1.171-1.568a.145.145,0,0,1,.03-.2.146.146,0,0,1,.2.03l1.123,1.5a2.786,2.786,0,0,0,.645-.034c.81-.1,2.035-.239,2.174.851.182,1.433-1.474,2.433-1.545,2.475A.148.148,0,0,1-686.361-281.95Z" fill="#733602"/>
        <path id="Trazado_100593" data-name="Trazado 100593" d="M-685.939-289.569c-.66-.952-.742-1.959-.191-2.341s1.465.049,2.125,1l-.408.283c-.5-.723-1.17-1.059-1.434-.876s-.184.927.316,1.65Z" fill="#522601"/>
        <path id="Trazado_100594" data-name="Trazado 100594" d="M-698.172-282.847c-.659-.953-.741-1.959-.19-2.341s1.465.049,2.125,1l-.408.282c-.5-.722-1.17-1.058-1.434-.876s-.185.928.316,1.651Z" fill="#522601"/>
        <path id="Trazado_100595" data-name="Trazado 100595" d="M-690.749-274.628a10.207,10.207,0,0,1-4.809-1.261.145.145,0,0,1-.061-.2.147.147,0,0,1,.2-.061c7.3,3.855,12.623-2.61,12.676-2.676a.145.145,0,0,1,.2-.022.144.144,0,0,1,.022.2C-682.561-278.588-685.819-274.628-690.749-274.628Z" fill="#733602"/>
      </g>
      <path id="Trazado_100596" data-name="Trazado 100596" d="M-681.113-293.281s-1.846-6.946-11.005-5.881c1.345,2.011,4.452,3.291,7.793,4.474,0,0-7.9,2.453-13.872-.348.854,2.362,4.2,4.013,4.2,4.013s-5.642,2.612-9.123.341c1.045,4.977-2.083,12.206.841,19.576-9.663-5.348-13.651-7.154-15.87-13.94-3.183-9.731,6.479-19.9,15.765-22.969C-685.627-314.188-677.9-304.323-681.113-293.281Z" fill="#0d0d0d"/>
      <circle id="Elipse_4432" data-name="Elipse 4432" cx="3.182" cy="3.182" r="3.182" transform="translate(-708.237 -276.586) rotate(-79.48)" fill="#ffa88f"/>
      <path id="Trazado_100597" data-name="Trazado 100597" d="M-685.155-286.089c.265.732,1.757.864,3.333.295s2.638-1.625,2.374-2.358-1.757-.864-3.333-.295S-685.419-286.822-685.155-286.089Z" fill="#ff9475"/>
      <path id="Trazado_100598" data-name="Trazado 100598" d="M-699.01-279.243c.265.732,1.817.843,3.466.247s2.771-1.673,2.506-2.406-1.816-.843-3.465-.247S-699.274-279.976-699.01-279.243Z" fill="#ff9475"/>
    </g>
    <g id="Grupo_53996" data-name="Grupo 53996" transform="translate(-59)">
      <path id="Trazado_100599" data-name="Trazado 100599" d="M-727.173-239.974s1.784-6.456,7.645-8.24,8.24,2.124,8.24,2.124,7.221-4.078,19.028-3.143,18.179,2.378,20.643,5.437c2.548-5.352,14.61-6.626,14.61-6.626v-4.672l-70.166,1.189Z" opacity="0.2" style="mix-blend-mode: multiply;isolation: isolate"/>
      <rect id="Rectángulo_5231" data-name="Rectángulo 5231" width="71.055" height="71.055" transform="translate(-728.343 -321.437)" fill="#fff"/>
    </g>
    <g id="Grupo_53997" data-name="Grupo 53997" transform="translate(-59)">
      <path id="Trazado_100600" data-name="Trazado 100600" d="M-656.568-237.323c-.813-3.765-2.68-33.248-2.68-33.248l4.913-3.531s15.818,31.969,12.8,41.725C-644.124-223.988-655.3-231.474-656.568-237.323Z" fill="#ffa88f"/>
      <path id="Trazado_100601" data-name="Trazado 100601" d="M-659.851-276.786c.419,2.01-1.885,2.369-.511,5.975,1.267,3.327,6.08.592,6.184-2.295a59.076,59.076,0,0,0,.742-7.833c-.033-3.069-3.985-10.042-4.23-9.768-1.392.473.751,6.9.751,6.9s-3.2-3.367-4.759-4.035c-1.614.807,3.507,5.761,3.507,5.761a4.814,4.814,0,0,0-3.228-1.169,3.431,3.431,0,0,0-2.9,1.982c-.065.784,2.516.226,2.761-.229l1.837,1.2a4.035,4.035,0,0,0-4.376,2.89c.418,1.362,2.618-.887,2.618-.887A2.071,2.071,0,0,1-659.851-276.786Z" fill="#ffa88f"/>
    </g>
    <g id="Grupo_53998" data-name="Grupo 53998" transform="translate(-59)">
      <path id="Trazado_100602" data-name="Trazado 100602" d="M-727.4-236.688c.742-3.779,3.53-32.6,3.53-32.6l-5.274-2.208s-16.4,30.34-13.2,40.037C-739.589-223.12-728.551-230.816-727.4-236.688Z" fill="#ffa88f"/>
      <path id="Trazado_100603" data-name="Trazado 100603" d="M-724.458-274.627c-.291,2.033,2.03,2.246.886,5.931-1.056,3.4-6.031.973-6.317-1.9a59.114,59.114,0,0,1-1.232-7.77c-.159-3.065,3.347-10.272,3.608-10.015,1.419.385-.316,6.935-.316,6.935s2.983-3.561,4.5-4.326c1.662.7-3.138,5.97-3.138,5.97a4.811,4.811,0,0,1,3.149-1.369,3.429,3.429,0,0,1,3.019,1.8c.114.778-2.5.383-2.77-.055l-1.758,1.309a4.035,4.035,0,0,1,4.549,2.609c-.332,1.387-2.669-.72-2.669-.72A2.072,2.072,0,0,0-724.458-274.627Z" fill="#ffa88f"/>
    </g>
    <path id="Trazado_100604" data-name="Trazado 100604" d="M-664.15-187.717c-7.783,5.278-41.59,6.465-53.582,1.018q.176-2.215.345-4.33c4.615,1.576,16.862,5.365,26.543,4.8,9.665-.561,21.662-4.009,26.2-5.41Z" transform="translate(-59)" fill="#fff"/>
    <path id="Trazado_100605" data-name="Trazado 100605" d="M-597.368-261.881s-21.19,24.475-14.673,28.248,27.49-20.3,28.231-26.973S-591.769-274.173-597.368-261.881Z" transform="translate(-45)" fill="#ffa88f"/>
    <path id="Trazado_100606" data-name="Trazado 100606" d="M-601.969-257.833l13.028,9.452,9.324-13.922-10.6-10.6Z" transform="translate(-45)" fill="#267fbf"/>
    <path id="Trazado_100607" data-name="Trazado 100607" d="M-540.022-255.023l-13.028,9.452-9.324-13.922,10.6-10.6Z" transform="translate(-45)" fill="#267fbf"/>
    <path id="Trazado_100608" data-name="Trazado 100608" d="M-560.786-256.961s16.212,29.436,24.709,27.251c7.293-1.875-8.091-34.184-12.95-38.811S-567.182-268.858-560.786-256.961Z" transform="translate(-45)" fill="#ffa88f"/>
    <path id="Trazado_100609" data-name="Trazado 100609" d="M-555.825-247.2l15.722-9.4-11.621-17.6-14.27,4.272.427,8.63Z" transform="translate(-45)" fill="#267fbf"/>
    <path id="Trazado_100610" data-name="Trazado 100610" d="M-555.731-221.876l-28.477-.17c-.81-5.1-9.582-27.219-6.135-37.263-.371-6.868,24.09-10.909,27.766-6.846s7.928,9.525,9.082,13.362S-555.731-221.876-555.731-221.876Z" transform="translate(-45)" fill="#267fbf"/>
    <path id="Trazado_100611" data-name="Trazado 100611" d="M-582.079-265.151s4.187,6.809,14.822,9.005c4.569-5.262-1.156-12.337-1.156-12.337Z" transform="translate(-45)" fill="#ffa88f"/>
    <g id="Grupo_54001" data-name="Grupo 54001" transform="translate(-45)">
      <path id="Trazado_100612" data-name="Trazado 100612" d="M-571.967-283.366c.6,2.417,3.253,13.694,3.8,15.9-2.088,3.6-12.489,6.191-13.914,2.317l-2.129-18.255C-581.283-283.4-574.835-283.374-571.967-283.366Z" fill="#ffa88f"/>
      <path id="Trazado_100613" data-name="Trazado 100613" d="M-571.967-283.366l2.841,11.487c-5.566-1.073-9.976-4.935-12.706-8.955a17.138,17.138,0,0,1,5.051-2.547Z" fill="#0d0d0d" opacity="0.6" style="mix-blend-mode: soft-light;isolation: isolate"/>
      <g id="Grupo_54000" data-name="Grupo 54000">
        <path id="Trazado_100614" data-name="Trazado 100614" d="M-564-302.949c6.332,8.551,5.167,19.4,1.012,22.77-6.767,5.488-20.036,4.556-26.367-3.994s-5.789-19.685,1.213-24.87S-570.331-311.5-564-302.949Z" fill="#ffa88f"/>
        <g id="Grupo_53999" data-name="Grupo 53999">
          <path id="Trazado_100615" data-name="Trazado 100615" d="M-568-291.608a.161.161,0,0,1-.16-.143.161.161,0,0,1,.142-.179,1.948,1.948,0,0,0,1.379-.613.694.694,0,0,0,.12-.57c-.065-.3-.55-.436-1.163-.609a6.126,6.126,0,0,1-2.118-.92l-1.037-.862a.161.161,0,0,1-.021-.227.161.161,0,0,1,.227-.021l1.032.857a5.859,5.859,0,0,0,2,.863c.718.2,1.285.36,1.391.851a1.016,1.016,0,0,1-.172.826,2.221,2.221,0,0,1-1.605.746Z" fill="#94503c"/>
          <path id="Trazado_100616" data-name="Trazado 100616" d="M-575.81-295.313a1.09,1.09,0,0,1-.185,1.5,1.091,1.091,0,0,1-1.406-.567,1.091,1.091,0,0,1,.185-1.5A1.091,1.091,0,0,1-575.81-295.313Z" fill="#6e3b2d"/>
          <ellipse id="Elipse_4433" data-name="Elipse 4433" cx="0.923" cy="1.164" rx="0.923" ry="1.164" transform="matrix(0.821, -0.57, 0.57, 0.821, -568.218, -300.783)" fill="#6e3b2d"/>
          <path id="Trazado_100617" data-name="Trazado 100617" d="M-569.34-301.161a.16.16,0,0,1-.161-.156,2.172,2.172,0,0,1,1.12-2.011,1.514,1.514,0,0,1,1.663.123.16.16,0,0,1,.033.225.16.16,0,0,1-.226.033,1.2,1.2,0,0,0-1.321-.1,1.876,1.876,0,0,0-.947,1.715.161.161,0,0,1-.156.166Z" fill="#94503c"/>
          <path id="Trazado_100618" data-name="Trazado 100618" d="M-579.063-295.393a.161.161,0,0,1-.161-.156,2.174,2.174,0,0,1,1.12-2.011,1.518,1.518,0,0,1,1.664.122.162.162,0,0,1,.032.226.16.16,0,0,1-.226.032,1.2,1.2,0,0,0-1.321-.094,1.875,1.875,0,0,0-.947,1.714.161.161,0,0,1-.156.167Z" fill="#94503c"/>
        </g>
        <path id="Trazado_100619" data-name="Trazado 100619" d="M-575.351-311.708s-10.946,19.4-6.99,36.071c-14.56-6.433-19.718-15.491-15.884-26.159C-594.793-311.344-583.865-315.139-575.351-311.708Z" fill="#0e0e0e"/>
        <path id="Trazado_100620" data-name="Trazado 100620" d="M-576.547-309.37a19.641,19.641,0,0,1,12.282,6.075c-4.168-7.271-17.531-17.886-30.2-4.489S-576.547-309.37-576.547-309.37Z" fill="#0e0e0e"/>
        <circle id="Elipse_4434" data-name="Elipse 4434" cx="3.727" cy="3.727" r="3.727" transform="matrix(0.546, -0.838, 0.838, 0.546, -589.038, -284.518)" fill="#ffa88f"/>
        <path id="Trazado_100621" data-name="Trazado 100621" d="M-579.634-271.95c-.063,0-.125,0-.188,0a6.284,6.284,0,0,1-4.416-1.98,6.343,6.343,0,0,1-.583-7.964l.361.253a5.9,5.9,0,0,0,.543,7.408,5.844,5.844,0,0,0,4.107,1.842,5.846,5.846,0,0,0,4.207-1.6,5.887,5.887,0,0,0,.241-8.314,5.906,5.906,0,0,0-6.574-1.38l-.173-.406a6.349,6.349,0,0,1,7.068,1.483,6.329,6.329,0,0,1-.259,8.938A6.276,6.276,0,0,1-579.634-271.95Z" fill="#fff"/>
        <path id="Trazado_100622" data-name="Trazado 100622" d="M-568.787-284.4a2.792,2.792,0,0,1-1.241-.252.162.162,0,0,1-.068-.218.16.16,0,0,1,.217-.067c.039.019,3.077,1.5,6.758-4a.161.161,0,0,1,.224-.044.161.161,0,0,1,.044.224C-565.308-285.093-567.49-284.4-568.787-284.4Z" fill="#94503c"/>
      </g>
    </g>
    <path id="Trazado_100623" data-name="Trazado 100623" d="M-584.208-222.046s-12.234,12.556-11.592,28.132c14.157,3.825,47.56-.848,47.56-.848-.986-10.329-1.528-16.755-7.492-27.114C-576.3-221.876-584.208-222.046-584.208-222.046Z" transform="translate(-45)" fill="#f1bf5e"/>
    <g id="Grupo_54002" data-name="Grupo 54002" transform="translate(-45)">
      <path id="Trazado_100624" data-name="Trazado 100624" d="M-609.663-233.685s-.139-4.129.873-4.613,1.5,3.388.733,4.485S-609.672-232.951-609.663-233.685Z" fill="#ffa88f"/>
      <path id="Trazado_100625" data-name="Trazado 100625" d="M-537.6-230.386s-1.651-3.839-.877-4.612,2.659,2.713,2.34,3.986S-537.334-229.693-537.6-230.386Z" fill="#ffa88f"/>
      <path id="Trazado_100626" data-name="Trazado 100626" d="M-538.949-217.993l-23.4-1.522-18.343-1.193-28.421-1.848,4.237-55.6,70.161,4.563Z" fill="#fff"/>
    </g>
    <path id="Trazado_100627" data-name="Trazado 100627" d="M-618.412-239.311c.762-8.753,3.786-15.092,9.572-32.42l4.982,1.347s.541,22.529-3.967,29.325C-610.718-236.7-617.136-228.43-618.412-239.311Z" transform="translate(-45)" fill="#ffa88f"/>
    <path id="Trazado_100628" data-name="Trazado 100628" d="M-608.6-268.816s-1.571-8.3-1.417-10.254a7.392,7.392,0,0,1,2.774-4.066,40.7,40.7,0,0,1,4.679,2.664c-.251.613-3.057-.467-3.057-.467s1.944,2.262,3.214,3.565c-.318.8-3.655-1.5-3.655-1.5s2.434,2.583,3.387,3.755c-1.087.858-3.1-1.395-3.1-1.395s3.18,4.872,2.106,6.177S-606.905-267.567-608.6-268.816Z" transform="translate(-45)" fill="#ffa88f"/>
    <ellipse id="Elipse_4435" data-name="Elipse 4435" cx="13.098" cy="16.92" rx="13.098" ry="16.92" transform="translate(-764.249 -301.982)" fill="#98989b"/>
    <path id="Trazado_100629" data-name="Trazado 100629" d="M-714.485-262.476l46.883-.723-6.31,12.816h-33.952Z" transform="translate(-59)" fill="#98989b"/>
    <rect id="Rectángulo_5232" data-name="Rectángulo 5232" width="2.336" height="11.621" transform="translate(-753.488 -270.341)" fill="#98989b"/>
    <circle id="Elipse_4436" data-name="Elipse 4436" cx="3.331" cy="3.331" r="3.331" transform="translate(-733.613 -258.426)" fill="#98989b"/>
    <circle id="Elipse_4437" data-name="Elipse 4437" cx="3.331" cy="3.331" r="3.331" transform="translate(-774.677 -258.426)" fill="#98989b"/>
    <path id="Trazado_100630" data-name="Trazado 100630" d="M-668.14-253.986c-.261.563,5.572,3.6,5.572,3.6h-3.982l-3.575-2.717Z" transform="translate(-59)" fill="#98989b"/>
    <path id="Trazado_100631" data-name="Trazado 100631" d="M-715-253.986c.26.563-5.572,3.6-5.572,3.6h3.981l3.575-2.717Z" transform="translate(-59)" fill="#98989b"/>
    <path id="Trazado_100632" data-name="Trazado 100632" d="M-586.9-268.663h29.564l-3.168,39.431h-23.027l-5.766-39.431" transform="translate(-45)" fill="#98989b"/>
    <path id="Trazado_100633" data-name="Trazado 100633" d="M-574.907-265.163l-.571-10.575h1.7l.464,10.575h-2.031" transform="translate(-45)" fill="#98989b"/>
    <ellipse id="Elipse_4438" data-name="Elipse 4438" cx="6.967" cy="5.018" rx="6.967" ry="5.018" transform="translate(-623.318 -232.524)" fill="#98989b"/>
    <circle id="Elipse_4439" data-name="Elipse 4439" cx="2.558" cy="2.558" r="2.558" transform="translate(-638.351 -268.663)" fill="#98989b"/>
    <circle id="Elipse_4440" data-name="Elipse 4440" cx="2.558" cy="2.558" r="2.558" transform="translate(-604.148 -268.663)" fill="#98989b"/>
    <path id="Trazado_100634" data-name="Trazado 100634" d="M-590.793-264.768-606.7-237.946l-.908.512-.191-1.529,15.277-26.2Z" transform="translate(-45)" fill="#98989b"/>
    <path id="Trazado_100635" data-name="Trazado 100635" d="M-572.2-223.793c-8.29.567-8.742,3-8.742,3l19.589,1.225S-563.643-224.377-572.2-223.793Z" transform="translate(-45)" fill="#98989b"/>
    <path id="Trazado_100636" data-name="Trazado 100636" d="M-554.59-265.163l18.125,32.333-.731,1.608-19-33.034Z" transform="translate(-45)" fill="#98989b"/>
    <path id="Trazado_100637" data-name="Trazado 100637" d="M-532.135-233.786c2.027-8.549,1.66-14.5,1.611-32.772l-4.821-.348c.884,11.484-6.846,19.655-5.44,29.822C-540.069-231.9-536.765-223.857-532.135-233.786Z" transform="translate(-45)" fill="#ffa88f"/>
    <path id="Trazado_100638" data-name="Trazado 100638" d="M-530.524-266.558s-.829-8.41-1.526-10.238a7.4,7.4,0,0,0-3.806-3.122,40.757,40.757,0,0,0-3.74,3.874c.413.517,2.8-1.309,2.8-1.309s-1.228,2.717-2.08,4.325c.531.681,3.086-2.465,3.086-2.465s-1.609,3.164-2.194,4.557c1.285.518,2.581-2.211,2.581-2.211s-1.681,5.57-.282,6.521S-531.8-264.882-530.524-266.558Z" transform="translate(-45)" fill="#ffa88f"/>
    <path id="Trazado_100639" data-name="Trazado 100639" d="M-570.3-168.444l.52-3.7.983,3.7h23.432l-2.659-25.16c-3.393-20.242-18.364-19.8-24.71-11.247-7.758-5.789-20.706-4.522-23.062,10.937-.005,7.378.106,16.135.287,25.47Z" transform="translate(-45)" fill="#f1bf5e"/>
  </g>
</svg>
