<svg xmlns="http://www.w3.org/2000/svg" xmlns:xlink="http://www.w3.org/1999/xlink" width="1030" height="203.963" viewBox="0 0 1030 203.963">
  <defs>
    <linearGradient id="linear-gradient" x1="0.465" y1="0.111" x2="0.51" y2="0.48" gradientUnits="objectBoundingBox">
      <stop offset="0" stop-color="#f85c66"/>
      <stop offset="1" stop-color="#ffaf82"/>
    </linearGradient>
  </defs>
  <g id="Grupo_54567" data-name="Grupo 54567" transform="translate(-285 -10868.037)">
    <rect id="Rectángulo_5289" data-name="Rectángulo 5289" width="1030" height="51" transform="translate(285 11021)" fill="#cceff7"/>
    <g id="Grupo_54553" data-name="Grupo 54553" transform="translate(518 9045.145)">
      <g id="Grupo_54172" data-name="Grupo 54172" transform="translate(-123.275 1822.893)">
        <g id="Grupo_54108" data-name="Grupo 54108" transform="translate(114.318 32.76)">
          <g id="Grupo_54107" data-name="Grupo 54107">
            <g id="Grupo_54106" data-name="Grupo 54106">
              <path id="Trazado_100730" data-name="Trazado 100730" d="M-78.039,1690.449s13.276,8.754,8.521,32.537-13.954,26.321-13.954,26.321S-97.4,1696.647-78.039,1690.449Z" transform="translate(88.321 -1690.449)" fill="#162d47"/>
            </g>
          </g>
        </g>
        <g id="Grupo_54111" data-name="Grupo 54111" transform="translate(22.714 134.469)">
          <g id="Grupo_54110" data-name="Grupo 54110">
            <g id="Grupo_54109" data-name="Grupo 54109">
              <path id="Trazado_100731" data-name="Trazado 100731" d="M-68.727,1735.688l-2.6,30.008-1.188,13.753c-17.7,12.28-45.321-6.208-45.321-6.208l-1.02-47.16c8.176-5.158,28.049,2.481,40.353,6.3C-72.705,1734.185-68.727,1735.688-68.727,1735.688Z" transform="translate(118.854 -1724.349)" fill="#ffaf82"/>
            </g>
          </g>
        </g>
        <g id="Grupo_54114" data-name="Grupo 54114" transform="translate(33.883 141.806)">
          <g id="Grupo_54113" data-name="Grupo 54113">
            <g id="Grupo_54112" data-name="Grupo 54112">
              <path id="Trazado_100732" data-name="Trazado 100732" d="M-76.174,1730.8l-2.6,30.008c-20.188-5.319-36.359-34.01-36.359-34.01l29.183.7C-80.152,1729.294-76.174,1730.8-76.174,1730.8Z" transform="translate(115.131 -1726.795)" fill="#f88968"/>
            </g>
          </g>
        </g>
        <g id="Grupo_54117" data-name="Grupo 54117" transform="translate(5.042 17.785)">
          <g id="Grupo_54116" data-name="Grupo 54116">
            <g id="Grupo_54115" data-name="Grupo 54115">
              <path id="Trazado_100733" data-name="Trazado 100733" d="M.544,1735.736c0,.888,0,1.8-.015,2.709,0,.156-.009.318-.009.474-.015.879-.03,1.758-.06,2.661-.282,9.316-1.224,19.6-2.469,29.895-.264,2.163-.543,4.32-.84,6.459-.258,1.854-.507,3.706-.771,5.535-.561,3.813-1.137,7.582-1.728,11.224-.405,2.536-.807,5.02-1.23,7.423a36.483,36.483,0,0,1-1.206,4.92,35.5,35.5,0,0,1-7.6,13.09,35.634,35.634,0,0,1-33.44,10.951c-10.453-2.109-21.994-4.7-32.768-7.7-.537-.141-1.05-.279-1.587-.429a177.964,177.964,0,0,1-23.284-8.07q-1.287-1.832-2.469-3.727c-6.879-11-10.981-23.335-13.417-36.107-.966-5.1-1.68-10.273-2.187-15.454a10.369,10.369,0,0,0-.21-1.209c.009-4.771.063-9.525.147-14.11a59.905,59.905,0,0,1,62.941-58.729c26.735,1.377,52.191,11.737,58.621,25.514C-.476,1716.514.529,1725.3.544,1735.736Z" transform="translate(124.744 -1685.457)" fill="#ffaf82"/>
            </g>
          </g>
        </g>
        <g id="Grupo_54120" data-name="Grupo 54120" transform="translate(7.443 107.36)">
          <g id="Grupo_54119" data-name="Grupo 54119">
            <g id="Grupo_54118" data-name="Grupo 54118">
              <path id="Trazado_100734" data-name="Trazado 100734" d="M-110.53,1751.424c-6.876-11-10.978-23.335-13.414-36.11,3.8.048,8.755,1.2,15.2,4.186C-108.742,1719.5-107.284,1738.325-110.53,1751.424Z" transform="translate(123.944 -1715.313)" fill="#162d47"/>
            </g>
          </g>
        </g>
        <g id="Grupo_54123" data-name="Grupo 54123" transform="translate(74.086 80.677)">
          <g id="Grupo_54122" data-name="Grupo 54122">
            <g id="Grupo_54121" data-name="Grupo 54121">
              <path id="Trazado_100735" data-name="Trazado 100735" d="M-93.8,1713.635c0,3.984-1.773,7.213-3.963,7.213s-3.963-3.229-3.963-7.213,1.773-7.215,3.963-7.215S-93.8,1709.651-93.8,1713.635Z" transform="translate(101.731 -1706.42)" fill="#162d47"/>
            </g>
          </g>
        </g>
        <g id="Grupo_54126" data-name="Grupo 54126" transform="translate(115.051 80.677)">
          <g id="Grupo_54125" data-name="Grupo 54125">
            <g id="Grupo_54124" data-name="Grupo 54124">
              <path id="Trazado_100736" data-name="Trazado 100736" d="M-80.15,1713.635c0,3.984-1.773,7.213-3.963,7.213s-3.963-3.229-3.963-7.213,1.773-7.215,3.963-7.215S-80.15,1709.651-80.15,1713.635Z" transform="translate(88.077 -1706.42)" fill="#162d47"/>
            </g>
          </g>
        </g>
        <g id="Grupo_54129" data-name="Grupo 54129" transform="translate(2.212)">
          <g id="Grupo_54128" data-name="Grupo 54128">
            <g id="Grupo_54127" data-name="Grupo 54127">
              <path id="Trazado_100737" data-name="Trazado 100737" d="M-122.767,1759.4s12.706-8.275,23.41,6.5h8.323s-.474-17.1,3.567-26.375,19.978-9.037,22.357-19.979c0,0,39.005,18.778,61.444,6.808,50.718-27.062-55.873-61.768-94.9-39.93C-127.561,1702.641-128.812,1730.282-122.767,1759.4Z" transform="translate(125.687 -1679.53)" fill="#162d47"/>
            </g>
          </g>
        </g>
        <g id="Grupo_54132" data-name="Grupo 54132" transform="translate(57.501 66.514) rotate(-14)">
          <g id="Grupo_54131" data-name="Grupo 54131" transform="translate(0 15)">
            <g id="Grupo_54130" data-name="Grupo 54130">
              <path id="Trazado_100738" data-name="Trazado 100738" d="M-105.754,1711.885s3.813-7.836,11.137-9.8c6.78-1.815,11.626-.066,14.05,1.257a2.433,2.433,0,0,1,1.1,2.988h0a2.442,2.442,0,0,1-3.321,1.362C-86.895,1705.782-95.928,1703.322-105.754,1711.885Z" transform="translate(105.754 -1701.307)" fill="#162d47"/>
            </g>
          </g>
        </g>
        <g id="Grupo_54135" data-name="Grupo 54135" transform="matrix(0.914, 0.407, -0.407, 0.914, 112.122, 75.825)">
          <g id="Grupo_54134" data-name="Grupo 54134">
            <g id="Grupo_54133" data-name="Grupo 54133">
              <path id="Trazado_100739" data-name="Trazado 100739" d="M-69.359,1704.462c0,.888,0,1.8-.015,2.709,0,.156-.009.318-.009.474a19.5,19.5,0,0,0-16.942-.171,2.439,2.439,0,0,1-1.035.234,2.419,2.419,0,0,1-2.28-1.6,2.42,2.42,0,0,1,1.089-2.979c2.427-1.323,7.269-3.075,14.047-1.263A14.714,14.714,0,0,1-69.359,1704.462Z" transform="translate(89.796 -1701.093)" fill="#162d47"/>
            </g>
          </g>
        </g>
        <g id="Grupo_54145" data-name="Grupo 54145" transform="translate(0 77.078)">
          <g id="Grupo_54138" data-name="Grupo 54138">
            <g id="Grupo_54137" data-name="Grupo 54137">
              <g id="Grupo_54136" data-name="Grupo 54136">
                <path id="Trazado_100740" data-name="Trazado 100740" d="M-97.882,1714.5s-12.745-15.442-23.41-6.5c-11.752,9.855-2.748,43.277,21.133,42.519Z" transform="translate(126.425 -1705.221)" fill="#ffaf82"/>
              </g>
            </g>
          </g>
          <g id="Grupo_54141" data-name="Grupo 54141" transform="translate(10.752 12.437)">
            <g id="Grupo_54140" data-name="Grupo 54140">
              <g id="Grupo_54139" data-name="Grupo 54139">
                <path id="Trazado_100741" data-name="Trazado 100741" d="M-106.739,1734.988a2.1,2.1,0,0,1-2.085-1.86c-1.944-16.906-11.971-19.51-12.4-19.612a2.11,2.11,0,0,1-1.563-2.52,2.091,2.091,0,0,1,2.5-1.578c.543.12,13.339,3.2,15.643,23.23a2.1,2.1,0,0,1-1.848,2.328A2.131,2.131,0,0,1-106.739,1734.988Z" transform="translate(122.841 -1709.366)" fill="#f88968"/>
              </g>
            </g>
          </g>
          <g id="Grupo_54144" data-name="Grupo 54144" transform="translate(11.338 20.3)">
            <g id="Grupo_54143" data-name="Grupo 54143">
              <g id="Grupo_54142" data-name="Grupo 54142">
                <path id="Trazado_100742" data-name="Trazado 100742" d="M-120.544,1719.038a2.1,2.1,0,0,1-1.4-.531,2.1,2.1,0,0,1-.177-2.964,11.909,11.909,0,0,1,11.227-3.246,2.1,2.1,0,0,1,1.6,2.5,2.1,2.1,0,0,1-2.5,1.6,7.639,7.639,0,0,0-7.182,1.929A2.1,2.1,0,0,1-120.544,1719.038Z" transform="translate(122.646 -1711.987)" fill="#f88968"/>
              </g>
            </g>
          </g>
        </g>
        <g id="Grupo_54148" data-name="Grupo 54148" transform="translate(78.049 137.563)">
          <g id="Grupo_54147" data-name="Grupo 54147">
            <g id="Grupo_54146" data-name="Grupo 54146">
              <path id="Trazado_100743" data-name="Trazado 100743" d="M-86.288,1733.865a20.236,20.236,0,0,1-13.48-4.872,2.1,2.1,0,0,1-.051-2.973,2.1,2.1,0,0,1,2.964-.054c.3.278,6.711,6.156,17.407,2.493a2.108,2.108,0,0,1,2.67,1.308,2.1,2.1,0,0,1-1.308,2.67A25.24,25.24,0,0,1-86.288,1733.865Z" transform="translate(100.41 -1725.381)" fill="#f88968"/>
            </g>
          </g>
        </g>
        <g id="Grupo_54165" data-name="Grupo 54165" transform="translate(28.902 70.878)">
          <g id="Grupo_54152" data-name="Grupo 54152" transform="translate(30.18)">
            <g id="Grupo_54151" data-name="Grupo 54151">
              <g id="Grupo_54150" data-name="Grupo 54150">
                <g id="Grupo_54149" data-name="Grupo 54149">
                  <path id="Trazado_100744" data-name="Trazado 100744" d="M-89.718,1737.182a17.033,17.033,0,0,1-17.014-17.014,17.033,17.033,0,0,1,17.014-17.014A17.033,17.033,0,0,1-72.7,1720.167,17.033,17.033,0,0,1-89.718,1737.182Zm0-31.226a14.228,14.228,0,0,0-14.212,14.211,14.228,14.228,0,0,0,14.212,14.212,14.228,14.228,0,0,0,14.212-14.212A14.228,14.228,0,0,0-89.718,1705.956Z" transform="translate(106.732 -1703.154)" fill="#162d47"/>
                </g>
              </g>
            </g>
          </g>
          <g id="Grupo_54156" data-name="Grupo 54156" transform="translate(74.493)">
            <g id="Grupo_54155" data-name="Grupo 54155">
              <g id="Grupo_54154" data-name="Grupo 54154">
                <g id="Grupo_54153" data-name="Grupo 54153">
                  <path id="Trazado_100745" data-name="Trazado 100745" d="M-74.948,1737.182a17.033,17.033,0,0,1-17.014-17.014,17.033,17.033,0,0,1,17.014-17.014,17.033,17.033,0,0,1,17.014,17.014A17.033,17.033,0,0,1-74.948,1737.182Zm0-31.226a14.228,14.228,0,0,0-14.212,14.211,14.228,14.228,0,0,0,14.212,14.212,14.228,14.228,0,0,0,14.212-14.212A14.228,14.228,0,0,0-74.948,1705.956Z" transform="translate(91.962 -1703.154)" fill="#162d47"/>
                </g>
              </g>
            </g>
          </g>
          <g id="Grupo_54160" data-name="Grupo 54160" transform="translate(0 8.839)">
            <g id="Grupo_54159" data-name="Grupo 54159">
              <g id="Grupo_54158" data-name="Grupo 54158">
                <g id="Grupo_54157" data-name="Grupo 54157">
                  <rect id="Rectángulo_5285" data-name="Rectángulo 5285" width="2.802" height="32.18" transform="translate(0 2.794) rotate(-85.568)" fill="#162d47"/>
                </g>
              </g>
            </g>
          </g>
          <g id="Grupo_54164" data-name="Grupo 54164" transform="translate(61.808 11.005)">
            <g id="Grupo_54163" data-name="Grupo 54163">
              <g id="Grupo_54162" data-name="Grupo 54162">
                <g id="Grupo_54161" data-name="Grupo 54161">
                  <path id="Trazado_100746" data-name="Trazado 100746" d="M-94.567,1711.562l-1.623-2.286c2.706-1.93,9.358-4.4,15.142.03l-1.707,2.223C-88.323,1707.263-94.315,1711.385-94.567,1711.562Z" transform="translate(96.19 -1706.822)" fill="#162d47"/>
                </g>
              </g>
            </g>
          </g>
        </g>
        <g id="Grupo_54168" data-name="Grupo 54168" transform="translate(98.025 84.257)">
          <g id="Grupo_54167" data-name="Grupo 54167">
            <g id="Grupo_54166" data-name="Grupo 54166">
              <path id="Trazado_100747" data-name="Trazado 100747" d="M-89.507,1734.436a2.1,2.1,0,0,1-1.671-.828,2.1,2.1,0,0,1,.4-2.943l5.6-4.278-4.854-1.257a2.106,2.106,0,0,1-1.548-1.7l-2.142-13.375a2.1,2.1,0,0,1,1.743-2.409,2.1,2.1,0,0,1,2.409,1.743l1.923,12.022,7.708,1.995a2.113,2.113,0,0,1,1.533,1.621,2.106,2.106,0,0,1-.786,2.088L-88.232,1734A2.1,2.1,0,0,1-89.507,1734.436Z" transform="translate(93.752 -1707.613)" fill="#f88968"/>
            </g>
          </g>
        </g>
        <g id="Grupo_54171" data-name="Grupo 54171" transform="matrix(-0.978, 0.208, -0.208, -0.978, 113.239, 133.011)">
          <g id="Grupo_54170" data-name="Grupo 54170">
            <g id="Grupo_54169" data-name="Grupo 54169">
              <path id="Trazado_100748" data-name="Trazado 100748" d="M-75.425,1733.712a36.643,36.643,0,0,1-26.393-10.464,2.09,2.09,0,0,1-.021-2.956,2.086,2.086,0,0,1,2.952-.021c14.875,14.666,35.753,7.423,35.96,7.348a2.086,2.086,0,0,1,2.67,1.263,2.089,2.089,0,0,1-1.26,2.67A44.647,44.647,0,0,1-75.425,1733.712Z" transform="translate(102.44 -1719.669)" fill="#f88968"/>
            </g>
          </g>
        </g>
      </g>
      <g id="Grupo_54236" data-name="Grupo 54236" transform="translate(107.367 1822.893)">
        <g id="Grupo_54175" data-name="Grupo 54175" transform="translate(114.317 32.76)">
          <g id="Grupo_54174" data-name="Grupo 54174">
            <g id="Grupo_54173" data-name="Grupo 54173">
              <path id="Trazado_100749" data-name="Trazado 100749" d="M-1.165,1690.449s13.276,8.754,8.521,32.537S-6.6,1749.307-6.6,1749.307-20.528,1696.647-1.165,1690.449Z" transform="translate(11.446 -1690.449)" fill="#162d47"/>
            </g>
          </g>
        </g>
        <g id="Grupo_54178" data-name="Grupo 54178" transform="translate(22.711 134.469)">
          <g id="Grupo_54177" data-name="Grupo 54177">
            <g id="Grupo_54176" data-name="Grupo 54176">
              <path id="Trazado_100750" data-name="Trazado 100750" d="M8.148,1735.688l-2.6,30.008-1.191,13.753c-17.7,12.28-45.321-6.208-45.321-6.208l-1.02-47.16c8.176-5.158,28.052,2.481,40.353,6.3C4.173,1734.185,8.148,1735.688,8.148,1735.688Z" transform="translate(41.979 -1724.349)" fill="#ffaf82"/>
            </g>
          </g>
        </g>
        <g id="Grupo_54181" data-name="Grupo 54181" transform="translate(33.881 141.806)">
          <g id="Grupo_54180" data-name="Grupo 54180">
            <g id="Grupo_54179" data-name="Grupo 54179">
              <path id="Trazado_100751" data-name="Trazado 100751" d="M.7,1730.8l-2.6,30.008c-20.191-5.319-36.362-34.01-36.362-34.01l29.183.7C-3.274,1729.294.7,1730.8.7,1730.8Z" transform="translate(38.256 -1726.795)" fill="#f88968"/>
            </g>
          </g>
        </g>
        <g id="Grupo_54184" data-name="Grupo 54184" transform="translate(5.043 17.785)">
          <g id="Grupo_54183" data-name="Grupo 54183">
            <g id="Grupo_54182" data-name="Grupo 54182">
              <path id="Trazado_100752" data-name="Trazado 100752" d="M77.42,1735.736c0,.6,0,1.2-.009,1.812,0,.3,0,.6-.006.9,0,.153-.009.318-.009.474-.015.879-.03,1.758-.063,2.661-.279,9.316-1.221,19.6-2.466,29.895-.264,2.163-.546,4.32-.84,6.459-.258,1.854-.507,3.706-.771,5.535-.561,3.813-1.137,7.579-1.728,11.221-.405,2.539-.81,5.02-1.23,7.426a36.478,36.478,0,0,1-1.206,4.92,35.72,35.72,0,0,1-41.04,24.041c-10.453-2.109-21.994-4.7-32.765-7.7-.537-.141-1.05-.282-1.587-.429a179.043,179.043,0,0,1-23.287-8.07c-.855-1.221-1.68-2.469-2.466-3.729-6.879-11-10.981-23.332-13.417-36.1-.966-5.106-1.683-10.273-2.187-15.457a10.322,10.322,0,0,0-.21-1.206c.006-4.771.06-9.525.147-14.11a59.905,59.905,0,0,1,62.941-58.729c26.732,1.377,52.191,11.737,58.618,25.511,2.3,4.92,3.348,12.531,3.543,21.622C77.405,1733.672,77.42,1734.7,77.42,1735.736Z" transform="translate(47.868 -1685.457)" fill="#ffaf82"/>
            </g>
          </g>
        </g>
        <g id="Grupo_54187" data-name="Grupo 54187" transform="translate(7.443 107.36)">
          <g id="Grupo_54186" data-name="Grupo 54186">
            <g id="Grupo_54185" data-name="Grupo 54185">
              <path id="Trazado_100753" data-name="Trazado 100753" d="M-33.654,1751.424c-6.879-11-10.978-23.335-13.414-36.11,3.8.048,8.752,1.2,15.2,4.186C-31.866,1719.5-30.411,1738.325-33.654,1751.424Z" transform="translate(47.068 -1715.313)" fill="#162d47"/>
            </g>
          </g>
        </g>
        <g id="Grupo_54190" data-name="Grupo 54190" transform="translate(74.083 80.677)">
          <g id="Grupo_54189" data-name="Grupo 54189">
            <g id="Grupo_54188" data-name="Grupo 54188">
              <path id="Trazado_100754" data-name="Trazado 100754" d="M-16.926,1713.635c0,3.984-1.776,7.213-3.963,7.213s-3.966-3.229-3.966-7.213,1.776-7.215,3.966-7.215S-16.926,1709.651-16.926,1713.635Z" transform="translate(24.856 -1706.42)" fill="#162d47"/>
            </g>
          </g>
        </g>
        <g id="Grupo_54193" data-name="Grupo 54193" transform="translate(115.048 80.677)">
          <g id="Grupo_54192" data-name="Grupo 54192">
            <g id="Grupo_54191" data-name="Grupo 54191">
              <path id="Trazado_100755" data-name="Trazado 100755" d="M-3.272,1713.635c0,3.984-1.776,7.213-3.966,7.213s-3.963-3.229-3.963-7.213,1.776-7.215,3.963-7.215S-3.272,1709.651-3.272,1713.635Z" transform="translate(11.202 -1706.42)" fill="#162d47"/>
            </g>
          </g>
        </g>
        <g id="Grupo_54196" data-name="Grupo 54196" transform="translate(2.211)">
          <g id="Grupo_54195" data-name="Grupo 54195">
            <g id="Grupo_54194" data-name="Grupo 54194">
              <path id="Trazado_100756" data-name="Trazado 100756" d="M-45.89,1759.4s12.706-8.275,23.408,6.5h8.326s-.477-17.1,3.567-26.375,19.975-9.037,22.354-19.979c0,0,39.005,18.778,61.444,6.808,50.721-27.062-55.873-61.768-94.9-39.93C-50.684,1702.641-51.938,1730.282-45.89,1759.4Z" transform="translate(48.812 -1679.53)" fill="#162d47"/>
            </g>
          </g>
        </g>
        <g id="Grupo_54199" data-name="Grupo 54199" transform="translate(61.576 57.709)">
          <g id="Grupo_54198" data-name="Grupo 54198">
            <g id="Grupo_54197" data-name="Grupo 54197">
              <path id="Trazado_100757" data-name="Trazado 100757" d="M-29.025,1716.019s.7-8.688,6.8-13.183c5.652-4.164,10.8-4.3,13.543-3.948a2.428,2.428,0,0,1,2.109,2.379h0a2.446,2.446,0,0,1-2.6,2.481C-13.688,1703.464-22.995,1704.466-29.025,1716.019Z" transform="translate(29.025 -1698.764)" fill="#162d47"/>
            </g>
          </g>
        </g>
        <g id="Grupo_54202" data-name="Grupo 54202" transform="translate(112.395 58.337)">
          <g id="Grupo_54201" data-name="Grupo 54201" transform="translate(0)">
            <g id="Grupo_54200" data-name="Grupo 54200">
              <path id="Trazado_100758" data-name="Trazado 100758" d="M5.85,1708.7c0,.6,0,1.2-.009,1.812a19.51,19.51,0,0,0-15.4-6.6,2.411,2.411,0,0,1-1.041-.186,2.412,2.412,0,0,1-1.479-2.358,2.411,2.411,0,0,1,2.163-2.319c2.748-.273,7.894,0,13.426,4.305a13.48,13.48,0,0,1,2.3,2.28C5.835,1706.636,5.85,1707.665,5.85,1708.7Z" transform="translate(12.086 -1698.974)" fill="#162d47"/>
            </g>
          </g>
        </g>
        <g id="Grupo_54212" data-name="Grupo 54212" transform="translate(0 77.078)">
          <g id="Grupo_54205" data-name="Grupo 54205">
            <g id="Grupo_54204" data-name="Grupo 54204">
              <g id="Grupo_54203" data-name="Grupo 54203">
                <path id="Trazado_100759" data-name="Trazado 100759" d="M-21.008,1714.5s-12.742-15.442-23.408-6.5c-11.752,9.855-2.751,43.277,21.133,42.519Z" transform="translate(49.549 -1705.221)" fill="#ffaf82"/>
              </g>
            </g>
          </g>
          <g id="Grupo_54208" data-name="Grupo 54208" transform="translate(10.752 12.437)">
            <g id="Grupo_54207" data-name="Grupo 54207">
              <g id="Grupo_54206" data-name="Grupo 54206">
                <path id="Trazado_100760" data-name="Trazado 100760" d="M-29.863,1734.988a2.1,2.1,0,0,1-2.085-1.86c-1.944-16.906-11.974-19.51-12.4-19.612a2.108,2.108,0,0,1-1.563-2.52,2.089,2.089,0,0,1,2.5-1.578c.543.12,13.339,3.2,15.64,23.23a2.1,2.1,0,0,1-1.848,2.328A2.046,2.046,0,0,1-29.863,1734.988Z" transform="translate(45.965 -1709.366)" fill="#f88968"/>
              </g>
            </g>
          </g>
          <g id="Grupo_54211" data-name="Grupo 54211" transform="translate(11.338 20.3)">
            <g id="Grupo_54210" data-name="Grupo 54210">
              <g id="Grupo_54209" data-name="Grupo 54209">
                <path id="Trazado_100761" data-name="Trazado 100761" d="M-43.67,1719.038a2.1,2.1,0,0,1-1.392-.531,2.1,2.1,0,0,1-.177-2.964,11.9,11.9,0,0,1,11.227-3.246,2.1,2.1,0,0,1,1.6,2.5,2.107,2.107,0,0,1-2.505,1.6,7.632,7.632,0,0,0-7.179,1.929A2.1,2.1,0,0,1-43.67,1719.038Z" transform="translate(45.77 -1711.987)" fill="#f88968"/>
              </g>
            </g>
          </g>
        </g>
        <g id="Grupo_54215" data-name="Grupo 54215" transform="translate(78.017 140.246)">
          <g id="Grupo_54214" data-name="Grupo 54214">
            <g id="Grupo_54213" data-name="Grupo 54213">
              <path id="Trazado_100762" data-name="Trazado 100762" d="M-14.128,1726.31A20.249,20.249,0,0,1-.39,1730.418a2.1,2.1,0,0,1,.216,2.964,2.1,2.1,0,0,1-2.958.225c-.309-.264-7.047-5.769-17.521-1.512a2.1,2.1,0,0,1-2.736-1.155,2.1,2.1,0,0,1,1.155-2.739A25.252,25.252,0,0,1-14.128,1726.31Z" transform="translate(23.545 -1726.275)" fill="#f88968"/>
            </g>
          </g>
        </g>
        <g id="Grupo_54232" data-name="Grupo 54232" transform="translate(28.902 70.878)">
          <g id="Grupo_54219" data-name="Grupo 54219" transform="translate(30.178)">
            <g id="Grupo_54218" data-name="Grupo 54218">
              <g id="Grupo_54217" data-name="Grupo 54217">
                <g id="Grupo_54216" data-name="Grupo 54216">
                  <path id="Trazado_100763" data-name="Trazado 100763" d="M-12.84,1737.182a17.034,17.034,0,0,1-17.017-17.014,17.034,17.034,0,0,1,17.017-17.014,17.033,17.033,0,0,1,17.014,17.014A17.033,17.033,0,0,1-12.84,1737.182Zm0-31.226a14.229,14.229,0,0,0-14.215,14.211A14.229,14.229,0,0,0-12.84,1734.38a14.228,14.228,0,0,0,14.212-14.212A14.228,14.228,0,0,0-12.84,1705.956Z" transform="translate(29.857 -1703.154)" fill="#162d47"/>
                </g>
              </g>
            </g>
          </g>
          <g id="Grupo_54223" data-name="Grupo 54223" transform="translate(74.491)">
            <g id="Grupo_54222" data-name="Grupo 54222" transform="translate(0)">
              <g id="Grupo_54221" data-name="Grupo 54221">
                <g id="Grupo_54220" data-name="Grupo 54220">
                  <path id="Trazado_100764" data-name="Trazado 100764" d="M1.93,1737.182a17.014,17.014,0,1,1,0-34.028,17.014,17.014,0,1,1,0,34.028Zm0-31.226a14.212,14.212,0,1,0,0,28.424,14.212,14.212,0,0,0,0-28.424Z" transform="translate(15.087 -1703.154)" fill="#162d47"/>
                </g>
              </g>
            </g>
          </g>
          <g id="Grupo_54227" data-name="Grupo 54227" transform="translate(0 8.839)">
            <g id="Grupo_54226" data-name="Grupo 54226">
              <g id="Grupo_54225" data-name="Grupo 54225">
                <g id="Grupo_54224" data-name="Grupo 54224">
                  <rect id="Rectángulo_5286" data-name="Rectángulo 5286" width="2.802" height="32.18" transform="translate(0 2.794) rotate(-85.568)" fill="#162d47"/>
                </g>
              </g>
            </g>
          </g>
          <g id="Grupo_54231" data-name="Grupo 54231" transform="translate(61.806 11.005)">
            <g id="Grupo_54230" data-name="Grupo 54230">
              <g id="Grupo_54229" data-name="Grupo 54229">
                <g id="Grupo_54228" data-name="Grupo 54228">
                  <path id="Trazado_100765" data-name="Trazado 100765" d="M-17.692,1711.562l-1.623-2.286c2.706-1.93,9.358-4.4,15.142.03l-1.7,2.223C-11.445,1707.263-17.44,1711.385-17.692,1711.562Z" transform="translate(19.315 -1706.822)" fill="#162d47"/>
                </g>
              </g>
            </g>
          </g>
        </g>
        <g id="Grupo_54235" data-name="Grupo 54235" transform="translate(98.025 84.257)">
          <g id="Grupo_54234" data-name="Grupo 54234" transform="translate(0)">
            <g id="Grupo_54233" data-name="Grupo 54233">
              <path id="Trazado_100766" data-name="Trazado 100766" d="M-12.631,1734.436a2.1,2.1,0,0,1-1.674-.828,2.1,2.1,0,0,1,.4-2.943l5.6-4.278-4.857-1.257a2.111,2.111,0,0,1-1.548-1.7l-2.139-13.375a2.1,2.1,0,0,1,1.743-2.409,2.1,2.1,0,0,1,2.406,1.743l1.926,12.022,7.7,1.995a2.1,2.1,0,0,1,1.533,1.621,2.106,2.106,0,0,1-.786,2.088L-11.359,1734A2.088,2.088,0,0,1-12.631,1734.436Z" transform="translate(16.876 -1707.613)" fill="#f88968"/>
            </g>
          </g>
        </g>
        <path id="Trazado_100767" data-name="Trazado 100767" d="M-25.6,1731.052l0,.033a8.578,8.578,0,0,0,3.954,6.136,8.593,8.593,0,0,0,5.121,1.3c6.891-.441,16.462-.729,21.262.591A4.994,4.994,0,0,0,8,1739.026a5.315,5.315,0,0,0,2.409-2.083,8.354,8.354,0,0,0,.732-7.824,8.621,8.621,0,0,0-5.013-4.815,120.153,120.153,0,0,0-16.327-4.761,33.318,33.318,0,0,0-3.864-.573,10.649,10.649,0,0,0-8.881,3.5,10.288,10.288,0,0,0-.768.958A10.63,10.63,0,0,0-25.6,1731.052Z" transform="translate(97.259 -1600.722)" fill="#920e08"/>
        <path id="Trazado_100768" data-name="Trazado 100768" d="M-24.78,1722.474l34.085,6.646a8.621,8.621,0,0,0-5.013-4.815,120.153,120.153,0,0,0-16.327-4.761,33.318,33.318,0,0,0-3.864-.573A10.649,10.649,0,0,0-24.78,1722.474Z" transform="translate(99.091 -1600.722)" fill="#fff"/>
        <path id="Trazado_100769" data-name="Trazado 100769" d="M-24.345,1728.6a8.593,8.593,0,0,0,5.121,1.3c6.891-.441,16.462-.729,21.262.591a4.994,4.994,0,0,0,3.255-.081c-1.344-2.148-5.589-7.375-14.98-7.167C-17.826,1723.417-22.329,1726.624-24.345,1728.6Z" transform="translate(99.962 -1592.106)" fill="#f85c66"/>
      </g>
      <g id="Grupo_54301" data-name="Grupo 54301" transform="translate(321.488 1822.893)">
        <g id="Grupo_54239" data-name="Grupo 54239" transform="translate(114.317 32.76)">
          <g id="Grupo_54238" data-name="Grupo 54238">
            <g id="Grupo_54237" data-name="Grupo 54237">
              <path id="Trazado_100770" data-name="Trazado 100770" d="M70.2,1690.449s13.276,8.754,8.521,32.537-13.951,26.321-13.951,26.321S50.841,1696.647,70.2,1690.449Z" transform="translate(-59.923 -1690.449)" fill="#162d47"/>
            </g>
          </g>
        </g>
        <g id="Grupo_54242" data-name="Grupo 54242" transform="translate(22.711 134.469)">
          <g id="Grupo_54241" data-name="Grupo 54241">
            <g id="Grupo_54240" data-name="Grupo 54240">
              <path id="Trazado_100771" data-name="Trazado 100771" d="M79.517,1735.688l-2.6,30.008-1.191,13.753c-17.7,12.28-45.321-6.208-45.321-6.208l-1.02-47.16c8.176-5.158,28.052,2.481,40.353,6.3C75.542,1734.185,79.517,1735.688,79.517,1735.688Z" transform="translate(-29.39 -1724.349)" fill="#ffaf82"/>
            </g>
          </g>
        </g>
        <g id="Grupo_54245" data-name="Grupo 54245" transform="translate(33.881 141.806)">
          <g id="Grupo_54244" data-name="Grupo 54244">
            <g id="Grupo_54243" data-name="Grupo 54243">
              <path id="Trazado_100772" data-name="Trazado 100772" d="M72.07,1730.8l-2.6,30.008c-20.191-5.319-36.362-34.01-36.362-34.01l29.183.7C68.1,1729.294,72.07,1730.8,72.07,1730.8Z" transform="translate(-33.113 -1726.795)" fill="#f88968"/>
            </g>
          </g>
        </g>
        <g id="Grupo_54248" data-name="Grupo 54248" transform="translate(5.04 17.785)">
          <g id="Grupo_54247" data-name="Grupo 54247">
            <g id="Grupo_54246" data-name="Grupo 54246">
              <path id="Trazado_100773" data-name="Trazado 100773" d="M148.791,1735.736c0,.888,0,1.8-.018,2.709,0,.156-.006.318-.006.474-.015.879-.033,1.758-.063,2.661-.279,9.316-1.221,19.6-2.466,29.895-.267,2.163-.546,4.32-.843,6.459-.255,1.854-.5,3.706-.768,5.535-.561,3.813-1.137,7.582-1.728,11.224-.405,2.536-.81,5.02-1.23,7.423a37.406,37.406,0,0,1-1.206,4.92,35.72,35.72,0,0,1-41.04,24.041c-10.453-2.109-21.994-4.7-32.765-7.7-.537-.141-1.05-.279-1.587-.429a178.016,178.016,0,0,1-23.287-8.07q-1.283-1.832-2.466-3.727c-6.882-11-10.984-23.335-13.42-36.107-.963-5.1-1.68-10.273-2.187-15.454a9.775,9.775,0,0,0-.21-1.209c.009-4.771.063-9.525.15-14.11a59.9,59.9,0,0,1,62.938-58.729c26.735,1.377,52.191,11.737,58.621,25.514C147.771,1716.514,148.773,1725.3,148.791,1735.736Z" transform="translate(-23.5 -1685.457)" fill="#ffaf82"/>
            </g>
          </g>
        </g>
        <g id="Grupo_54249" data-name="Grupo 54249" transform="translate(72.541 115.857)">
          <path id="Trazado_100774" data-name="Trazado 100774" d="M89.025,1722.2a17.81,17.81,0,0,1-.633,2.631,21.422,21.422,0,0,1-5.757,9.343c-3.15,2.913-7.818,5.214-14.7,5.25-6.111.027-10.528-1.812-13.714-4.432-4.488-3.672-6.54-8.877-7.473-12.528a25.365,25.365,0,0,1-.744-4.32C64.411,1725.844,89.025,1722.2,89.025,1722.2Z" transform="translate(-45.999 -1718.146)" fill="#920e08"/>
          <path id="Trazado_100775" data-name="Trazado 100775" d="M77.156,1725.913c-3.15,2.913-7.818,5.214-14.7,5.25-6.111.027-10.528-1.812-13.714-4.432a24.315,24.315,0,0,1,15.793-4.41C70.564,1722.664,73.979,1724.445,77.156,1725.913Z" transform="translate(-40.52 -1709.882)" fill="#f85c66"/>
          <path id="Trazado_100776" data-name="Trazado 100776" d="M89.025,1722.2a17.81,17.81,0,0,1-.633,2.631c-16.846,5.686-34.82.195-41.649-2.367a25.365,25.365,0,0,1-.744-4.32C64.411,1725.844,89.025,1722.2,89.025,1722.2Z" transform="translate(-45.999 -1718.146)" fill="#fff"/>
        </g>
        <g id="Grupo_54252" data-name="Grupo 54252" transform="translate(7.443 107.36)">
          <g id="Grupo_54251" data-name="Grupo 54251">
            <g id="Grupo_54250" data-name="Grupo 54250">
              <path id="Trazado_100777" data-name="Trazado 100777" d="M37.715,1751.424c-6.879-11-10.978-23.335-13.414-36.11,3.8.048,8.752,1.2,15.2,4.186C39.5,1719.5,40.958,1738.325,37.715,1751.424Z" transform="translate(-24.301 -1715.313)" fill="#162d47"/>
            </g>
          </g>
        </g>
        <g id="Grupo_54255" data-name="Grupo 54255" transform="translate(74.083 80.677)">
          <g id="Grupo_54254" data-name="Grupo 54254">
            <g id="Grupo_54253" data-name="Grupo 54253">
              <path id="Trazado_100778" data-name="Trazado 100778" d="M54.442,1713.635c0,3.984-1.776,7.213-3.963,7.213s-3.966-3.229-3.966-7.213,1.776-7.215,3.966-7.215S54.442,1709.651,54.442,1713.635Z" transform="translate(-46.513 -1706.42)" fill="#162d47"/>
            </g>
          </g>
        </g>
        <g id="Grupo_54258" data-name="Grupo 54258" transform="translate(115.048 80.677)">
          <g id="Grupo_54257" data-name="Grupo 54257">
            <g id="Grupo_54256" data-name="Grupo 54256">
              <path id="Trazado_100779" data-name="Trazado 100779" d="M68.1,1713.635c0,3.984-1.776,7.213-3.966,7.213s-3.963-3.229-3.963-7.213,1.776-7.215,3.963-7.215S68.1,1709.651,68.1,1713.635Z" transform="translate(-60.167 -1706.42)" fill="#162d47"/>
            </g>
          </g>
        </g>
        <g id="Grupo_54261" data-name="Grupo 54261" transform="translate(2.211)">
          <g id="Grupo_54260" data-name="Grupo 54260">
            <g id="Grupo_54259" data-name="Grupo 54259">
              <path id="Trazado_100780" data-name="Trazado 100780" d="M25.479,1759.4s12.706-8.275,23.407,6.5h8.326s-.477-17.1,3.567-26.375,19.975-9.037,22.354-19.979c0,0,39.005,18.778,61.444,6.808,50.721-27.062-55.873-61.768-94.9-39.93C20.685,1702.641,19.431,1730.282,25.479,1759.4Z" transform="translate(-22.557 -1679.53)" fill="#162d47"/>
            </g>
          </g>
        </g>
        <g id="Grupo_54264" data-name="Grupo 54264" transform="translate(62.014 65.337)">
          <g id="Grupo_54263" data-name="Grupo 54263">
            <g id="Grupo_54262" data-name="Grupo 54262">
              <path id="Trazado_100781" data-name="Trazado 100781" d="M42.49,1711.885s3.816-7.836,11.14-9.8c6.78-1.815,11.623-.066,14.05,1.257a2.435,2.435,0,0,1,1.1,2.988h0a2.441,2.441,0,0,1-3.321,1.362C61.349,1705.782,52.316,1703.322,42.49,1711.885Z" transform="translate(-42.49 -1701.307)" fill="#162d47"/>
            </g>
          </g>
        </g>
        <g id="Grupo_54267" data-name="Grupo 54267" transform="translate(109.891 64.695)">
          <g id="Grupo_54266" data-name="Grupo 54266">
            <g id="Grupo_54265" data-name="Grupo 54265">
              <path id="Trazado_100782" data-name="Trazado 100782" d="M78.888,1704.462c0,.888,0,1.8-.018,2.709,0,.156-.006.318-.006.474a19.51,19.51,0,0,0-16.945-.171,2.441,2.441,0,0,1-2.226-4.341c2.43-1.323,7.269-3.075,14.05-1.263A14.74,14.74,0,0,1,78.888,1704.462Z" transform="translate(-58.448 -1701.093)" fill="#162d47"/>
            </g>
          </g>
        </g>
        <g id="Grupo_54277" data-name="Grupo 54277" transform="translate(0 77.078)">
          <g id="Grupo_54270" data-name="Grupo 54270">
            <g id="Grupo_54269" data-name="Grupo 54269">
              <g id="Grupo_54268" data-name="Grupo 54268">
                <path id="Trazado_100783" data-name="Trazado 100783" d="M50.361,1714.5s-12.742-15.442-23.407-6.5c-11.752,9.855-2.751,43.277,21.133,42.519Z" transform="translate(-21.82 -1705.221)" fill="#ffaf82"/>
              </g>
            </g>
          </g>
          <g id="Grupo_54273" data-name="Grupo 54273" transform="translate(10.752 12.437)">
            <g id="Grupo_54272" data-name="Grupo 54272">
              <g id="Grupo_54271" data-name="Grupo 54271">
                <path id="Trazado_100784" data-name="Trazado 100784" d="M41.506,1734.988a2.1,2.1,0,0,1-2.085-1.86c-1.944-16.906-11.974-19.51-12.4-19.612a2.1,2.1,0,0,1,.933-4.1c.543.12,13.336,3.2,15.64,23.23a2.1,2.1,0,0,1-1.848,2.328A2.046,2.046,0,0,1,41.506,1734.988Z" transform="translate(-25.404 -1709.366)" fill="#f88968"/>
              </g>
            </g>
          </g>
          <g id="Grupo_54276" data-name="Grupo 54276" transform="translate(11.338 20.3)">
            <g id="Grupo_54275" data-name="Grupo 54275">
              <g id="Grupo_54274" data-name="Grupo 54274">
                <path id="Trazado_100785" data-name="Trazado 100785" d="M27.7,1719.038a2.1,2.1,0,0,1-1.569-3.5,11.9,11.9,0,0,1,11.227-3.246,2.1,2.1,0,1,1-.9,4.1,7.632,7.632,0,0,0-7.179,1.929A2.1,2.1,0,0,1,27.7,1719.038Z" transform="translate(-25.599 -1711.987)" fill="#f88968"/>
              </g>
            </g>
          </g>
        </g>
        <g id="Grupo_54280" data-name="Grupo 54280" transform="translate(79.648 138.203)">
          <g id="Grupo_54279" data-name="Grupo 54279">
            <g id="Grupo_54278" data-name="Grupo 54278">
              <path id="Trazado_100786" data-name="Trazado 100786" d="M62.49,1734.08a20.226,20.226,0,0,1-13.483-4.875,2.1,2.1,0,0,1,2.916-3.027c.3.279,6.711,6.156,17.407,2.493a2.1,2.1,0,0,1,1.359,3.979A25.233,25.233,0,0,1,62.49,1734.08Z" transform="translate(-48.368 -1725.594)" fill="#f88968"/>
            </g>
          </g>
        </g>
        <g id="Grupo_54297" data-name="Grupo 54297" transform="translate(28.901 70.878)">
          <g id="Grupo_54284" data-name="Grupo 54284" transform="translate(30.178)">
            <g id="Grupo_54283" data-name="Grupo 54283">
              <g id="Grupo_54282" data-name="Grupo 54282">
                <g id="Grupo_54281" data-name="Grupo 54281">
                  <path id="Trazado_100787" data-name="Trazado 100787" d="M58.529,1737.182a17.014,17.014,0,1,1,17.014-17.014A17.034,17.034,0,0,1,58.529,1737.182Zm0-31.226a14.212,14.212,0,1,0,14.212,14.211A14.229,14.229,0,0,0,58.529,1705.956Z" transform="translate(-41.512 -1703.154)" fill="#162d47"/>
                </g>
              </g>
            </g>
          </g>
          <g id="Grupo_54288" data-name="Grupo 54288" transform="translate(74.491)">
            <g id="Grupo_54287" data-name="Grupo 54287">
              <g id="Grupo_54286" data-name="Grupo 54286">
                <g id="Grupo_54285" data-name="Grupo 54285">
                  <path id="Trazado_100788" data-name="Trazado 100788" d="M73.3,1737.182a17.014,17.014,0,1,1,17.014-17.014A17.034,17.034,0,0,1,73.3,1737.182Zm0-31.226a14.212,14.212,0,1,0,14.212,14.211A14.229,14.229,0,0,0,73.3,1705.956Z" transform="translate(-56.282 -1703.154)" fill="#162d47"/>
                </g>
              </g>
            </g>
          </g>
          <g id="Grupo_54292" data-name="Grupo 54292" transform="translate(0 8.839)">
            <g id="Grupo_54291" data-name="Grupo 54291">
              <g id="Grupo_54290" data-name="Grupo 54290">
                <g id="Grupo_54289" data-name="Grupo 54289">
                  <rect id="Rectángulo_5287" data-name="Rectángulo 5287" width="2.802" height="32.18" transform="translate(0 2.794) rotate(-85.568)" fill="#162d47"/>
                </g>
              </g>
            </g>
          </g>
          <g id="Grupo_54296" data-name="Grupo 54296" transform="translate(61.806 11.005)">
            <g id="Grupo_54295" data-name="Grupo 54295">
              <g id="Grupo_54294" data-name="Grupo 54294">
                <g id="Grupo_54293" data-name="Grupo 54293">
                  <path id="Trazado_100789" data-name="Trazado 100789" d="M53.677,1711.562l-1.623-2.286c2.706-1.93,9.358-4.4,15.142.03l-1.7,2.223C59.923,1707.263,53.929,1711.385,53.677,1711.562Z" transform="translate(-52.054 -1706.822)" fill="#162d47"/>
                </g>
              </g>
            </g>
          </g>
        </g>
        <g id="Grupo_54300" data-name="Grupo 54300" transform="translate(98.025 84.257)">
          <g id="Grupo_54299" data-name="Grupo 54299">
            <g id="Grupo_54298" data-name="Grupo 54298">
              <path id="Trazado_100790" data-name="Trazado 100790" d="M58.738,1734.436a2.1,2.1,0,0,1-1.278-3.771l5.6-4.278-4.857-1.257a2.111,2.111,0,0,1-1.548-1.7l-2.139-13.375a2.1,2.1,0,1,1,4.149-.666l1.926,12.022,7.7,1.995a2.1,2.1,0,0,1,.747,3.708L60.01,1734A2.082,2.082,0,0,1,58.738,1734.436Z" transform="translate(-54.493 -1707.613)" fill="#f88968"/>
            </g>
          </g>
        </g>
      </g>
      <g id="Grupo_54366" data-name="Grupo 54366" transform="translate(549.032 1822.893)">
        <g id="Grupo_54304" data-name="Grupo 54304" transform="translate(114.318 32.76)">
          <g id="Grupo_54303" data-name="Grupo 54303">
            <g id="Grupo_54302" data-name="Grupo 54302">
              <path id="Trazado_100791" data-name="Trazado 100791" d="M146.049,1690.449s13.276,8.754,8.518,32.537-13.951,26.321-13.951,26.321S126.685,1696.647,146.049,1690.449Z" transform="translate(-135.767 -1690.449)" fill="#162d47"/>
            </g>
          </g>
        </g>
        <g id="Grupo_54307" data-name="Grupo 54307" transform="translate(22.714 134.469)">
          <g id="Grupo_54306" data-name="Grupo 54306">
            <g id="Grupo_54305" data-name="Grupo 54305">
              <path id="Trazado_100792" data-name="Trazado 100792" d="M155.361,1735.688l-2.6,30.008-1.188,13.753c-17.7,12.28-45.321-6.208-45.321-6.208l-1.02-47.16c8.176-5.158,28.049,2.481,40.353,6.3C151.383,1734.185,155.361,1735.688,155.361,1735.688Z" transform="translate(-105.234 -1724.349)" fill="#ffaf82"/>
            </g>
          </g>
        </g>
        <g id="Grupo_54310" data-name="Grupo 54310" transform="translate(33.88 141.806)">
          <g id="Grupo_54309" data-name="Grupo 54309">
            <g id="Grupo_54308" data-name="Grupo 54308">
              <path id="Trazado_100793" data-name="Trazado 100793" d="M147.916,1730.8l-2.6,30.008c-20.191-5.319-36.362-34.01-36.362-34.01l29.186.7C143.938,1729.294,147.916,1730.8,147.916,1730.8Z" transform="translate(-108.956 -1726.795)" fill="#f88968"/>
            </g>
          </g>
        </g>
        <g id="Grupo_54313" data-name="Grupo 54313" transform="translate(5.042 17.785)">
          <g id="Grupo_54312" data-name="Grupo 54312">
            <g id="Grupo_54311" data-name="Grupo 54311">
              <path id="Trazado_100794" data-name="Trazado 100794" d="M224.632,1735.736c0,.888,0,1.8-.015,2.709,0,.156-.009.318-.009.474-.015.879-.03,1.758-.063,2.661-.279,9.316-1.221,19.6-2.466,29.895-.264,2.163-.546,4.32-.84,6.459-.258,1.854-.507,3.706-.771,5.535-.561,3.813-1.137,7.582-1.728,11.224-.4,2.536-.81,5.02-1.23,7.423a36.483,36.483,0,0,1-1.206,4.92,35.72,35.72,0,0,1-41.04,24.041c-10.453-2.109-21.994-4.7-32.765-7.7-.537-.141-1.05-.279-1.587-.429a178.173,178.173,0,0,1-23.287-8.07q-1.283-1.832-2.466-3.727c-6.879-11-10.981-23.335-13.417-36.107-.966-5.1-1.683-10.273-2.187-15.454a10.375,10.375,0,0,0-.21-1.209c.006-4.771.06-9.525.147-14.11a59.905,59.905,0,0,1,62.941-58.729c26.732,1.377,52.191,11.737,58.621,25.514C223.612,1716.514,224.617,1725.3,224.632,1735.736Z" transform="translate(-99.344 -1685.457)" fill="url(#linear-gradient)"/>
            </g>
          </g>
        </g>
        <g id="Grupo_54314" data-name="Grupo 54314" transform="translate(85.286 119.076)">
          <path id="Trazado_100795" data-name="Trazado 100795" d="M144,1728.171a8.81,8.81,0,0,1-1.272,4.6,8.945,8.945,0,0,1-16.177-1.806,9.1,9.1,0,0,1-.459-2.8,8.954,8.954,0,0,1,17.908,0Z" transform="translate(-126.09 -1719.219)" fill="#920e08"/>
          <path id="Trazado_100796" data-name="Trazado 100796" d="M142.42,1725.658a8.945,8.945,0,0,1-16.177-1.806,16.292,16.292,0,0,1,9.346-.741A17.234,17.234,0,0,1,142.42,1725.658Z" transform="translate(-125.784 -1712.103)" fill="#f85c66"/>
        </g>
        <g id="Grupo_54317" data-name="Grupo 54317" transform="translate(7.443 107.36)">
          <g id="Grupo_54316" data-name="Grupo 54316">
            <g id="Grupo_54315" data-name="Grupo 54315">
              <path id="Trazado_100797" data-name="Trazado 100797" d="M113.558,1751.424c-6.876-11-10.978-23.335-13.414-36.11,3.8.048,8.755,1.2,15.2,4.186C115.346,1719.5,116.8,1738.325,113.558,1751.424Z" transform="translate(-100.144 -1715.313)" fill="#162d47"/>
            </g>
          </g>
        </g>
        <g id="Grupo_54320" data-name="Grupo 54320" transform="translate(74.086 80.677)">
          <g id="Grupo_54319" data-name="Grupo 54319">
            <g id="Grupo_54318" data-name="Grupo 54318">
              <path id="Trazado_100798" data-name="Trazado 100798" d="M130.283,1713.635c0,3.984-1.773,7.213-3.963,7.213s-3.963-3.229-3.963-7.213,1.773-7.215,3.963-7.215S130.283,1709.651,130.283,1713.635Z" transform="translate(-122.357 -1706.42)" fill="#162d47"/>
            </g>
          </g>
        </g>
        <g id="Grupo_54323" data-name="Grupo 54323" transform="translate(115.051 80.677)">
          <g id="Grupo_54322" data-name="Grupo 54322">
            <g id="Grupo_54321" data-name="Grupo 54321">
              <path id="Trazado_100799" data-name="Trazado 100799" d="M143.937,1713.635c0,3.984-1.773,7.213-3.963,7.213s-3.963-3.229-3.963-7.213,1.773-7.215,3.963-7.215S143.937,1709.651,143.937,1713.635Z" transform="translate(-136.011 -1706.42)" fill="#162d47"/>
            </g>
          </g>
        </g>
        <g id="Grupo_54326" data-name="Grupo 54326" transform="translate(2.212)">
          <g id="Grupo_54325" data-name="Grupo 54325">
            <g id="Grupo_54324" data-name="Grupo 54324">
              <path id="Trazado_100800" data-name="Trazado 100800" d="M101.321,1759.4s12.706-8.275,23.41,6.5h8.323s-.474-17.1,3.567-26.375,19.978-9.037,22.354-19.979c0,0,39.005,18.778,61.447,6.808,50.718-27.062-55.876-61.768-94.9-39.93C96.527,1702.641,95.276,1730.282,101.321,1759.4Z" transform="translate(-98.401 -1679.53)" fill="#162d47"/>
            </g>
          </g>
        </g>
        <g id="Grupo_54329" data-name="Grupo 54329" transform="translate(68.503 61.952)">
          <g id="Grupo_54328" data-name="Grupo 54328">
            <g id="Grupo_54327" data-name="Grupo 54327">
              <path id="Trazado_100801" data-name="Trazado 100801" d="M120.5,1702.609s7.641-4.194,14.752-1.563c6.585,2.436,9.529,6.66,10.744,9.145a2.429,2.429,0,0,1-.831,3.069h0a2.441,2.441,0,0,1-3.5-.8C139.415,1708.523,133.463,1701.3,120.5,1702.609Z" transform="translate(-120.496 -1700.179)" fill="#162d47"/>
            </g>
          </g>
        </g>
        <g id="Grupo_54332" data-name="Grupo 54332" transform="translate(103.395 62.189)">
          <g id="Grupo_54331" data-name="Grupo 54331">
            <g id="Grupo_54330" data-name="Grupo 54330">
              <path id="Trazado_100802" data-name="Trazado 100802" d="M157.862,1702.688s-7.641-4.194-14.752-1.563c-6.582,2.437-9.526,6.661-10.741,9.145a2.43,2.43,0,0,0,.831,3.069h0a2.438,2.438,0,0,0,3.5-.8C138.943,1708.6,144.895,1701.377,157.862,1702.688Z" transform="translate(-132.126 -1700.258)" fill="#162d47"/>
            </g>
          </g>
        </g>
        <g id="Grupo_54342" data-name="Grupo 54342" transform="translate(0 77.078)">
          <g id="Grupo_54335" data-name="Grupo 54335">
            <g id="Grupo_54334" data-name="Grupo 54334">
              <g id="Grupo_54333" data-name="Grupo 54333">
                <path id="Trazado_100803" data-name="Trazado 100803" d="M126.206,1714.5s-12.745-15.442-23.41-6.5c-11.752,9.855-2.748,43.277,21.133,42.519Z" transform="translate(-97.663 -1705.221)" fill="#ffaf82"/>
              </g>
            </g>
          </g>
          <g id="Grupo_54338" data-name="Grupo 54338" transform="translate(10.751 12.437)">
            <g id="Grupo_54337" data-name="Grupo 54337">
              <g id="Grupo_54336" data-name="Grupo 54336">
                <path id="Trazado_100804" data-name="Trazado 100804" d="M117.349,1734.988a2.1,2.1,0,0,1-2.085-1.86c-1.944-16.906-11.971-19.51-12.4-19.612a2.1,2.1,0,0,1,.933-4.1c.543.12,13.339,3.2,15.643,23.23a2.1,2.1,0,0,1-1.848,2.328A2.131,2.131,0,0,1,117.349,1734.988Z" transform="translate(-101.247 -1709.366)" fill="#f88968"/>
              </g>
            </g>
          </g>
          <g id="Grupo_54341" data-name="Grupo 54341" transform="translate(11.338 20.3)">
            <g id="Grupo_54340" data-name="Grupo 54340">
              <g id="Grupo_54339" data-name="Grupo 54339">
                <path id="Trazado_100805" data-name="Trazado 100805" d="M103.544,1719.038a2.1,2.1,0,0,1-1.572-3.5A11.909,11.909,0,0,1,113.2,1712.3a2.1,2.1,0,1,1-.9,4.1,7.636,7.636,0,0,0-7.179,1.929A2.1,2.1,0,0,1,103.544,1719.038Z" transform="translate(-101.442 -1711.987)" fill="#f88968"/>
              </g>
            </g>
          </g>
        </g>
        <g id="Grupo_54345" data-name="Grupo 54345" transform="translate(79.648 137.563)">
          <g id="Grupo_54344" data-name="Grupo 54344">
            <g id="Grupo_54343" data-name="Grupo 54343">
              <path id="Trazado_100806" data-name="Trazado 100806" d="M138.336,1733.865a20.239,20.239,0,0,1-13.483-4.872,2.1,2.1,0,0,1,2.913-3.027c.3.278,6.711,6.156,17.407,2.493a2.1,2.1,0,0,1,1.362,3.979A25.223,25.223,0,0,1,138.336,1733.865Z" transform="translate(-124.211 -1725.381)" fill="#f88968"/>
            </g>
          </g>
        </g>
        <g id="Grupo_54362" data-name="Grupo 54362" transform="translate(28.902 70.878)">
          <g id="Grupo_54349" data-name="Grupo 54349" transform="translate(30.18)">
            <g id="Grupo_54348" data-name="Grupo 54348">
              <g id="Grupo_54347" data-name="Grupo 54347">
                <g id="Grupo_54346" data-name="Grupo 54346">
                  <path id="Trazado_100807" data-name="Trazado 100807" d="M134.37,1737.182a17.014,17.014,0,1,1,17.014-17.014A17.033,17.033,0,0,1,134.37,1737.182Zm0-31.226a14.212,14.212,0,1,0,14.212,14.211A14.228,14.228,0,0,0,134.37,1705.956Z" transform="translate(-117.356 -1703.154)" fill="#162d47"/>
                </g>
              </g>
            </g>
          </g>
          <g id="Grupo_54353" data-name="Grupo 54353" transform="translate(74.493)">
            <g id="Grupo_54352" data-name="Grupo 54352">
              <g id="Grupo_54351" data-name="Grupo 54351">
                <g id="Grupo_54350" data-name="Grupo 54350">
                  <path id="Trazado_100808" data-name="Trazado 100808" d="M149.14,1737.182a17.014,17.014,0,1,1,17.014-17.014A17.033,17.033,0,0,1,149.14,1737.182Zm0-31.226a14.212,14.212,0,1,0,14.212,14.211A14.228,14.228,0,0,0,149.14,1705.956Z" transform="translate(-132.126 -1703.154)" fill="#162d47"/>
                </g>
              </g>
            </g>
          </g>
          <g id="Grupo_54357" data-name="Grupo 54357" transform="translate(0 8.839)">
            <g id="Grupo_54356" data-name="Grupo 54356">
              <g id="Grupo_54355" data-name="Grupo 54355">
                <g id="Grupo_54354" data-name="Grupo 54354">
                  <rect id="Rectángulo_5288" data-name="Rectángulo 5288" width="2.802" height="32.18" transform="translate(0 2.794) rotate(-85.568)" fill="#162d47"/>
                </g>
              </g>
            </g>
          </g>
          <g id="Grupo_54361" data-name="Grupo 54361" transform="translate(61.808 11.005)">
            <g id="Grupo_54360" data-name="Grupo 54360">
              <g id="Grupo_54359" data-name="Grupo 54359">
                <g id="Grupo_54358" data-name="Grupo 54358">
                  <path id="Trazado_100809" data-name="Trazado 100809" d="M129.521,1711.562l-1.623-2.286c2.706-1.93,9.355-4.4,15.142.03l-1.707,2.223C135.764,1707.263,129.773,1711.385,129.521,1711.562Z" transform="translate(-127.898 -1706.822)" fill="#162d47"/>
                </g>
              </g>
            </g>
          </g>
        </g>
        <g id="Grupo_54365" data-name="Grupo 54365" transform="translate(98.025 84.257)">
          <g id="Grupo_54364" data-name="Grupo 54364">
            <g id="Grupo_54363" data-name="Grupo 54363">
              <path id="Trazado_100810" data-name="Trazado 100810" d="M134.581,1734.436a2.1,2.1,0,0,1-1.275-3.771l5.6-4.278-4.854-1.257a2.106,2.106,0,0,1-1.548-1.7l-2.142-13.375a2.1,2.1,0,1,1,4.152-.666l1.923,12.022,7.708,1.995a2.1,2.1,0,0,1,.747,3.708L135.856,1734A2.1,2.1,0,0,1,134.581,1734.436Z" transform="translate(-130.336 -1707.613)" fill="#f88968"/>
            </g>
          </g>
        </g>
      </g>
    </g>
    <path id="Trazado_100811" data-name="Trazado 100811" d="M-7401.035-736.678a51.64,51.64,0,0,1,7.035,0c2.223.307,3.618-3.6,1.319-3.679s-.92,2.606-3.985,1.456-5.135-1.839-5.748-.46-1.993,2.452-1.073,2.682A8.081,8.081,0,0,0-7401.035-736.678Z" transform="translate(7871 11701)" fill="#04b1d9"/>
    <path id="Trazado_100812" data-name="Trazado 100812" d="M-7359.632-736.283h10.435s1.239-2.948-1.061-2.417-2.831,1.356-3.892.413-3.183-1.238-3.6-.413-1.474.059-1.887,1.238S-7359.632-736.283-7359.632-736.283Z" transform="translate(7869 11700)" fill="#04b1d9"/>
  </g>
</svg>
