<svg xmlns="http://www.w3.org/2000/svg" xmlns:xlink="http://www.w3.org/1999/xlink" width="820" height="180.24" viewBox="0 0 820 180.24">
  <defs>
    <radialGradient id="radial-gradient" cx="0.508" cy="0.593" r="0.505" gradientTransform="translate(0.006) scale(0.988 1)" gradientUnits="objectBoundingBox">
      <stop offset="0" stop-color="#701823"/>
      <stop offset="0.335" stop-color="#811a27"/>
      <stop offset="1" stop-color="#a21f30"/>
    </radialGradient>
    <radialGradient id="radial-gradient-2" cx="0.496" cy="0.498" r="0.902" gradientTransform="translate(0.265) scale(0.471 1)" gradientUnits="objectBoundingBox">
      <stop offset="0" stop-color="#5b1823"/>
      <stop offset="0.271" stop-color="#691925"/>
      <stop offset="0.789" stop-color="#901d2c"/>
      <stop offset="1" stop-color="#a21f30"/>
    </radialGradient>
    <radialGradient id="radial-gradient-3" cx="0.5" cy="0.5" r="1.128" gradientTransform="translate(0.335) scale(0.33 1)" gradientUnits="objectBoundingBox">
      <stop offset="0" stop-color="#55111d"/>
      <stop offset="0.446" stop-color="#711623"/>
      <stop offset="1" stop-color="#921d2b"/>
    </radialGradient>
    <radialGradient id="radial-gradient-4" cx="0.508" cy="0.51" r="0.564" gradientTransform="translate(-0.241) scale(1.482 1)" xlink:href="#radial-gradient"/>
    <radialGradient id="radial-gradient-5" cx="0.5" cy="0.5" r="1.023" gradientTransform="translate(0.253) scale(0.494 1)" xlink:href="#radial-gradient"/>
  </defs>
  <g id="Grupo_54583" data-name="Grupo 54583" transform="translate(989.106 -1432.23)">
    <g id="Grupo_54568" data-name="Grupo 54568" transform="translate(-797.698 1432.231)">
      <path id="Trazado_100906" data-name="Trazado 100906" d="M-747.17,1436.375c-12.728-1.6-26.015,1.914-43.592,1.914s-30.864-3.518-43.59-1.914c-11.952,1.5-12.73,10.837-8.436,17.244,12.655,18.887,52.026,18.614,52.026,18.614s39.371.273,52.028-18.614C-734.442,1447.212-735.219,1437.88-747.17,1436.375Z" transform="translate(852.294 -1430.818)" fill="#871b2f"/>
      <path id="Trazado_100907" data-name="Trazado 100907" d="M-751.64,1451.256c-2.7-5.063-81.264-8.622-85.774-1.276-.781,1.269-1.269,4.266-.615,7.224,16.317,11.492,44.673,11.3,44.673,11.3s26.212.178,42.737-10.018A13.118,13.118,0,0,0-751.64,1451.256Z" transform="translate(854.888 -1427.085)" fill="#fff"/>
      <path id="Trazado_100908" data-name="Trazado 100908" d="M-750.812,1451.968c-14.163,13.778-78.531,10.789-87.318-1.637a13.092,13.092,0,0,0,.1,5.152c16.319,11.485,44.673,11.3,44.673,11.3s26.189.178,42.713-10A14.439,14.439,0,0,0-750.812,1451.968Z" transform="translate(854.887 -1425.365)" fill="#e7dcd7"/>
      <path id="Trazado_100909" data-name="Trazado 100909" d="M-837.005,1449.142c24.341,10.765,54.629,12.332,84.464,1.7C-758.8,1446.208-827.437,1443.1-837.005,1449.142Z" transform="translate(855.392 -1427.085)" fill="#e7dcd7"/>
      <path id="Trazado_100910" data-name="Trazado 100910" d="M-750.85,1451.123c-1.994-3.749-33.166-5.823-53.949-5.823-13.8,0-30.721.782-33.01,4.509a11.519,11.519,0,0,0-.846,6.983q.8.6,1.65,1.166c-.9-3.058-.342-6.291.36-7.433,1.145-1.866,10.113-3.859,31.846-3.859,26.474,0,51.548,2.852,52.743,5.1a12.734,12.734,0,0,1,.872,7.352c.512-.3,1.011-.614,1.5-.932A13.841,13.841,0,0,0-750.85,1451.123Z" transform="translate(854.7 -1427.273)" fill="#c5b3ad"/>
      <path id="Trazado_100911" data-name="Trazado 100911" d="M-834.117,1451.52c5.975,1.641,8.612-.229,8.612-.229s3.866,7.8,13.182,4.243c3.047,3.466,31.637,5.474,35.5-.273,3.164,3.739,13.768,1.277,14.179-2.647,1.757,2.463,8.436,2.372,10.955-3.1s.89-11.01-2.239-13.481c-11.492-.528-23.75,2.258-39.418,2.258-17.458,0-30.682-3.466-43.331-1.941C-839.422,1441.178-839.032,1450.17-834.117,1451.52Z" transform="translate(854.872 -1430.816)" fill="#fff"/>
      <path id="Trazado_100912" data-name="Trazado 100912" d="M-837.1,1449.014c.848-4.066,3.785-7.16,8.821-7.869,6-.843,11.643.5,17.6,1.135q10.324,1.1,20.706,1.24a128.594,128.594,0,0,0,23.288-1.352c3.546-.583,8.275-1.5,11.513.768a12.1,12.1,0,0,1,4.1,4.944c1.554-4.921-.044-9.622-2.857-11.85-11.494-.528-23.749,2.258-39.418,2.258-17.457,0-30.683-3.465-43.331-1.941C-838.685,1439.884-839.005,1445.647-837.1,1449.014Z" transform="translate(854.875 -1430.816)" fill="#e7dcd7"/>
      <path id="Trazado_100913" data-name="Trazado 100913" d="M-838.727,1445.577c.5,3.521,2.181,5.926,4.617,6.6,2.676.735,6,1.1,8.53.016a10.416,10.416,0,0,0,8.81,4.95,13.455,13.455,0,0,0,4.483-.828c2.6,2.04,11.857,3.247,19.79,3.247,4.823,0,13-.447,15.916-3.3,3.639,3.026,12.481,1.206,14.439-2.406a6.139,6.139,0,0,0,3.527.99,8.486,8.486,0,0,0,7.742-5.05c2.415-5.247,1.259-10.723-1.756-13.7q-1.192-.079-2.4-.109c3.393,1.832,5.556,7.5,2.914,13.243a7.134,7.134,0,0,1-6.5,4.254,4.05,4.05,0,0,1-3.277-1.262.686.686,0,0,0-.73-.265.686.686,0,0,0-.506.589c-.2,1.961-4.287,3.887-8.243,3.887-2.175,0-3.858-.573-4.735-1.61a.68.68,0,0,0-1.088.061c-1.4,2.079-7.119,3.32-15.3,3.32-9.377,0-17.83-1.646-19.123-3.117a.686.686,0,0,0-.757-.187,12.379,12.379,0,0,1-4.393.885,9.147,9.147,0,0,1-7.934-4.794.689.689,0,0,0-1-.257,7,7,0,0,1-3.668.782,16.661,16.661,0,0,1-4.375-.649c-1.887-.519-3.208-2.513-3.628-5.47a14.043,14.043,0,0,1,1.741-9.131c-.37.039-.741.066-1.108.113-.212.026-.393.073-.6.1A16.28,16.28,0,0,0-838.727,1445.577Z" transform="translate(854.683 -1430.81)" fill="#c5b3ad"/>
      <path id="Trazado_100914" data-name="Trazado 100914" d="M-783.384,1446.212c-.367-.025-.65,2.7-.474,3.277.048.164,1.229.161,1.3,0C-782.275,1448.781-782.693,1446.258-783.384,1446.212Z" transform="translate(875.531 -1426.928)" fill="#c5b3ad"/>
      <path id="Trazado_100915" data-name="Trazado 100915" d="M-828.607,1445.438c-.345.094-.847,1.6-1.014,2.3-.172.723,1.982,1.164,1.782.291C-828.013,1447.275-828.343,1445.367-828.607,1445.438Z" transform="translate(858.189 -1427.222)" fill="#c5b3ad"/>
      <path id="Trazado_100916" data-name="Trazado 100916" d="M-790.414,1473.917c-1.759,0-40.4-.228-53.112-19.2-2.706-4.039-3.349-8.828-1.677-12.5,1.192-2.615,4.075-5.916,11.044-6.794,12.942-1.632,26.272,1.9,43.756,1.9,17.512,0,30.836-3.534,43.756-1.9,6.971.879,9.854,4.179,11.046,6.794,1.672,3.668,1.029,8.457-1.677,12.5C-746.966,1469.176-773.23,1473.823-790.414,1473.917Zm-43.415-35.869c-4.56.575-7.664,2.4-8.973,5.27-1.294,2.841-.732,6.647,1.469,9.93,9.175,13.694,34.666,17.943,51.022,18.029,1.583,0,38.9-.206,50.839-18.029,2.2-3.283,2.763-7.088,1.469-9.93-1.31-2.873-4.412-4.7-8.974-5.27-12.419-1.566-26,1.926-43.426,1.926C-807.9,1439.973-821.356,1436.475-833.829,1438.047Z" transform="translate(851.934 -1431.181)" fill="#d28e7f"/>
      <path id="Trazado_100917" data-name="Trazado 100917" d="M-849.231,1442.991a6.568,6.568,0,0,1,.808-8.255,7.691,7.691,0,0,1,8.068-2.124C-847.576,1436.615-847.845,1437.518-849.231,1442.991Z" transform="translate(850.336 -1432.231)" fill="#d8cfc9" style="mix-blend-mode: multiply;isolation: isolate"/>
      <path id="Trazado_100918" data-name="Trazado 100918" d="M-768.649,1433.623a6.322,6.322,0,0,1,7.44,2.36c2.451,3.085,1.717,5.436.375,7.754a11.493,11.493,0,0,0-2.548-6.057A12.929,12.929,0,0,0-768.649,1433.623Z" transform="translate(881.32 -1431.863)" fill="#d8cfc9" style="mix-blend-mode: multiply;isolation: isolate"/>
      <path id="Trazado_100919" data-name="Trazado 100919" d="M-816.733,1467.435c1.745.163,1.772,1.134,15.055.945,11.275-.331,13.995-1.175,15.117-1.29-.669.241-3.548,3.5-15.051,4.047C-812.191,1471.313-816.58,1467.49-816.733,1467.435Z" transform="translate(863.081 -1419.008)" fill="#d8cfc9" style="mix-blend-mode: multiply;isolation: isolate"/>
    </g>
    <g id="Grupo_54569" data-name="Grupo 54569" transform="translate(-622.452 1440.671)">
      <path id="Trazado_100920" data-name="Trazado 100920" d="M-690.223,1460.659c5.29,1.112,5.8,1.382,14.988,1.724,11.472.259,13.955-.443,15.163-.5-.6.179-3.8,3.306-15.24,3.259C-684.049,1464.833-687.073,1462.79-690.223,1460.659Z" transform="translate(735.822 -1429.888)" fill="#d8cfc9" style="mix-blend-mode: multiply;isolation: isolate"/>
      <path id="Trazado_100921" data-name="Trazado 100921" d="M-698.137,1451.719a55.135,55.135,0,0,0,11.858,2.811c1.008.1,2.019.217,3.03.244a39.579,39.579,0,0,0,6.059-.166c1.075-.088,2.218-.312,3.048-.434a1.357,1.357,0,0,1,1.17.389,14.172,14.172,0,0,0,10.1,4.333,14.731,14.731,0,0,0,5.528-1.023,13.1,13.1,0,0,0,4.625-3.13,1.146,1.146,0,0,1,1.025-.385c6.27.926,23.3-1.172,34.19-6.015a27.223,27.223,0,0,0,7.091-4.324,13.469,13.469,0,0,0,1.739-1.876l.07-.09a2.068,2.068,0,0,1,2.9-.346,2.067,2.067,0,0,1,.308,2.953,17.49,17.49,0,0,1-2.4,2.406,30.883,30.883,0,0,1-8.3,4.658c-11.851,4.706-29.676,6.106-35.979,4.854l1.065-.378a15.432,15.432,0,0,1-11.877,5.44,16.517,16.517,0,0,1-6.566-1.37,16.006,16.006,0,0,1-5.439-3.891l1.219.381c-1.065.2-2.127.434-3.2.557a42.6,42.6,0,0,1-6.479.371c-1.083,0-2.161-.086-3.237-.164a67.97,67.97,0,0,1-24.5-7.5,80.729,80.729,0,0,1-11-6.7,2.069,2.069,0,0,1-.445-2.893,2.07,2.07,0,0,1,2.892-.447A79.121,79.121,0,0,0-698.137,1451.719Z" transform="translate(723.417 -1437.883)" fill="#bb4f49"/>
      <path id="Trazado_100922" data-name="Trazado 100922" d="M-722.755,1446.972a7.915,7.915,0,0,1-.5-1.714,6.134,6.134,0,0,1-.022-.887,5.533,5.533,0,0,1,.073-1.01c.075-.339.164-.69.273-1.042a4.857,4.857,0,0,1,.466-1.023,3.888,3.888,0,0,1,.643-.934,5.013,5.013,0,0,1,1.612-1.352,5.551,5.551,0,0,1,.823-.357,4.156,4.156,0,0,1,1.3-.283,4.315,4.315,0,0,1,.506-.019c-.379.56-.721.857-1.091,1.352C-720.668,1442.314-720.2,1441.568-722.755,1446.972Z" transform="translate(723.282 -1438.35)" fill="#bb4f49"/>
      <path id="Trazado_100923" data-name="Trazado 100923" d="M-640.9,1439.6s.178-.015.474-.008a6.267,6.267,0,0,1,4.109,2.462,6.01,6.01,0,0,1,1.353,3.441,3.179,3.179,0,0,1-.2,1.26,3.159,3.159,0,0,1-.222.43,10.61,10.61,0,0,0-.8-1.334c-.888-1.226-2.934-3.74-3.781-4.96-.277-.361-.477-.67-.658-.909S-640.9,1439.6-640.9,1439.6Z" transform="translate(754.531 -1437.878)" fill="#bb4f49"/>
    </g>
    <g id="Grupo_54570" data-name="Grupo 54570" transform="translate(-800.91 1526.739)">
      <path id="Trazado_100924" data-name="Trazado 100924" d="M-793.475,1561.771c21.608,1.149,46.207-6.668,56.782-16.552s4.31-18.448-5.69-16.552c-12.364,2.345-24.589.8-41.724-3.966-16.724-4.655-31.9-20.173-43.161-20.173s-20.1,8.5-19.77,20C-846.348,1548.668-815.083,1560.621-793.475,1561.771Z" transform="translate(854.795 -1499.315)" fill="#921d2b"/>
      <path id="Trazado_100925" data-name="Trazado 100925" d="M-824.736,1530.03c-.517-1.207-4.483-5.172-8.966-5.862-3.593-.553-6.625,3.774-8.047,10.833,10.668,12.237,30.9,18.521,46.265,19.339,21.608,1.149,46.207-6.668,56.782-16.552a24.992,24.992,0,0,0,2.426-2.6c-.025-3.439-2.2-5.415-4.036-7.745C-742.841,1524.225-822.5,1528.306-824.736,1530.03Z" transform="translate(856.804 -1491.884)" fill="#fff"/>
      <path id="Trazado_100926" data-name="Trazado 100926" d="M-825.917,1530.03c-.517-1.207-4.483-5.172-8.966-5.862a4.43,4.43,0,0,0-3.755,1.337c15.651,12.112,42.673,14.472,61.744,13.894,15.172-.461,32.873-4.713,38.4-8a33.53,33.53,0,0,0-3-3.954C-744.022,1524.224-823.676,1528.306-825.917,1530.03Z" transform="translate(857.985 -1491.884)" fill="#e7dcd7"/>
      <path id="Trazado_100927" data-name="Trazado 100927" d="M-789.44,1548.524c-18.228.044-39.174-5.444-50.719-20.384a27.883,27.883,0,0,0-1.59,5.335c10.668,12.236,30.9,18.521,46.265,19.339,20.132,1.07,42.858-5.643,54.421-14.56-4.982,1.92-10.193,3.37-15.325,4.823C-767.11,1546.116-778.241,1548.5-789.44,1548.524Z" transform="translate(856.804 -1490.359)" fill="#efeae9"/>
      <path id="Trazado_100928" data-name="Trazado 100928" d="M-739.615,1527.207c-.374-.475-1.152-1.465-16.218-1.465-20.83,0-62.166,2.095-68.437,3.659-1.183-1.68-4.928-5.073-9.172-5.726-3.912-.6-7.157,3.7-8.713,10.859.364.439.746.867,1.134,1.291,1.279-6.928,4.07-11.3,7.37-10.788,4.142.637,7.977,4.379,8.436,5.452a.657.657,0,0,0,1.015.3c2.141-1.092,43.39-3.67,68.368-3.67,12.95,0,14.879.741,15.132.938,2.09,2.654,4.232,4.485,3.862,8.168a20.781,20.781,0,0,0,1.375-1.719C-735.8,1531.344-737.9,1529.4-739.615,1527.207Z" transform="translate(856.65 -1492.073)" fill="#c5b3ad"/>
      <path id="Trazado_100929" data-name="Trazado 100929" d="M-838.715,1525.45c5.057,6.436,12.185,5.977,12.644,5.057,2.069,7.816,13.792,8.506,18.39,5.978,1.149,2.069,40.23,12.184,52.644,1.839,4.875,2.906,16.783-1.375,20.759-6.171-1.632-2.894-5.563-4.393-10.357-3.484-12.364,2.345-24.589.8-41.724-3.966-16.724-4.655-31.9-20.173-43.161-20.173a20.566,20.566,0,0,0-10.018,2.543C-841.62,1513.246-841.9,1521.395-838.715,1525.45Z" transform="translate(857.048 -1499.315)" fill="#fff"/>
      <path id="Trazado_100930" data-name="Trazado 100930" d="M-839.937,1523.329a16.316,16.316,0,0,1,8.812-8.829c6.91-2.946,15.869,1.982,21.488,5.688,20.3,13.4,41.377,17.658,65.27,13.382a2.819,2.819,0,0,1,3.261,3.192,14.332,14.332,0,0,0,6.908-4.461c-1.579-2.99-5.562-4.558-10.439-3.633-12.364,2.345-24.589.8-41.724-3.966-16.724-4.655-31.9-20.173-43.161-20.173a20.579,20.579,0,0,0-10,2.534C-841.292,1512.3-841.776,1518.947-839.937,1523.329Z" transform="translate(857.049 -1499.315)" fill="#e7dcd7"/>
      <path id="Trazado_100931" data-name="Trazado 100931" d="M-839.068,1525.3a14.605,14.605,0,0,0,11.062,5.851,6.356,6.356,0,0,0,1.723-.207c1.891,5.121,7.85,6.965,12.568,6.965a14.845,14.845,0,0,0,6.141-1.185c3.326,2.206,20.52,6.294,34.217,6.294,8.521,0,14.771-1.5,18.586-4.448a9.39,9.39,0,0,0,4.132.812c5.557,0,13.433-3.205,16.875-7.142a6.116,6.116,0,0,0-.724-1.288c-.141.181-.275.361-.444.546-3.2,3.465-10.538,6.5-15.706,6.5a7.529,7.529,0,0,1-3.854-.85.7.7,0,0,0-.8.063c-11.945,9.954-49.766.259-51.6-1.644a.688.688,0,0,0-.935-.269,12.809,12.809,0,0,1-5.892,1.226c-4.477,0-10.175-1.775-11.5-6.777a.7.7,0,0,0-.557-.56.6.6,0,0,0-.65.325,3.5,3.5,0,0,1-1.585.253,13.2,13.2,0,0,1-9.977-5.324c-2.321-2.955-2.9-8.85-1.479-15.019a27.961,27.961,0,0,1,1.01-3.395,19.5,19.5,0,0,0-1.788.989C-841.931,1512.53-842.58,1520.831-839.068,1525.3Z" transform="translate(856.857 -1498.743)" fill="#c5b3ad"/>
      <path id="Trazado_100932" data-name="Trazado 100932" d="M-851.573,1514.01c-.036-.138-1.941-2.048-.633-6.145a9.722,9.722,0,0,1,10.517-7.073,22.945,22.945,0,0,0-4.541,3.262A14.539,14.539,0,0,0-851.573,1514.01Z" transform="translate(852.664 -1500.749)" fill="#d8cfc9" style="mix-blend-mode: multiply;isolation: isolate"/>
      <path id="Trazado_100933" data-name="Trazado 100933" d="M-788.8,1563.642c-1.473,0-2.945-.037-4.371-.114-20.819-1.108-54.126-12.562-54.869-38.578-.345-12.117,8.938-21.419,21.149-21.419,11.87,0,26.9,15.593,43.531,20.222,12.41,3.455,21.586,5,29.752,5a60.091,60.091,0,0,0,11.345-1.056c6.33-1.2,10.834,1.455,12.269,5.092,1.611,4.083-.35,9.122-5.381,13.822C-745.761,1556.319-768.73,1563.642-788.8,1563.642Zm-38.091-57.353c-10.626,0-18.7,7.992-18.39,18.581.652,22.882,30.95,34.771,52.255,35.9,1.378.074,2.8.11,4.226.11,19.447,0,41.606-7,51.542-16.292,8.527-7.971,5.188-14.43-2.022-14.43a13.431,13.431,0,0,0-2.469.241c-12.044,2.284-23.585,1.232-42.352-3.992C-800.875,1521.74-816.264,1506.289-826.888,1506.289Z" transform="translate(854.415 -1499.694)" fill="#d28e7f"/>
      <path id="Trazado_100934" data-name="Trazado 100934" d="M-760.29,1518.405c1.85-.01,3.841.381,5.528,3.408a6.633,6.633,0,0,1,.448,6.477l-2.851-5.123C-759.562,1518.833-760.135,1518.627-760.29,1518.405Z" transform="translate(887.703 -1494.052)" fill="#d8cfc9" style="mix-blend-mode: multiply;isolation: isolate"/>
      <path id="Trazado_100935" data-name="Trazado 100935" d="M-815.04,1552.145c8.749,1,12.714,1.307,26.724-.115-3.062,1.559-4.49,2.785-10.732,3.563A24.62,24.62,0,0,1-815.04,1552.145Z" transform="translate(866.935 -1481.298)" fill="#d8cfc9" style="mix-blend-mode: multiply;isolation: isolate"/>
    </g>
    <g id="Grupo_54572" data-name="Grupo 54572" transform="translate(-620.08 1515.46)">
      <path id="Trazado_100936" data-name="Trazado 100936" d="M-666.7,1493.572c-23.108,0-47.7,24.35-47.7,54.024s24.589,40.229,47.7,40.229,47.7-10.559,47.7-40.229S-643.593,1493.572-666.7,1493.572Z" transform="translate(724.281 -1492.193)" fill="url(#radial-gradient)"/>
      <path id="Trazado_100937" data-name="Trazado 100937" d="M-665.854,1519.327c-3.672,1.132,1.153,5.083.8,9.069a5.583,5.583,0,0,1-5.963,5.235c-4.519-.026-5.967-3.19-6.119-5.066-.324-4.023,5.448-8.187.588-9.048-3.1-1.135-14.509.644-20.172,9.848a21.5,21.5,0,0,0,1.724,25.534c8.276,9.648,45.229,14.853,51.552-7.757C-637.234,1524.94-660.682,1519.706-665.854,1519.327Z" transform="translate(729.7 -1482.467)" fill="#54101b"/>
      <g id="Grupo_54571" data-name="Grupo 54571" transform="translate(26.519 61.966)">
        <path id="Trazado_100938" data-name="Trazado 100938" d="M-671.234,1540.629c-7.125-6.207-29.283-.6-30.517,8.218-1.207,8.621,10.517,13.965,30.172,15.517,19.261,1.52,35.69-5.345,31.035-14.483S-661.808,1534.881-671.234,1540.629Z" transform="translate(702.526 -1537.306)" fill="#ed4136"/>
        <path id="Trazado_100939" data-name="Trazado 100939" d="M-653.789,1545.612a19.076,19.076,0,0,0-14.9-4.613c-2.5.388-5.27,3.026-7.706.9-1.4-1.218-3.8-1.357-5.523-1.357-4.206,0-20.556,4.368-12,10.258,6.5,4.473,16.445,5.155,24.017,5.155C-665.282,1555.958-644.558,1553.881-653.789,1545.612Z" transform="translate(704.604 -1536.341)" fill="#ff4d45"/>
        <path id="Trazado_100940" data-name="Trazado 100940" d="M-678.129,1539.424a13.656,13.656,0,0,0-1.3.665,7.653,7.653,0,0,0-.8-.6c.106,2.069.508,11.119,1.1,13.592.1.51.16.8.16.8s-.017-.3-.043-.818C-679.237,1550.547-678.331,1541.548-678.129,1539.424Z" transform="translate(710.722 -1536.766)" fill="#da291b"/>
        <path id="Trazado_100941" data-name="Trazado 100941" d="M-670.98,1539.982c-7.857-6.04-29.968-.3-31.265,8.959a8.628,8.628,0,0,0,1.931,6.826c4.035,5.025,14.018,8.3,28.869,9.474,1.8.142,3.611.214,5.39.214,12.43,0,22.937-3.512,26.139-8.739a6.814,6.814,0,0,0,.174-6.958C-644.484,1540.446-661.116,1534.436-670.98,1539.982ZM-641.091,1556c-2.961,4.833-12.995,8.08-24.963,8.08-1.744,0-3.52-.071-5.28-.21-14.258-1.125-24.167-4.309-27.9-8.963a7.3,7.3,0,0,1-1.641-5.771c1.159-8.277,22.679-13.633,29.381-7.794a.684.684,0,0,0,.813.069c8.964-5.466,25.163.04,29.717,8.978A5.43,5.43,0,0,1-641.091,1556Z" transform="translate(702.337 -1537.497)" fill="#c0091b"/>
      </g>
      <path id="Trazado_100942" data-name="Trazado 100942" d="M-689.919,1510.082a10.5,10.5,0,0,0,4.048,3.288c4.265,1.928,9.571,1.926,14.884,1.926,6.648,0,11.9-.316,17.272-1.926a2.4,2.4,0,0,0,1.921-2.308,1.292,1.292,0,0,1,1.669-1.138c1.232.283,2.091,1.7,3.9.926a36.477,36.477,0,0,0,5.708-3.044c-8.819-8.825-20.035-14.235-30.924-14.235-10.692,0-21.7,5.219-30.441,13.763a44.214,44.214,0,0,0,7.39,4.017C-692.817,1512.085-690.236,1509.678-689.919,1510.082Z" transform="translate(729.026 -1492.193)" fill="#fff"/>
      <path id="Trazado_100943" data-name="Trazado 100943" d="M-664.96,1500.555c6.342,1.188,15.04,4.273,19.876,9.778a35.011,35.011,0,0,0,4.563-2.527c-8.818-8.823-20.035-14.235-30.924-14.235-10.692,0-21.7,5.221-30.441,13.763a44.141,44.141,0,0,0,7.375,4.008C-688.488,1502.176-675.412,1498.6-664.96,1500.555Z" transform="translate(729.026 -1492.193)" fill="#e7dcd7"/>
      <path id="Trazado_100944" data-name="Trazado 100944" d="M-637.154,1541.559c-1.56-.85-4.415,1.079-5.172,2.414-1.465,2.586-.237,6.309.316,7.407-3.764-.338-4.561,5.011-5.258,4.26-.777-.84-2.664-.85-3.724-.829-4.623.092-10.36,1.672-17.368,1.749a65.485,65.485,0,0,1-14.633-1.149,12.855,12.855,0,0,1-2.377-.25,10.78,10.78,0,0,0-4.981.3,1.635,1.635,0,0,1-1.628-.523c-1.4-2.015-1.128-4.851-3.841-6.051a1.255,1.255,0,0,1-.44-2.1c1.022-.81,1.865-9.079-4-6.262-4.652,2.235-9.143,5.944-9.608,11.713,8.773,12.939,25.461,18,41.447,18,15.886,0,32.472-4.99,41.287-17.75C-628.553,1547.025-632.233,1544.237-637.154,1541.559Z" transform="translate(725.999 -1474.604)" fill="#fff"/>
      <path id="Trazado_100945" data-name="Trazado 100945" d="M-637.154,1541.559c-1.56-.85-4.415,1.079-5.172,2.414a7.242,7.242,0,0,0-.48,4.907c2.532,2.709,3.469,6.006-.232,9.24-5.662,5.7-23.338,7.395-27.417,7.346-5.854-.07-21.748-1.669-26.439-8.287-3.194-3.6-3.684-8.076,1.175-11.652.545-2.448.138-7.25-4.539-5-4.652,2.235-9.143,5.944-9.608,11.713,8.773,12.939,25.461,18,41.447,18,15.886,0,32.472-4.99,41.287-17.75C-628.553,1547.025-632.233,1544.237-637.154,1541.559Z" transform="translate(725.999 -1474.604)" fill="#e7dcd7"/>
      <path id="Trazado_100946" data-name="Trazado 100946" d="M-656.562,1541.171a2.614,2.614,0,0,0-2.138.045c4.115,1.989,7.233,6.885,7.885,11.966a14.037,14.037,0,0,1-.073,4.018,33.851,33.851,0,0,0,4.348-5.1C-647.961,1546.637-651.641,1543.85-656.562,1541.171Z" transform="translate(745.407 -1474.217)" fill="#d2c4b7"/>
      <path id="Trazado_100947" data-name="Trazado 100947" d="M-706,1550.838c1.034-3.563,3.977-7.785,6.388-10.666-.207.077-.414.155-.641.265-4.652,2.235-9.143,5.944-9.608,11.713a33.667,33.667,0,0,0,3.6,4.439A15.182,15.182,0,0,1-706,1550.838Z" transform="translate(725.999 -1474.517)" fill="#d2c4b7"/>
      <path id="Trazado_100948" data-name="Trazado 100948" d="M-636.613,1541.1a2.6,2.6,0,0,0-1.258-.3,6.785,6.785,0,0,0-4.941,3.01c-1.3,2.3-.723,5.334-.13,7.074-2.179.408-3.308,2.5-3.945,3.686-.058.107-.12.225-.181.334a6.7,6.7,0,0,0-3.3-.647,52.159,52.159,0,0,0-7.315.742,70.994,70.994,0,0,1-11.914,1.018,60.423,60.423,0,0,1-13.051-1.138.818.818,0,0,0-.224-.015,13.276,13.276,0,0,1-2.223-.245,11.52,11.52,0,0,0-5.439.343.936.936,0,0,1-.641-.248c-1.3-1.863-1.1-4.96-4.159-6.313a.717.717,0,0,1-.4-.516.285.285,0,0,1,.127-.288c.978-.776,1.341-3.979.669-5.909-.782-2.241-2.8-2.92-5.47-1.637-4.152,1.994-9.007,5.547-9.921,11.406.432.687.884,1.344,1.357,1.989,0-6.269,5.017-10,9.223-12.022a4.36,4.36,0,0,1,1.811-.508,1.486,1.486,0,0,1,1.447.989,6.325,6.325,0,0,1-.063,4.5,2.008,2.008,0,0,0,.605,3.39c2.338,1.033,2.041,3.661,3.524,5.791a2.345,2.345,0,0,0,2.49.811,9.611,9.611,0,0,1,4.647-.268,15.153,15.153,0,0,0,2.41.262,67.611,67.611,0,0,0,14.7,1.142c7.15-.077,12.876-1.7,17.806-1.752,1.892,0,2.516.368,2.72.589a.949.949,0,0,0,.7.317c.657,0,.973-.585,1.408-1.394.883-1.639,1.819-3.106,3.641-2.942a.761.761,0,0,0,.749-1.1c-.41-.815-1.668-4.336-.334-6.69a5.362,5.362,0,0,1,3.617-2.237,1.113,1.113,0,0,1,.53.116c5.319,2.9,8.632,5.644,9.815,11.033q.583-.795,1.124-1.63C-627.946,1546.753-631.481,1543.89-636.613,1541.1Z" transform="translate(725.823 -1474.81)" fill="#c5b3ad"/>
      <path id="Trazado_100949" data-name="Trazado 100949" d="M-693.641,1508.527a8.248,8.248,0,0,0,3.571-1.364,10.951,10.951,0,0,0,4.055,3.182c4.395,1.986,9.859,1.986,15.146,1.986.023-.725.022-1.1.022,0,6.757,0,12.037-.327,17.469-1.954a3.07,3.07,0,0,0,2.411-2.909.611.611,0,0,1,.828-.526c1.019.236,2.174,1.81,4.323.887a37.017,37.017,0,0,0,5.925-3.168c-.327-.335-.654-.667-.988-.993a36.4,36.4,0,0,1-5.483,2.894,2.113,2.113,0,0,1-2.127-.353,4.649,4.649,0,0,0-1.342-.61,2,2,0,0,0-2.51,1.75,1.719,1.719,0,0,1-1.433,1.706c-5.623,1.686-11.157,1.9-17.1,1.9-5.141,0-10.455,0-14.578-1.865a9.718,9.718,0,0,1-3.789-3.085.987.987,0,0,0-.658-.309,3.13,3.13,0,0,0-1.346.539c-.858.473-2.153,1.135-2.84.833a44.136,44.136,0,0,1-7.168-3.859c-.338.321-.676.64-1.007.971a44.449,44.449,0,0,0,7.622,4.152A2.467,2.467,0,0,0-693.641,1508.527Z" transform="translate(728.886 -1488.538)" fill="#c5b3ad"/>
      <path id="Trazado_100950" data-name="Trazado 100950" d="M-666.321,1589.583c-23.726,0-49.076-10.931-49.076-41.608a57.632,57.632,0,0,1,15.548-39.074c9.571-10.378,21.792-16.328,33.528-16.328s23.957,5.95,33.528,16.328a57.632,57.632,0,0,1,15.548,39.074C-617.245,1578.652-642.6,1589.583-666.321,1589.583Zm0-94.253c-21.419,0-46.317,23-46.317,52.644,0,28.644,23.925,38.85,46.317,38.85S-620,1576.619-620,1547.975C-620,1518.326-644.9,1495.331-666.321,1495.331Z" transform="translate(723.901 -1492.572)" fill="#d28e7f"/>
      <path id="Trazado_100951" data-name="Trazado 100951" d="M-717.89,1518.239c-.41,6.51.443-3.135-1.724,23.1-.076-.243-2.556-3.014-1.808-11.758C-720.62,1521.665-717.945,1518.377-717.89,1518.239Z" transform="translate(721.563 -1482.836)" fill="#d8cfc9" style="mix-blend-mode: multiply;isolation: isolate"/>
      <path id="Trazado_100952" data-name="Trazado 100952" d="M-639.918,1518.239c.066.138,2.731,3.427,3.532,11.346.732,8.544-1.75,11.571-1.808,11.758a34.188,34.188,0,0,0-.166-3.654C-639.883,1522.17-639.7,1522.322-639.918,1518.239Z" transform="translate(752.531 -1482.836)" fill="#d8cfc9" style="mix-blend-mode: multiply;isolation: isolate"/>
    </g>
    <g id="Grupo_54573" data-name="Grupo 54573" transform="translate(-450.454 1439.091)">
      <path id="Trazado_100953" data-name="Trazado 100953" d="M-576.02,1451.089c.174-.072,3.823-4.094,14.91-4.48,11.3-.062,14.772,3.12,15.239,3.26-1.323-.069-3.541-.761-15.163-.5C-574.585,1449.87-574.419,1450.867-576.02,1451.089Z" transform="translate(607.143 -1433.637)" fill="#d8cfc9" style="mix-blend-mode: multiply;isolation: isolate"/>
      <path id="Trazado_100954" data-name="Trazado 100954" d="M-598.268,1473.325a25.537,25.537,0,0,1,1.19-3.862,25.7,25.7,0,0,1,1.087-2.643,55.015,55.015,0,0,1,4.5-8.12,58.209,58.209,0,0,1,4.165-5.435,41.487,41.487,0,0,1,3.428-3.674c1.217-1.23,2.626-2.342,3.993-3.561a54.451,54.451,0,0,1,4.61-3.251,49.713,49.713,0,0,1,5.174-2.812c.913-.408,1.818-.861,2.764-1.218a14.967,14.967,0,0,1,3.019-.615c.512-.069,1.039-.088,1.559-.107a6.891,6.891,0,0,1,1.578.041l3.149.379c.517.079,1.018.076,1.526.157a18.471,18.471,0,0,0,4.452.365l1.473-.042a12.008,12.008,0,0,0,1.425-.189c2.826-.441,6.316-1.946,9.426-1.427a13.1,13.1,0,0,1,2.941.825c.956.335,1.887.7,2.793,1.1a55.837,55.837,0,0,1,5.235,2.563,64.333,64.333,0,0,1,8.913,6.162,81.5,81.5,0,0,1,6.93,6.575c1.964,2.2,3.692,4.247,5.1,6.163s2.574,3.614,3.447,5.077c.9,1.441,1.538,2.618,1.95,3.435s.672,1.336.672,1.336a.562.562,0,0,1-.25.753.562.562,0,0,1-.713-.182s-1.065-1.538-3.16-4.088a83.676,83.676,0,0,0-9.444-9.87,82.8,82.8,0,0,0-7.1-5.724c-5.441-3.8-12.344-7.488-18.746-8.861a26.613,26.613,0,0,0-5.45-.261c-.9.065-1.715.141-2.617.149-.474.046-.948.044-1.422.048-.854,0-.56-.008-1.3.032-3.53.171-7.219-.127-10.8.643a19.149,19.149,0,0,0-5.148,1.643,44.1,44.1,0,0,0-4.759,2.337c-1.523.851-2.941,1.837-4.359,2.748-1.326,1.042-2.7,1.972-3.908,3.04a45.05,45.05,0,0,0-3.445,3.193c-1.068,1.081-2.092,2.134-2.992,3.221-1.637,1.89-1.074,1.2-2.57,3.124-.805,1-1.517,1.994-2.152,2.949-.658.941-1.2,1.864-1.713,2.712-.528.838-.953,1.641-1.338,2.365-.4.717-.721,1.368-.978,1.937a23.2,23.2,0,0,0-1.149,2.731.676.676,0,0,1-.876.383.675.675,0,0,1-.418-.764C-598.558,1474.749-598.641,1475.154-598.268,1473.325Z" transform="translate(598.584 -1437.204)" fill="#bb4f49"/>
    </g>
    <g id="Grupo_54575" data-name="Grupo 54575" transform="translate(-460.724 1523.111)">
      <path id="Trazado_100955" data-name="Trazado 100955" d="M-473.5,1511.942c-6.494-14.625-28.091-.185-68.793,1.323-31.035,1.149-48.359-9.372-54.483,2.643-8.964,17.586,17.509,52.81,68.046,48.621C-487.121,1561.08-466.891,1526.828-473.5,1511.942Z" transform="translate(608.886 -1495.338)" fill="url(#radial-gradient-2)"/>
      <path id="Trazado_100956" data-name="Trazado 100956" d="M-541.151,1511.423c-3.171.978-5.032.9-9.23.163-2.681-.981-13.847,4.084-17.717,10.783a16.649,16.649,0,0,0,1.786,19.77c7.148,8.333,39.058,12.826,44.516-6.7C-516.435,1516.27-536.684,1511.749-541.151,1511.423Z" transform="translate(619.492 -1493.072)" fill="#54101b"/>
      <path id="Trazado_100957" data-name="Trazado 100957" d="M-583.415,1522.111c6.048,3.6,13.276,2.241,13.276,2.241s1.622,2.292,9.138,3.448c13.448,2.069,48.152-3,51.9-5.345,5.517-3.448,4.023-6.091,4.023-6.091s1.553,1.4,2.125,1.781c2.357,1.552,11.8-1.46,11.35-6.9,2.941.8,4.662-2.028,5.938-5.734-11.112-.779-30.288,6.684-58.955,7.746-23.268.862-38.829-4.837-47.742-2.679C-590.767,1515.056-587.672,1519.582-583.415,1522.111Z" transform="translate(611.213 -1495.334)" fill="#fff"/>
      <path id="Trazado_100958" data-name="Trazado 100958" d="M-583.415,1522.111a15.452,15.452,0,0,0,1.553.8c1.349-4.135,5.331-6.876,10.379-6.5,6.261.47,17.206,2.566,33.988,1.417,16.818-1.15,31.931-6.11,35.563-5.686a13.725,13.725,0,0,1,8.073,3.665,5.393,5.393,0,0,0,2.254-4.56c2.941.8,4.662-2.028,5.938-5.734-11.112-.779-30.288,6.684-58.955,7.746-23.268.862-38.829-4.837-47.742-2.679C-590.767,1515.056-587.672,1519.582-583.415,1522.111Z" transform="translate(611.213 -1495.334)" fill="#e7dcd7"/>
      <g id="Grupo_54574" data-name="Grupo 54574" transform="translate(39.316 40.01)">
        <path id="Trazado_100959" data-name="Trazado 100959" d="M-508.14,1533.589c-4.828-4.252-28.392-9.655-34.368-2.414-7.586-6.552-35.626,4.069-34.483,12.528,1.724,12.759,34.828,12.414,52.414,9.655S-499.78,1540.953-508.14,1533.589Z" transform="translate(577.716 -1526.936)" fill="#ed4136"/>
        <path id="Trazado_100960" data-name="Trazado 100960" d="M-512.014,1535.556c-1.966-1.731-11.632-4.93-20.236-4.93-4.806,0-7.389,1.056-8.206,2.045a4.138,4.138,0,0,1-5.9.5c-.28-.241-1.441-1.03-4.633-1.03-10.247,0-22.734,7.051-23.046,9.873.513,3.8,9.219,7.629,27.512,7.629a136.576,136.576,0,0,0,20.161-1.508c9.986-1.567,15.45-5.424,16.3-8.344C-509.672,1538.463-510.328,1537.04-512.014,1535.556Z" transform="translate(578.852 -1525.798)" fill="#ff4d45"/>
        <path id="Trazado_100961" data-name="Trazado 100961" d="M-551.037,1533.033c.039-1.319.077-2.636.112-3.777-.425.2-.854.392-1.248.621a7.76,7.76,0,0,0-.839-.374c.183,1.108.392,2.377.6,3.65a49.071,49.071,0,0,0,1.468,6.415l.217.583s-.036-.221-.1-.607A47.814,47.814,0,0,1-551.037,1533.033Z" transform="translate(586.824 -1526.318)" fill="#da291b"/>
        <path id="Trazado_100962" data-name="Trazado 100962" d="M-507.5,1533.261c-3.219-2.837-14.156-6.135-23.428-6.135-5.356,0-9.3,1.139-11.476,3.3-7.206-5.071-26.986,1.469-33.116,8.481-1.526,1.748-2.19,3.455-1.97,5.073,1.388,10.277,20.829,11.811,32.294,11.811a141.614,141.614,0,0,0,20.909-1.565c.023,0,.047-.01.07-.012a68.958,68.958,0,0,0,16.3-6.395C-502.446,1543.26-502.525,1537.639-507.5,1533.261Zm-17,19.605a139.833,139.833,0,0,1-20.7,1.55c-18.743,0-30.017-3.869-30.928-10.615-.163-1.208.39-2.547,1.643-3.982,4.4-5.039,16.466-9.8,24.819-9.8,3.09,0,5.47.646,6.887,1.869a.688.688,0,0,0,.982-.083c1.781-2.158,5.538-3.3,10.865-3.3,8.832,0,19.538,3.168,22.517,5.79,2.735,2.41,3.768,5.1,2.988,7.786C-506.886,1547.119-514.2,1551.251-524.494,1552.867Z" transform="translate(577.526 -1527.126)" fill="#c0091b"/>
      </g>
      <path id="Trazado_100963" data-name="Trazado 100963" d="M-504.971,1527.226c1.9,3.189,1.12,5.43.23,6.926-.455.764-2.116,1.136-2.989,2.79a6.291,6.291,0,0,0,0,2.7,13.394,13.394,0,0,0-5.862.085c-5.681,1.421-10.337,4.359-23.563,5.461a66.7,66.7,0,0,1-20.835-1.063,10.251,10.251,0,0,0-6.292,1.034s-2.635-2.557-2.988-2.729c-4.481-2.185-4.6-4.944-3.334-8.621-5.389-1.5-15.276,1.946-15.385,9.573,11.959,8.864,29.793,14.953,52.51,13.07,21.073-1.746,36.65-11.393,46.046-22.425C-489.039,1527.962-499.97,1525.657-504.971,1527.226Z" transform="translate(613.632 -1487.259)" fill="#fff"/>
      <path id="Trazado_100964" data-name="Trazado 100964" d="M-504.971,1527.226a6.45,6.45,0,0,1,.927,5.345c2.885,2.75,3.309,6.828-.7,10.316-7.127,6.207-17.234,9.224-30.574,10.345-7.9.665-27.127.92-34.713-5.748-4.139-3.637-5.632-9.9-1.135-11.617a14.162,14.162,0,0,1,.56-2.061c-5.389-1.5-15.276,1.946-15.385,9.573,11.959,8.864,29.793,14.953,52.51,13.07,21.073-1.746,36.65-11.393,46.046-22.425C-489.039,1527.962-499.97,1525.657-504.971,1527.226Z" transform="translate(613.632 -1487.259)" fill="#e7dcd7"/>
      <path id="Trazado_100965" data-name="Trazado 100965" d="M-576.844,1531.933c-4.577,1.115-9.07,4.352-9.143,9.48a59.968,59.968,0,0,0,5.156,3.418C-581.428,1540.707-580.869,1535.929-576.844,1531.933Z" transform="translate(613.632 -1485.292)" fill="#d2c4b7"/>
      <path id="Trazado_100966" data-name="Trazado 100966" d="M-522.878,1526.856c3.8,3.346,6.472,6.894,5.692,12.657-.021.153-.047.292-.069.441a58.562,58.562,0,0,0,5.884-5.97C-512.468,1529.835-517.929,1527.448-522.878,1526.856Z" transform="translate(637.57 -1487.218)" fill="#d2c4b7"/>
      <path id="Trazado_100967" data-name="Trazado 100967" d="M-501.132,1526.248a13.217,13.217,0,0,0-3.865.51.69.69,0,0,0-.386,1.01c1.761,2.964.975,4.969.23,6.221-.3.5-2.069,1.05-3.007,2.822a4.338,4.338,0,0,0-.206,2.175c-7.632-1.015-10.662,4.2-28.666,5.7-2.789.232-5.254.345-7.537.345a65.86,65.86,0,0,1-13.121-1.4,10.864,10.864,0,0,0-6.284.879,23.579,23.579,0,0,0-2.814-2.513c-4.072-1.985-4.19-4.265-2.984-7.776a.69.69,0,0,0-.468-.89c-4.395-1.218-11.408.589-14.606,5.136a8.917,8.917,0,0,0-1.621,4.607c.447.342.891.684,1.354,1.018a7.567,7.567,0,0,1,1.393-4.832c2.577-3.661,8.392-5.49,12.407-4.761-.96,3.178-.934,6.373,3.887,8.72.261.167,1.65,1.463,2.841,2.622a.7.7,0,0,0,.825.1,9.792,9.792,0,0,1,4.392-1.077,8.242,8.242,0,0,1,1.439.124,66.575,66.575,0,0,0,13.359,1.421c2.321,0,4.825-.115,7.652-.35,13.284-1.106,18.083-4.081,23.672-5.479a12.725,12.725,0,0,1,5.53-.085.69.69,0,0,0,.843-.8,5.612,5.612,0,0,1-.068-2.25c.781-1.476,2.388-1.781,2.971-2.759a6.736,6.736,0,0,0,.206-6.829c4.211-.851,11.953.7,14.861,4.528a5.548,5.548,0,0,1,1.087,2.477c.377-.427.732-.859,1.088-1.291C-488.443,1528.547-495.856,1526.248-501.132,1526.248Z" transform="translate(613.451 -1487.449)" fill="#c5b3ad"/>
      <path id="Trazado_100968" data-name="Trazado 100968" d="M-583.589,1522.7c5.5,3.27,11.781,2.612,13.37,2.387.767.744,3.13,2.443,9.291,3.392,13.539,2.083,48.494-3.021,52.367-5.443,3.163-1.975,4.2-3.778,4.457-5.063a11.854,11.854,0,0,0,.948.745,4.02,4.02,0,0,0,2.208.52,12.908,12.908,0,0,0,8.566-3.694,5.914,5.914,0,0,0,1.643-3.484c3.254.233,4.941-3.419,5.975-6.5q-.7-.075-1.446-.1c-1.211,3.436-2.708,5.749-5.034,5.117a.69.69,0,0,0-.868.723,4.288,4.288,0,0,1-1.286,3.306,11.536,11.536,0,0,1-7.55,3.25,2.661,2.661,0,0,1-1.448-.292c-.433-.285-1.622-1.336-2.043-1.717a.681.681,0,0,0-.874-.029.7.7,0,0,0-.2.865c.011.022,1.018,2.185-3.779,5.184-3.459,2.161-38.026,7.309-51.426,5.247-7-1.077-8.68-3.166-8.68-3.166a.694.694,0,0,0-.69-.279c-.029.006-6.968,1.31-12.8-2.156a21.463,21.463,0,0,1-8.626-11.073,13.631,13.631,0,0,0-1.327.324C-591.188,1515.4-587.984,1520.09-583.589,1522.7Z" transform="translate(611.034 -1495.332)" fill="#c5b3ad"/>
      <path id="Trazado_100969" data-name="Trazado 100969" d="M-605.3,1520.242a10.855,10.855,0,0,1,1.4-10.378c4.017-6.243,9.149-4.772,9.287-4.795a15.739,15.739,0,0,0-6.99,6.32A22.89,22.89,0,0,0-605.3,1520.242Z" transform="translate(606.03 -1495.533)" fill="#d8cfc9" style="mix-blend-mode: multiply;isolation: isolate"/>
      <path id="Trazado_100970" data-name="Trazado 100970" d="M-509.916,1498.344c3.411-.839,6.281.739,8.43,3.466,4.418,5.211,1.458,8.81,1.452,8.948a12.829,12.829,0,0,0-3.607-7.226C-506.844,1499.2-509.726,1498.474-509.916,1498.344Z" transform="translate(642.487 -1498.119)" fill="#d8cfc9" style="mix-blend-mode: multiply;isolation: isolate"/>
      <path id="Trazado_100971" data-name="Trazado 100971" d="M-559.751,1554.971c10.269,1.525,13.179.709,23.448-.69-.629.322-3.549,3.345-11.611,4.2A17.753,17.753,0,0,1-559.751,1554.971Z" transform="translate(623.584 -1476.815)" fill="#d8cfc9" style="mix-blend-mode: multiply;isolation: isolate"/>
      <path id="Trazado_100972" data-name="Trazado 100972" d="M-536.516,1566.631c-30.465,0-50.032-14.222-58.186-27.53-5.157-8.418-6.223-16.961-2.92-23.44,2.966-5.821,8.4-6.567,12.8-6.567,9.5,0,23.474,3.894,42.861,3.171,27.127-1,45.772-7.815,57.31-7.815,6.6,0,10.549,2.255,12.794,7.313,2.759,6.211,1.236,15.263-4.07,24.215-10.138,17.1-29.693,28.431-52.306,30.3C-531.018,1566.514-533.8,1566.631-536.516,1566.631Zm-48.306-54.778c-5.514,0-8.51,1.466-10.344,5.062-2.855,5.6-1.829,13.164,2.815,20.745,7.764,12.672,26.509,26.213,55.835,26.213,2.637,0,5.346-.115,8.054-.338,32.195-2.669,46.534-22.843,50.163-28.963,4.779-8.062,6.283-16.374,3.921-21.689-1.789-4.029-4.766-5.673-10.273-5.673-10.942,0-30.068,6.808-57.208,7.814C-561.492,1515.749-575.693,1511.853-584.823,1511.853Z" transform="translate(608.503 -1495.717)" fill="#d28e7f"/>
    </g>
    <g id="Grupo_54576" data-name="Grupo 54576" transform="translate(-302.537 1437.949)">
      <path id="Trazado_100973" data-name="Trazado 100973" d="M-457.1,1474.249c-8.276.69-28.019,4.319-26.666-14.252,1.608-22.069,43.023-23.7,65.632-22.3,33.448,2.069,55.748,21.84,46.092,29.885-8.477,7.066-13.99-8.761-43.679-6.782C-431.234,1461.835-447.241,1473.428-457.1,1474.249Z" transform="translate(494.195 -1436.015)" fill="url(#radial-gradient-3)"/>
      <path id="Trazado_100974" data-name="Trazado 100974" d="M-474.293,1467.225c5.083.517,10.535-.278,13.99-.567,4.8-.4,11.069-3.357,18.022-6.4-10.2-.957-23.308-2.635-28.367-2.906C-475.26,1457.1-476.547,1462.926-474.293,1467.225Z" transform="translate(497.401 -1428.424)" fill="#e7dcd7"/>
      <path id="Trazado_100975" data-name="Trazado 100975" d="M-470.418,1456.849c-5-.232-6.753,5.647-4.5,10.474.543.072,1.1.123,1.647.164a8.52,8.52,0,0,1-1.13-5.724c.19-1.066.931-3.544,3.661-3.544,3.418.1,18.163,1.9,27.356,2.791q1.289-.567,2.608-1.138C-445.492,1459.447-467.545,1457-470.418,1456.849Z" transform="translate(497.209 -1428.613)" fill="#c5b3ad"/>
      <path id="Trazado_100976" data-name="Trazado 100976" d="M-467.127,1477.071c-11.492,0-18.481-5.17-17.632-16.817,1.57-21.545,39.4-23.87,55.592-23.87,5.046,0,10.11.223,14.647.644,25.213,2.339,43.339,13.588,46.3,23.112a7.881,7.881,0,0,1-2.55,8.861,8.321,8.321,0,0,1-5.447,2.149c-7.407,0-15.01-10.214-39.024-8.614-15.28,1.019-30.025,11.425-41.229,13.43A61.106,61.106,0,0,1-467.127,1477.071Zm37.96-37.928c-12.032,0-51.4,1.537-52.841,21.313-.316,4.339.588,7.684,2.687,9.94,2.417,2.6,6.519,3.916,12.195,3.916a58.434,58.434,0,0,0,10.167-1.062c10.723-1.919,25.7-12.412,41.531-13.466,24.425-1.635,33.051,8.607,39.206,8.607a5.535,5.535,0,0,0,3.681-1.509,5.15,5.15,0,0,0,1.684-5.924c-2.632-8.472-20.171-18.979-43.919-21.183C-419.228,1439.362-424.2,1439.143-429.167,1439.143Z" transform="translate(493.816 -1436.374)" fill="#d28e7f"/>
      <path id="Trazado_100977" data-name="Trazado 100977" d="M-415.768,1463.946c13.793-1.724,22.069-4.712,23.793-9.884,2.069,3.448,7.817,4.367,9.886-1.379a12.207,12.207,0,0,0,.617-2.7c-8.12-6.411-28.406-12.706-43.778-12.764-15.884-.059-35.211.781-50.264,8.269a18.855,18.855,0,0,0,.781,5.352c2.3,7.127,10.115,6.9,11.724,2.53C-461.63,1460.038-429.561,1465.67-415.768,1463.946Z" transform="translate(497.349 -1436.057)" fill="#fff"/>
      <path id="Trazado_100978" data-name="Trazado 100978" d="M-425.25,1437.222c-15.884-.059-35.211.781-50.264,8.269a18.855,18.855,0,0,0,.781,5.352c1.265,3.92,4.2,5.6,6.848,5.608.266-11.354,24.708-13.748,32.117-13.884,10.783-.2,45.172.862,47.283,14.089,3.1.794,6.349-1.16,7.012-6.669C-389.592,1443.575-409.878,1437.28-425.25,1437.222Z" transform="translate(497.349 -1436.057)" fill="#e7dcd7"/>
      <path id="Trazado_100979" data-name="Trazado 100979" d="M-415.494,1462.45c13.766-1.72,21.422-4.662,23.866-9.208a6.4,6.4,0,0,0,4.636,2.09c2.6,0,4.687-1.674,5.739-4.6a12.789,12.789,0,0,0,.6-2.411q-.615-.507-1.269-1c-.287,3.254-1.775,6.632-5.069,6.632a5.019,5.019,0,0,1-4.2-2.425.69.69,0,0,0-1.245.137c-1.526,4.575-9.123,7.655-23.225,9.418a47.355,47.355,0,0,1-5.783.309c-16.124,0-39.636-5.21-40.7-10.338a.687.687,0,0,0-.623-.549.691.691,0,0,0-.7.449c-1.395,3.781-8.335,3.959-10.421-2.5a18.36,18.36,0,0,1-.764-5.484c-.466.221-.908.457-1.353.691a19.244,19.244,0,0,0,.805,5.217c2.257,7,9.586,7.536,12.344,3.821,4.383,5.988,28.433,10.074,41.408,10.074A48.8,48.8,0,0,0-415.494,1462.45Z" transform="translate(497.162 -1433.876)" fill="#c5b3ad"/>
      <path id="Trazado_100980" data-name="Trazado 100980" d="M-372.737,1468.827a1.379,1.379,0,0,1,.177-1.942,5.15,5.15,0,0,0,1.684-5.924c-2.632-8.472-20.171-18.979-43.919-21.183-20.993-1.946-65.7-.294-67.232,20.681a1.392,1.392,0,0,1-1.474,1.274,1.38,1.38,0,0,1-1.276-1.476c1.7-23.308,47.007-25.382,70.239-23.226,25.213,2.339,43.339,13.588,46.3,23.112a7.881,7.881,0,0,1-2.55,8.861A1.38,1.38,0,0,1-372.737,1468.827Z" transform="translate(493.834 -1436.376)" fill="#d28e7f"/>
      <path id="Trazado_100981" data-name="Trazado 100981" d="M-449.7,1465.773c8.025-4.236,8.153-4.219,13.276-6.552-.109.138-.581,3.113-5.481,5.608C-447.175,1467.4-449.559,1465.776-449.7,1465.773Z" transform="translate(507.141 -1427.711)" fill="#d8cfc9" style="mix-blend-mode: multiply;isolation: isolate"/>
      <path id="Trazado_100982" data-name="Trazado 100982" d="M-425.2,1458.385c.138.008,3.572-.9,8.835,1.742,5.825,2.99,6.575,5.549,6.855,5.844A77.712,77.712,0,0,1-425.2,1458.385Z" transform="translate(516.435 -1428.082)" fill="#d8cfc9" style="mix-blend-mode: multiply;isolation: isolate"/>
      <path id="Trazado_100983" data-name="Trazado 100983" d="M-488.039,1451.971c-.336,1.762-1.437,5.611-.157,9.179.564,2.742,3.876,6.228,5.157,7.717-.138-.081-6.339-1.091-7.795-6.912C-492.435,1456.988-489.929,1454.037-488.039,1451.971Z" transform="translate(491.344 -1430.461)" fill="#d8cfc9" style="mix-blend-mode: multiply;isolation: isolate"/>
      <path id="Trazado_100984" data-name="Trazado 100984" d="M-394.282,1454.263a8,8,0,0,1,1.138,9.006c-2.7,5.746-7.666,4.53-7.8,4.557.138-.115,3.9-2.183,5.317-5.748C-394.22,1459.59-394.275,1456.318-394.282,1454.263Z" transform="translate(525.633 -1429.592)" fill="#d8cfc9" style="mix-blend-mode: multiply;isolation: isolate"/>
    </g>
    <g id="Grupo_54579" data-name="Grupo 54579" transform="translate(-256.403 1516.147)">
      <path id="Trazado_100985" data-name="Trazado 100985" d="M-418.9,1496.96c-7.617-6.527-37.815,19.045-37.815,48.972s29.12,30.61,39.992,22.581C-399.037,1555.454-402.03,1514.374-418.9,1496.96Z" transform="translate(458.346 -1491.984)" fill="url(#radial-gradient-4)"/>
      <path id="Trazado_100986" data-name="Trazado 100986" d="M-436.109,1549.037a20.063,20.063,0,0,0,20.065-20.065,20.063,20.063,0,0,0-20.065-20.065,19.968,19.968,0,0,0-12.669,4.512,58.326,58.326,0,0,0-7.211,18.134A20.053,20.053,0,0,0-436.109,1549.037Z" transform="translate(458.621 -1487.063)" fill="#54101b"/>
      <g id="Grupo_54577" data-name="Grupo 54577" transform="translate(1.633 44.997)">
        <path id="Trazado_100987" data-name="Trazado 100987" d="M-427.876,1533.058c-6.2-7.97-15.643-8.192-28.476-4.333a45.873,45.873,0,0,0-.361,5.694c0,29.928,29.12,30.61,39.992,22.581,4.259-3.145,7.308-7.926,9.262-13.6C-412.386,1536.582-422.138,1530.189-427.876,1533.058Z" transform="translate(456.713 -1525.467)" fill="#ed4136"/>
        <path id="Trazado_100988" data-name="Trazado 100988" d="M-411.122,1548.3c-1.3-4.072-9.185-11.211-13.567-11.211a1.91,1.91,0,0,0-.283.018,6.536,6.536,0,0,1-8.069-1.834c-2.317-2.979-5.164-4.252-9.52-4.252-3.619,0-8.208.93-14.126,2.865.337,11.7,5.259,18.724,11.715,22.393l9.167,3.026a30.232,30.232,0,0,0,7.375.066C-420.207,1555.479-412.845,1550.824-411.122,1548.3Z" transform="translate(456.723 -1523.673)" fill="#ff4d45"/>
        <path id="Trazado_100989" data-name="Trazado 100989" d="M-435.079,1530.5c.574,4.291.593,4.484.663,5.527a18.449,18.449,0,0,1,.062,2.581,11.47,11.47,0,0,1-.109,1.248,6.557,6.557,0,0,1-.175,1.152c-.094.359-.181.7-.262,1.012a7.871,7.871,0,0,1-.594,1.433l-.251.528.186-.557a7.461,7.461,0,0,0,.412-1.466c.041-.31.087-.648.135-1.005a6.455,6.455,0,0,0,.034-1.13,11.469,11.469,0,0,0-.04-1.2c-.047-.408-.1-.822-.143-1.239s-.146-.826-.215-1.229c-.31-1.614-.64-2.774-1.306-5.35Z" transform="translate(464.311 -1523.871)" fill="#da291b"/>
        <path id="Trazado_100990" data-name="Trazado 100990" d="M-424.753,1531.765a8.169,8.169,0,0,0-2.952.519c-7.117-8.6-17.926-7.375-28.588-4.215-.084.589-.161,1.181-.223,1.775a48.372,48.372,0,0,1,13.891-2.516c6.146,0,10.6,2.052,14.03,6.457l.411.53.6-.3a6.28,6.28,0,0,1,2.833-.617c5.735,0,13.065,5.624,16.876,11.186.23-.611.45-1.229.651-1.861C-411.483,1537.064-418.792,1531.765-424.753,1531.765Z" transform="translate(456.788 -1525.693)" fill="#c0091b"/>
      </g>
      <path id="Trazado_100991" data-name="Trazado 100991" d="M-410.422,1518.934c-2.345-8.6-6.286-16.47-11.615-21.974-4.523-3.875-17,3.563-26.4,16.512C-438.448,1517.575-421.831,1522.134-410.422,1518.934Z" transform="translate(461.485 -1491.984)" fill="#fff"/>
      <path id="Trazado_100992" data-name="Trazado 100992" d="M-427.632,1506.439c4.977,2.633,8.955,7.709,11.258,13.386a28.7,28.7,0,0,0,4.83-.891c-2.343-8.6-6.284-16.469-11.615-21.974-3.894-3.336-13.68,1.724-22.321,11.451C-439.783,1505.1-432.845,1503.68-427.632,1506.439Z" transform="translate(462.607 -1491.984)" fill="#e7dcd7"/>
      <g id="Grupo_54578" data-name="Grupo 54578" transform="translate(3.712 66.215)">
        <path id="Trazado_100993" data-name="Trazado 100993" d="M-417.4,1551.146a23.109,23.109,0,0,0,4.986-5.145c-9.526.006-29.171-2.059-42.526-4.28C-447.707,1558.447-426.357,1557.764-417.4,1551.146Z" transform="translate(455.309 -1540.831)" fill="#e7dcd7"/>
        <path id="Trazado_100994" data-name="Trazado 100994" d="M-455.206,1541.076c.237.611.487,1.2.759,1.77,13.17,2.167,31.943,4.138,41.557,4.212.41-.525.8-1.073,1.172-1.636-.207,0-.395.008-.614.008C-421.737,1545.43-441.879,1543.306-455.206,1541.076Z" transform="translate(455.206 -1541.076)" fill="#c5b3ad"/>
      </g>
      <path id="Trazado_100995" data-name="Trazado 100995" d="M-437.035,1499.874a1.634,1.634,0,0,1,.274-2.292c5.17-4.07,15.513-5.75,21.694-3.517a1.631,1.631,0,0,1,.982,2.088,1.625,1.625,0,0,1-2.088.982c-5.1-1.837-14.3-.347-18.57,3.014A1.634,1.634,0,0,1-437.035,1499.874Z" transform="translate(465.678 -1493.07)" fill="#d28e7f"/>
      <path id="Trazado_100996" data-name="Trazado 100996" d="M-449.777,1562.294c1.622-1.673,3.628-4.125,10.339-3.3,6.942.712,9.677,4.64,9.846,4.764a44.07,44.07,0,0,0-10.117-2.365A23.183,23.183,0,0,0-449.777,1562.294Z" transform="translate(460.977 -1468.126)" fill="#d8cfc9" style="mix-blend-mode: multiply;isolation: isolate"/>
      <path id="Trazado_100997" data-name="Trazado 100997" d="M-410.087,1515.084c-.137-.527-.276-1.051-.423-1.573-10.876,3.054-26.879-1.119-37.288-5.35-.331.447-.659.9-.985,1.359C-437.87,1514.045-421.423,1518.259-410.087,1515.084Z" transform="translate(461.354 -1487.346)" fill="#c5b3ad"/>
      <path id="Trazado_100998" data-name="Trazado 100998" d="M-457.9,1546.381c0-27.2,24.661-51.63,36.306-51.63a6.251,6.251,0,0,1,4.2,1.418c10.171,10.49,15.941,29.4,14.47,47.163-1.012,12.223-5.411,21.793-12.385,26.944C-427.1,1578.99-457.9,1577.922-457.9,1546.381Zm36.306-48.365c-9.05,0-33.041,21.967-33.041,48.365,0,18.664,12.017,25.313,23.262,25.313,5.418,0,10.7-1.512,14.13-4.047,6.2-4.581,10.137-13.313,11.069-24.585,1.375-16.616-4.156-34.921-13.451-44.519A3.178,3.178,0,0,0-421.591,1498.016Z" transform="translate(457.897 -1492.432)" fill="#d28e7f"/>
    </g>
    <g id="Grupo_54581" data-name="Grupo 54581" transform="translate(-968.475 1433.757)">
      <path id="Trazado_100999" data-name="Trazado 100999" d="M-925.539,1434.337c-26.207,0-49.2,31.277-40.172,39.291,8.448,7.5,17.979-5.258,40.172-5.258s31.724,12.757,40.172,5.258C-876.34,1465.614-899.332,1434.337-925.539,1434.337Z" transform="translate(976.591 -1432.958)" fill="url(#radial-gradient-5)"/>
      <path id="Trazado_101000" data-name="Trazado 101000" d="M-928.266,1436.161c-2.585.81-4.1.752-7.524.134-2.186-.811-11.288,3.386-14.442,8.939a13.991,13.991,0,0,0,1.455,16.392c5.825,6.9,31.835,10.63,36.286-5.556C-908.122,1440.179-924.626,1436.433-928.266,1436.161Z" transform="translate(982.467 -1432.266)" fill="#54101b"/>
      <g id="Grupo_54580" data-name="Grupo 54580" transform="translate(27.549 1.379)">
        <path id="Trazado_101001" data-name="Trazado 101001" d="M-909.153,1441.214c-6.469-4.1-13.97-6.877-21.766-6.877-8.134,0-15.957,3.017-22.61,7.413C-941.753,1442.756-919.9,1443.5-909.153,1441.214Z" transform="translate(954.422 -1434.337)" fill="#e7dcd7"/>
        <path id="Trazado_101002" data-name="Trazado 101002" d="M-908.1,1439.977q-.811-.534-1.641-1.037c-10.864,2.08-31.527,1.345-42.568.45q-.946.6-1.864,1.228C-942.826,1441.645-919.187,1442.585-908.1,1439.977Z" transform="translate(954.176 -1432.591)" fill="#c5b3ad"/>
      </g>
      <path id="Trazado_101003" data-name="Trazado 101003" d="M-899.96,1458.105s.233-3.27-4.3-5.044-39.81-1.21-44.881.677c-2.823,1.051-2.8,5.766-2.8,5.766s-2.972-3.73-5.058-3.288a59.908,59.908,0,0,0-10.581,3.982c-.4,2.836.146,5.208,1.865,6.735,8.448,7.5,17.979-5.258,40.172-5.258s31.724,12.757,40.172,5.258c2.123-1.884,2.458-5.061,1.412-8.808-3.971-2.171-8.553-3.823-11.214-3.641C-896.9,1454.6-899.96,1458.105-899.96,1458.105Z" transform="translate(976.593 -1426.262)" fill="#fff"/>
      <path id="Trazado_101004" data-name="Trazado 101004" d="M-902.08,1465.415c.1-.13.174-.276.259-.414a3.7,3.7,0,0,0,.541-1.1,4.432,4.432,0,0,0,.316-1.179,5.776,5.776,0,0,0,.13-1.254c0-.062.007-.12.008-.182a14.112,14.112,0,0,0-.57-3.885,32.091,32.091,0,0,0-9.155-3.49,10.411,10.411,0,0,1-4.959,8.466,28.07,28.07,0,0,1-6.217,2.571c7.128,2.532,7.1,2.549,8.459,2.923a13.376,13.376,0,0,0,6.464.472c.1-.022.193-.054.291-.08a8.74,8.74,0,0,0,2.818-1.349A7.2,7.2,0,0,0-902.08,1465.415Z" transform="translate(994.033 -1425.534)" fill="#e7dcd7"/>
      <path id="Trazado_101005" data-name="Trazado 101005" d="M-957.3,1455.108a61.708,61.708,0,0,0-10.274,3.906c-.4,2.836.146,5.208,1.865,6.735,4.268,3.789,8.815,2.407,15.128.112a15.725,15.725,0,0,1-4.046-2.345A7.845,7.845,0,0,1-957.3,1455.108Z" transform="translate(976.593 -1425.079)" fill="#e7dcd7"/>
      <path id="Trazado_101006" data-name="Trazado 101006" d="M-908.469,1470.98a11.843,11.843,0,0,0,4.515-3.152c1.892-2.3,2.51-2.757,3.3-6.963.07.138,3.283,3.149-.374,7.756C-904.283,1472.952-908.331,1470.982-908.469,1470.98Z" transform="translate(999.062 -1422.895)" fill="#d8cfc9" style="mix-blend-mode: multiply;isolation: isolate"/>
      <path id="Trazado_101007" data-name="Trazado 101007" d="M-964.992,1471.479c-2.527.4-4.934.977-7.44-2.359-3.6-4.541-.422-7.618-.375-7.756a10.169,10.169,0,0,0,2.548,6.056A13.43,13.43,0,0,0-964.992,1471.479Z" transform="translate(974.149 -1422.706)" fill="#d8cfc9" style="mix-blend-mode: multiply;isolation: isolate"/>
      <path id="Trazado_101008" data-name="Trazado 101008" d="M-899.527,1456.806c-.417-1.268-1.535-3.037-4.5-4.2-4.742-1.854-40.186-1.257-45.373.674-2.094.779-2.837,3.144-3.1,4.777-1.164-1.168-3.1-2.662-4.655-2.328a59.3,59.3,0,0,0-10.284,3.818,13.879,13.879,0,0,0-.23,1.641,57.693,57.693,0,0,1,10.8-4.11c1.186-.244,3.372,1.788,4.376,3.044a.687.687,0,0,0,.768.219.69.69,0,0,0,.461-.652c0-.043.011-4.247,2.348-5.116,4.93-1.834,40.048-2.379,44.388-.681,3.965,1.55,3.872,4.245,3.866,4.352a.691.691,0,0,0,1.208.5c1.192-1.367,3.319-3.32,4.317-3.388,2.713-.189,7.464,1.643,11.412,3.888a19.059,19.059,0,0,0-.517-1.857c-3.943-2.084-8.33-3.589-10.989-3.408C-896.594,1454.077-898.4,1455.668-899.527,1456.806Z" transform="translate(976.607 -1426.453)" fill="#c5b3ad"/>
      <path id="Trazado_101009" data-name="Trazado 101009" d="M-891.048,1477.75c-7.792,0-17.164-7.621-34.112-7.621-10.116,0-17.539,2.716-23.506,4.9-6.615,2.419-12.348,4.659-17.582.012-2.805-2.491-3.228-6.822-1.186-12.195,4.581-12.061,22.27-29.508,42.275-29.508s37.694,17.447,42.276,29.508c2.04,5.372,1.619,9.7-1.187,12.195A10.122,10.122,0,0,1-891.048,1477.75Zm-34.112-10.379c17.246,0,27.234,7.619,34.112,7.619a7.378,7.378,0,0,0,5.145-2.014c7.556-6.709-13.716-36.88-39.257-36.88-25.585,0-46.8,30.185-39.257,36.88a7.382,7.382,0,0,0,5.146,2.014C-952.331,1474.99-942.521,1467.37-925.16,1467.37Z" transform="translate(976.212 -1433.337)" fill="#d28e7f"/>
    </g>
    <g id="Grupo_54582" data-name="Grupo 54582" transform="translate(-989.106 1533.426)">
      <path id="Trazado_101010" data-name="Trazado 101010" d="M-988.1,1564.921c2.759-6.9,14.483-39.31,22.759-45.517s73.1-19.31,88.276-8.966,28.966,46.9,28.966,46.9-25.517-22.759-71.035-20S-988.1,1564.921-988.1,1564.921Z" transform="translate(989.485 -1505.22)" fill="#fff"/>
      <path id="Trazado_101011" data-name="Trazado 101011" d="M-915.469,1531.323c10.087-.742,21.815-1.433,31.23,3.025a27.049,27.049,0,0,1,11.072,9.306c16.333,5.909,25.062,13.681,25.062,13.681s-13.793-36.552-28.966-46.9-80,2.759-88.276,8.966-20,38.621-22.759,45.517c0,0,9.466-10,28.016-18.018C-957.174,1532.389-926.033,1532.1-915.469,1531.323Z" transform="translate(989.485 -1505.22)" fill="#e7dcd7"/>
      <path id="Trazado_101012" data-name="Trazado 101012" d="M-952.523,1512.362c-6.3,1.736-10.975,3.466-12.823,4.852-8.276,6.207-20,38.621-22.759,45.517,0,0,5.621-5.917,16.641-12.294C-968.556,1536.646-960.68,1523.049-952.523,1512.362Z" transform="translate(989.485 -1503.031)" fill="#d2c4b7"/>
      <path id="Trazado_101013" data-name="Trazado 101013" d="M-896.579,1533.006a159.165,159.165,0,0,1,7.726,15.636,70.091,70.091,0,0,1,13.3,8.559s-13.793-36.552-28.966-46.9c-2.53-1.725-6.44-2.8-11.24-3.36C-909.006,1515.409-901.953,1523.3-896.579,1533.006Z" transform="translate(1016.929 -1505.086)" fill="#d2c4b7"/>
      <path id="Trazado_101014" data-name="Trazado 101014" d="M-946.285,1541.322c.692-.323,2.226-3.75,13.59-4.858,8.583-.241,10.669,1.154,14.161,2.837-1.545-.051-1.789-.675-14-.181C-945,1540.15-944.968,1541.087-946.285,1541.322Z" transform="translate(1005.348 -1493.899)" fill="#d8cfc9" style="mix-blend-mode: multiply;isolation: isolate"/>
      <path id="Trazado_101015" data-name="Trazado 101015" d="M-955.1,1526.531s.574,3.563,3.16,3.39c19.828-1.322,48.334-4.541,64.311-5a3.931,3.931,0,0,0,3.793-3.448,39.6,39.6,0,0,0,3.1,4.655c4.92,4.542,12.327,5.757,18.719,6.963-5-9.073-11.217-18.243-17.684-22.652-15.172-10.345-80,2.759-88.276,8.966-4.065,3.05-8.959,12.419-13.218,21.985,5.7-2.426,19.353-5.972,23.908-10.261C-956.353,1530.256-955.1,1526.531-955.1,1526.531Z" transform="translate(992.109 -1505.22)" fill="#fff"/>
      <path id="Trazado_101016" data-name="Trazado 101016" d="M-925.9,1512.852c12.542-1.927,32.159-3.415,43.793,3.448,6,3.538,10.345,10.345,11.415,14.915,2.9.811,5.884,1.346,8.683,1.876-5-9.072-11.217-18.244-17.684-22.652-15.172-10.345-80,2.759-88.276,8.966-4.064,3.048-8.96,12.422-13.218,21.985,2.01-.852,4.995-1.847,8.217-2.959C-969.376,1518.629-942.151,1515.349-925.9,1512.852Z" transform="translate(992.109 -1505.22)" fill="#e7dcd7"/>
      <path id="Trazado_101017" data-name="Trazado 101017" d="M-956.693,1527.727a10.265,10.265,0,0,0,1.688-3.059,3.334,3.334,0,0,0,3.23,2.039c19.7-1.313,48.439-4.543,64.284-5a4.39,4.39,0,0,0,3.964-2.483,24.074,24.074,0,0,0,2.444,3.506c5.142,4.748,12.761,5.944,19.622,7.243-.284-.521-.577-1.046-.869-1.568-6.164-1.153-13.2-2.422-17.817-6.687a35.746,35.746,0,0,1-2.977-4.5.689.689,0,0,0-.737-.325.687.687,0,0,0-.543.593,3.207,3.207,0,0,1-3.128,2.84c-15.926.458-44.683,3.7-64.47,5.007-1.812,0-2.3-2.792-2.3-2.819a.692.692,0,0,0-.625-.575.7.7,0,0,0-.709.466,16.5,16.5,0,0,1-2,4.316c-4.241,3.993-17,7.437-23.025,9.844q-.416.929-.826,1.857C-976.3,1535.993-961.584,1532.332-956.693,1527.727Z" transform="translate(991.995 -1501.317)" fill="#c5b3ad"/>
      <path id="Trazado_101018" data-name="Trazado 101018" d="M-987.725,1566.677a1.38,1.38,0,0,1-1.28-1.891c.317-.793.755-1.927,1.291-3.319,4.275-11.091,14.284-37.063,21.92-42.791,8.426-6.319,73.961-19.854,89.881-9,15.356,10.47,28.909,46.04,29.479,47.548a1.38,1.38,0,0,1-.509,1.623,1.382,1.382,0,0,1-1.7-.1c-.223-.2-22.823-19.883-62.51-19.883-2.48,0-5.011.077-7.523.229-44.458,2.694-67.815,26.913-68.047,27.156A1.371,1.371,0,0,1-987.725,1566.677Zm90.328-58.331c-24.31,0-60.9,8.153-66.741,12.538-6.577,4.931-15.945,28.5-20.233,39.582,8.845-7.193,31.043-22.042,65.528-24.131,2.567-.156,5.155-.234,7.69-.234,31.352,0,51.961,11.658,60.251,17.438-4.254-10.113-15.116-33.779-26.566-41.585C-880.931,1509.593-887.822,1508.346-897.4,1508.346Z" transform="translate(989.106 -1505.597)" fill="#d28e7f"/>
    </g>
  </g>
</svg>
