<svg xmlns="http://www.w3.org/2000/svg" width="84.99" height="84.991" viewBox="0 0 84.99 84.991">
  <g id="Grupo_54644" data-name="Grupo 54644" transform="translate(662.127 -1257.738)">
    <circle id="Elipse_4460" data-name="Elipse 4460" cx="42.495" cy="42.495" r="42.495" transform="translate(-662.127 1257.738)" fill="#0598d8"/>
    <path id="Trazado_101057" data-name="Trazado 101057" d="M-587.754,1282.907a41.329,41.329,0,0,0-2.083-12.963,42.348,42.348,0,0,0-29.795-12.206,42.5,42.5,0,0,0-42.495,42.5,42.618,42.618,0,0,0,.936,8.879A41.308,41.308,0,0,0-629.15,1324.3,41.4,41.4,0,0,0-587.754,1282.907Z" transform="translate(0 0)" fill="#04b1d9"/>
    <g id="Grupo_54643" data-name="Grupo 54643" transform="translate(-640.24 1282.315)">
      <path id="Trazado_101058" data-name="Trazado 101058" d="M-629.5,1281.187v33h5.929v5.47h-18.189v-5.47h5.929v-27.53h-5.929v-5.47Z" transform="translate(641.763 -1280.56)" fill="#fff"/>
      <path id="Trazado_101059" data-name="Trazado 101059" d="M-619.428,1311.446q0-5.2,5.906-8.9,5.928-3.7,5.951-6.294V1288.7q0-2.607-2.73-2.608h-.045q-2.752,0-2.752,2.608v5.157h-6.331V1288.7q0-8.1,9.082-8.1,9.106,0,9.106,8.1v7.686q0,5.293-5.929,9.02-5.928,3.7-5.929,6.509v2.314h11.857v5.47h-18.188Z" transform="translate(643.434 -1280.604)" fill="#fff"/>
    </g>
  </g>
</svg>
