<?xml version="1.0" encoding="utf-8"?>
<!-- Generator: Adobe Illustrator 25.3.1, SVG Export Plug-In . SVG Version: 6.00 Build 0)  -->
<svg version="1.1" id="Capa_1" xmlns="http://www.w3.org/2000/svg" xmlns:xlink="http://www.w3.org/1999/xlink" x="0px" y="0px"
	 viewBox="0 0 295 345" style="enable-background:new 0 0 295 345;" xml:space="preserve">
<style type="text/css">
	.st0{opacity:9.000000e-02;enable-background:new    ;}
	.st1{fill:#8979F3;}
	.st2{fill:#F1BF5E;}
	.st3{fill:none;}
	.st4{enable-background:new    ;}
</style>
<g id="Grupo_55616" transform="translate(-180 -494)">
	<g id="Grupo_53977">
		<g id="Grupo_53976" transform="translate(-43.5)">
			<ellipse id="Elipse_4424" class="st0" cx="380" cy="822.5" rx="95" ry="8.5"/>
			<g id="Grupo_53975" transform="translate(286.922 512.588)">
				<path id="Trazado_100575" class="st1" d="M159,21.1c-0.8-0.8-1.6-1.5-2.6-2.1l0.4,2.8c0,0-3.8-2.7-4-3s-3-0.5-3.9,0
					s5.2,4.8,5.2,4.8s-5.8,0-6.7-0.4s-3.6-0.1-3.9,1.2s7.3,2.4,7.3,2.4s2.7,1.7,3.2,2.8s-1.1,2.5-1.1,2.5l-2.3-3.2
					c-0.9-0.6-1.9-1.2-3-1.7c-0.9-0.4-1.2,1-1.2,1.4s2.7,2.9,3,3.7s2.7,6.6,2.7,6.6l1.4,3.7l-13.5,33.1c0,0-22.3-16.3-26.1-19.4
					s-11.1-4.7-12.3-4.9s-5.1-2.7-5.1-2.7v-7.6c5.2-2.7,10.4-8.5,10.4-8.5s5.2-1.2,6.1-3.3s1.5-5.6,0-5.3s3.4-11.9-4.2-19.2
					C98.6-5,86,3.3,86,3.3c-3.1,1.9-5.3,5.1-6,8.7c-1.1,6-1.5,17.2,1.6,23.2c1,2.2,2.5,4.1,4.3,5.7l-2.2,8.1c0,0-1.7,0.3-8.5-0.4
					s-9.4,4.1-10.5,5.8s-3,12.8-3,12.8s-7.1,20-7.6,20s-32.4-4.5-32.4-4.5l-6-2.8c0,0-5.7-1.4-7.5-0.9s4.6,3.8,4.6,3.8
					c-1.3,0.2-2.7,0.3-4,0.3c-1-0.1-1.9-2.5-2.2-3s-1.8-0.3-1.8-0.3S4.2,83.7,5,85.1c0.6,1.4,0.9,3,1,4.5c0,0-4.8,2.4-5.7,2.9
					s0.5,2,0.5,2l9.6-2.4c0,0-2.5,3.2-3.4,4.3c-1,1.1-1,2.9,0,4c1.1,1.3,6.1-6.4,6.1-6.4l9.5-4.9c0,0,35.3,8.8,36.4,8.8
					s3.9-4.5,3.9-4.5c1.5,6.4,1.4,13-0.3,19.4c-2.7,10.6,0.8,27.5,0.8,28.6s-2.5,15.3-2.5,21s4.6,48.2,4.6,54.5s7.1,15.3,7.1,15.3
					l11.4,13.1c0,0,4.1,5.9,8.8,12.8c-0.5,18-1.7,35.2-1.7,35.2l-7.2,16.4c-1.1,1.1-2.2,2.1-3.5,3.1c-1,0.6-0.8,2.2,3.3,1.8
					c3.8-0.2,7.6-0.2,11.4,0c0,0,6.1-11.2,7.2-13.3s1.2-7.4-0.2-10.8c-1.2-2.9-1.1-6.1,1.3-16c1,1.4,1.8,3,2.4,4.7
					c0.5,3.5,1.4,17.5,1.4,17.5s-4.1,7.8-3.2,8.9s3.2,0,3.2,0l6.5-5.4c0,0,0-9.7,0.6-11.6s7.3-10.6,5.6-13.4s-6.1-4.2-6.1-4.2
					l-7.1-10.5c2.4-15.1,0.9-33.1-0.6-38.4c-1-3.4-1.4-6.9-1.4-10.4c3.1-13.5,7.4-60.7,6.9-72.2s-17.2-26.6-20-31.2
					s-0.6-11.6,1.1-16s11.5-14.7,11.5-14.7l5.6-8.8L131,82c0,0,17.2,8,17.5,7.7s4.3-21.1,4.3-21.1s5.2-26.5,5.2-26.7
					s0.8-8.9,0.8-9.7s0.7-5.6,1.3-6.4S159.2,21.7,159,21.1z M91.3,214.7c0,2.2,1.2,10,1.2,10c0.3,2.1,0.4,4.7,0.6,7.5
					c-2.7-4.1-5.5-7.3-8-7.8c-0.1-0.1-0.2-0.1-0.3-0.2c-4.6-2.5-2.7-15.8-2.7-15.8l5.8-54C87.8,154.4,91.3,212.5,91.3,214.7z"/>
				<path id="Trazado_100576" class="st2" d="M158.6,21.9c-0.4-0.1-0.8,0.2-0.8,0.6c0,0,0,0,0,0l-0.2,1l-4.5-3.8
					c-0.3-0.2-0.8-0.2-1,0.1c-0.2,0.3-0.2,0.7,0.1,1l4.6,3.8l-0.3,2.8c-0.1-0.5-0.3-0.6-0.4-0.7c-0.2-0.1-0.3-0.7-0.3-0.9v-0.6
					l-7.8-1.6c-0.4-0.1-0.8,0.2-0.9,0.6c-0.1,0.4,0.2,0.8,0.6,0.9l0,0l6.7,1.4c0.1,0.5,0.4,1,0.8,1.4c0.2,3.1,0.2,6.3-0.1,9.4
					l-1.4-1.8l-4-6.8c-0.2-0.3-0.6-0.5-1-0.3c-0.3,0.2-0.5,0.6-0.3,1c0,0,0,0,0,0l4,6.9l2.4,3.4v1.8l-11,40.4l-1.7-3.2
					c-0.2-0.4-0.6-0.5-1-0.3s-0.5,0.6-0.3,1l1.4,2.8l-34.7-23.5l-17-4.3l0.3-1l-0.4-0.1l4-23.2c2.9-3.5,6.2-7.3,7-8
					c0.3-0.1,0.5-0.4,0.5-0.7l0-0.5l-0.5-0.2c-0.6-0.2-0.8-0.3-7.5,7.7c-0.1,0-0.2,0-0.3,0l-7.1-9.2c-0.2-0.3-0.7-0.4-1-0.1
					s-0.4,0.7-0.1,1l7.6,9.9l-4.2,24.4c0,0.1,0,0.1,0,0.2l-1.5,3.9l-3.3-4.7l-0.4,0c-4.1,0.4-10.3,1-10.7,1l-3,0.6L57.7,90.7l-1.2-2
					c-0.2-0.3-0.7-0.4-1-0.2c-0.3,0.2-0.4,0.6-0.2,1l1.1,1.8l-33.1-5.7c0-0.3-0.1-0.5-0.4-0.6l-10-5c-0.4-0.2-0.8,0-1,0.3
					c-0.2,0.4,0,0.8,0.3,1c0,0,0,0,0,0l4.8,2.4l-1.2-0.2l-0.2,0l-4.9,1.4l-3.7-3.1c-0.3-0.3-0.8-0.2-1,0.1c-0.3,0.3-0.2,0.8,0.1,1
					c0,0,0,0,0,0l3.9,3.3l0.5,1l-3.7-0.9C6.4,86,6,86.3,6,86.7c-0.1,0.4,0.2,0.7,0.5,0.8l4.9,1.1l0.5,1l-9.2,2
					c-0.4,0.1-0.6,0.5-0.5,0.9c0.1,0.3,0.4,0.6,0.7,0.6c0.1,0,0.1,0,0.2,0l9.5-2.1l0.4,0.7l-5,5.7c-0.3,0.3-0.2,0.8,0.1,1
					c0.3,0.3,0.8,0.2,1-0.1l5.3-6.1l0,0l0.6-0.7l8.5-4.5l34.1,5.9l1.5,2.4c0.2,0.3,0.7,0.4,1,0.2c0.3-0.2,0.4-0.6,0.2-1l-1.4-2.3
					l12.5-35.7l2-0.4c0.9-0.1,7.1-0.7,10.3-1l3.6,5.3l-5,15.4c-0.2,0.8-4.7,19.3-4.4,23c0.3,3.1,5.2,27.2,7,35.8l-1.8,1.9l-16.1-0.4
					c-0.4,0-0.7,0.3-0.7,0.7c0,0,0,0,0,0c0,0.4,0.3,0.7,0.7,0.7l14.8,0.4l-3.1,3.4l-6.4,2.8V224l24.6,34.8l-0.7,33l-6.3,18.5
					c-0.1,0.4,0,0.8,0.4,0.9c0.4,0.1,0.8,0,0.9-0.4c0,0,0,0,0,0l6.4-18.7l0.7-31.3l11.6,16.5v18.6c0,0.4,0.3,0.7,0.7,0.7
					c0.4,0,0.7-0.3,0.7-0.7v-19l-13-18.4l0.9-40v-80.2l6,3.1c0.4,0.2,0.8,0,1-0.3c0.2-0.4,0-0.8-0.3-1l-10.8-5.7l-5.7,2.5l-2.6-0.1
					c-0.1-0.4-0.2-0.9-0.3-1.6l7.4-7.9c0.3-0.3,0.3-0.7,0-1c-0.3-0.3-0.7-0.3-1,0c0,0,0,0,0,0l-6.7,7.2c-1.9-9.3-6.5-31.8-6.7-34.6
					c-0.2-2.8,2.8-16,4.4-22.5l6.7-20.7l16.7,4.2l36.8,25l1.9,3.6c0.2,0.4,0.6,0.5,1,0.3c0.4-0.2,0.5-0.6,0.3-1c0,0,0,0,0,0l-2.1-4
					l11.4-42l0-2.3v0c0.1-2.2,0.2-4,0.3-5.5c0,0,0.1,0,0.1,0c0.4,0,0.7-0.3,0.7-0.6l1.8-10.6C159.2,22.4,159,22,158.6,21.9z
					 M15.8,84.8c0.6,0.1,1.4,0.2,2.2,0.3l0,0c-0.4,0.5-3.2,1.5-5.7,2.1L11.7,86L15.8,84.8z M14.1,90.3l-0.2,0.2l-0.2-0.4
					c0,0,0-0.1,0-0.1c0-0.2-0.1-0.3-0.2-0.4l-0.5-1c2.4-0.6,5.8-1.7,6.3-2.8c0.1-0.2,0.1-0.3,0.1-0.5c0.8,0.1,1.5,0.2,1.9,0.3
					l0.9,0.4L14.1,90.3z M83.5,138.2l2.1,0.1c0.1,0,0.1,0.1,0.2,0.1l-4,1.7L83.5,138.2z M97.5,137.5v80.9l-0.8,38l-23.2-32.8v-78.4
					l6.3-2.7l7.2,4.2c0.3,0.2,0.8,0.1,1-0.3c0,0,0,0,0,0c0.2-0.3,0.1-0.8-0.3-1l-6.3-3.7l8-3.4l2.7,0.1h0c0.4,0,0.7-0.3,0.7-0.7
					c0-0.3-0.2-0.5-0.4-0.6l2.3-1L97.5,137.5z M85,136.8l-0.3,0l0.2-0.2L85,136.8z"/>
			</g>
		</g>
		<rect id="Rectángulo_5214" x="180" y="494" class="st3" width="295" height="345"/>
	</g>
	<g class="st4">
		<path class="st1" d="M216.8,540.8h-2.3v5.2h-2.9v-14.2h5.3c1.7,0,3,0.4,3.9,1.1s1.4,1.8,1.4,3.2c0,1-0.2,1.8-0.6,2.4
			s-1.1,1.2-1.9,1.5l3.1,5.8v0.1h-3.1L216.8,540.8z M214.5,538.4h2.4c0.7,0,1.3-0.2,1.7-0.6s0.6-0.9,0.6-1.5c0-0.7-0.2-1.2-0.6-1.6
			s-1-0.6-1.8-0.6h-2.4V538.4z"/>
		<path class="st1" d="M224.1,532.7c0-0.4,0.1-0.8,0.4-1s0.7-0.4,1.2-0.4c0.5,0,0.9,0.1,1.2,0.4s0.4,0.6,0.4,1
			c0,0.4-0.1,0.8-0.4,1.1s-0.7,0.4-1.1,0.4s-0.9-0.1-1.1-0.4S224.1,533.1,224.1,532.7z M227.1,546h-2.8v-10.6h2.8V546z"/>
		<path class="st1" d="M229,540.6c0-1.6,0.4-2.9,1.2-3.9s1.8-1.5,3.1-1.5c1.2,0,2.1,0.4,2.7,1.2l0.1-1h2.6v10.2
			c0,0.9-0.2,1.7-0.6,2.4s-1,1.2-1.8,1.6s-1.7,0.5-2.7,0.5c-0.8,0-1.5-0.2-2.3-0.5s-1.3-0.7-1.7-1.2l1.2-1.7
			c0.7,0.8,1.6,1.2,2.6,1.2c0.7,0,1.3-0.2,1.7-0.6s0.6-1,0.6-1.7v-0.6c-0.7,0.7-1.5,1.1-2.6,1.1c-1.3,0-2.3-0.5-3.1-1.5
			s-1.2-2.3-1.2-4V540.6z M231.9,540.8c0,1,0.2,1.7,0.6,2.3s0.9,0.8,1.6,0.8c0.9,0,1.5-0.3,1.8-1v-4.5c-0.4-0.6-1-1-1.8-1
			c-0.7,0-1.2,0.3-1.6,0.8S231.9,539.7,231.9,540.8z"/>
		<path class="st1" d="M240.4,540.6c0-1.6,0.4-2.9,1.2-3.9s1.8-1.5,3.1-1.5c1.2,0,2.1,0.4,2.7,1.2l0.1-1h2.6v10.2
			c0,0.9-0.2,1.7-0.6,2.4s-1,1.2-1.8,1.6s-1.7,0.5-2.7,0.5c-0.8,0-1.5-0.2-2.3-0.5s-1.3-0.7-1.7-1.2l1.2-1.7
			c0.7,0.8,1.6,1.2,2.6,1.2c0.7,0,1.3-0.2,1.7-0.6s0.6-1,0.6-1.7v-0.6c-0.7,0.7-1.5,1.1-2.6,1.1c-1.3,0-2.3-0.5-3.1-1.5
			s-1.2-2.3-1.2-4V540.6z M243.3,540.8c0,1,0.2,1.7,0.6,2.3s0.9,0.8,1.6,0.8c0.9,0,1.5-0.3,1.8-1v-4.5c-0.4-0.6-1-1-1.8-1
			c-0.7,0-1.2,0.3-1.6,0.8S243.3,539.7,243.3,540.8z"/>
		<path class="st1" d="M252.3,532.7c0-0.4,0.1-0.8,0.4-1s0.7-0.4,1.2-0.4c0.5,0,0.9,0.1,1.2,0.4s0.4,0.6,0.4,1
			c0,0.4-0.1,0.8-0.4,1.1s-0.7,0.4-1.1,0.4s-0.9-0.1-1.1-0.4S252.3,533.1,252.3,532.7z M255.3,546h-2.8v-10.6h2.8V546z"/>
		<path class="st1" d="M260.2,535.4l0.1,1.2c0.8-0.9,1.8-1.4,3-1.4c1.1,0,2,0.3,2.5,1s0.8,1.6,0.8,2.9v6.8h-2.8v-6.8
			c0-0.6-0.1-1-0.4-1.3s-0.7-0.4-1.3-0.4c-0.8,0-1.4,0.3-1.8,1v7.5h-2.8v-10.6H260.2z"/>
		<path class="st1" d="M268.4,540.6c0-1.6,0.4-2.9,1.2-3.9s1.8-1.5,3.1-1.5c1.2,0,2.1,0.4,2.7,1.2l0.1-1h2.6v10.2
			c0,0.9-0.2,1.7-0.6,2.4s-1,1.2-1.8,1.6s-1.7,0.5-2.7,0.5c-0.8,0-1.5-0.2-2.3-0.5s-1.3-0.7-1.7-1.2l1.2-1.7
			c0.7,0.8,1.6,1.2,2.6,1.2c0.7,0,1.3-0.2,1.7-0.6s0.6-1,0.6-1.7v-0.6c-0.7,0.7-1.5,1.1-2.6,1.1c-1.3,0-2.3-0.5-3.1-1.5
			s-1.2-2.3-1.2-4V540.6z M271.2,540.8c0,1,0.2,1.7,0.6,2.3s0.9,0.8,1.6,0.8c0.9,0,1.5-0.3,1.8-1v-4.5c-0.4-0.6-1-1-1.8-1
			c-0.7,0-1.2,0.3-1.6,0.8S271.2,539.7,271.2,540.8z"/>
	</g>
</g>
</svg>
