<svg xmlns="http://www.w3.org/2000/svg" width="68" height="68" viewBox="0 0 68 68">
  <g id="Grupo_55562" data-name="Grupo 55562" transform="translate(-1834.196 172.29)">
    <circle id="Elipse_4485" data-name="Elipse 4485" cx="34" cy="34" r="34" transform="translate(1834.196 -172.29)" fill="#635bd3"/>
    <path id="Trazado_101787" data-name="Trazado 101787" d="M1895.82-155.426c0-.954-.046-1.9-.114-2.835a33.946,33.946,0,0,0-27.51-14.029,34,34,0,0,0-34,34,33.835,33.835,0,0,0,4.853,17.508,38.767,38.767,0,0,0,17.813,4.315A38.959,38.959,0,0,0,1895.82-155.426Z" fill="#8979f3"/>
    <path id="Trazado_101788" data-name="Trazado 101788" d="M1870.734-113.363a2.206,2.206,0,0,0,2.2-1.859,5.582,5.582,0,0,0-.1-2.056c-.268-1.116-.716-2.189-1.013-3.3-.161-.6-.426-.75-1.023-.636a9.656,9.656,0,0,1-6.47-1.008,11.35,11.35,0,0,1-5.519-7.2,13.911,13.911,0,0,1,.409-9.387,66.584,66.584,0,0,1,3.417-6.813,1.856,1.856,0,0,0,.156-1.784,21.385,21.385,0,0,1-1.249-13.229,10.993,10.993,0,0,1,2.256-4.839c1.2-1.377,1.671-1.372,2.779.078,3.7,4.849,4.268,10.166,2.224,15.814-.573,1.584-1.373,3.084-2,4.651a2.478,2.478,0,0,0-.084,1.439c.237.931.646,1.816.919,2.739.154.517.4.614.921.6a12.963,12.963,0,0,1,3.1.123c3.693.79,5.557,3.427,6.253,6.879.837,4.151-.089,7.841-3.611,10.561-.441.34-.267.676-.172,1.067.407,1.686.851,3.365,1.167,5.068a7.129,7.129,0,0,1-.1,2.079,4.47,4.47,0,0,1-3.386,4.048,4.777,4.777,0,0,1-5.283-1.608,5.248,5.248,0,0,1-1.406-3.263,3.42,3.42,0,0,1,1.907-3.355,2.863,2.863,0,0,1,3.284.514,3.638,3.638,0,0,1,.78,3.8C1870.987-113.951,1870.862-113.669,1870.734-113.363Zm-5.833-27.98c-.7,1.211-1.385,2.21-1.9,3.29a12.1,12.1,0,0,0-1.145,8.414,7,7,0,0,0,7.691,5.279c.921-.114,1.011-.23.716-1.135-.681-2.087-1.382-4.168-2.077-6.251-.2-.593-.4-1.183-.657-1.933-1.244,1.809-1.717,3.528-.8,5.494a6.6,6.6,0,0,1-3.116-4.208,6.007,6.007,0,0,1,1.694-5.752,1.293,1.293,0,0,0,.348-.951A19.439,19.439,0,0,0,1864.9-141.343Zm-.1-7.9c.044-.025.109-.039.131-.077a13.679,13.679,0,0,0,2.082-8.509,6.237,6.237,0,0,0-1.742-3.769C1863.166-159.419,1862.9-151.745,1864.8-149.248Zm8.061,23.572c.262-.168.4-.241.524-.34a5.835,5.835,0,0,0,.578-7.74,3.854,3.854,0,0,0-3.372-1.527c-.811.04-.946.211-.681,1,.656,1.958,1.333,3.908,2,5.86C1872.213-127.536,1872.52-126.655,1872.859-125.676Z" fill="#fff"/>
  </g>
</svg>
