<svg xmlns="http://www.w3.org/2000/svg" width="68" height="68" viewBox="0 0 68 68">
  <g id="Grupo_55565" data-name="Grupo 55565" transform="translate(-2128.936 172.29)">
    <circle id="Elipse_4485" data-name="Elipse 4485" cx="34" cy="34" r="34" transform="translate(2128.936 -172.29)" fill="#635bd3"/>
    <path id="Trazado_101793" data-name="Trazado 101793" d="M2190.56-155.426c0-.954-.046-1.9-.114-2.835a33.946,33.946,0,0,0-27.51-14.029,34,34,0,0,0-34,34,33.843,33.843,0,0,0,4.852,17.508,38.773,38.773,0,0,0,17.814,4.315A38.959,38.959,0,0,0,2190.56-155.426Z" fill="#8979f3"/>
    <path id="Trazado_101794" data-name="Trazado 101794" d="M2163.689-131.643V-150.01l-11.662,3.024c0,7.735.007,15.3,0,22.862-.006,4.314-2,7.426-5.384,7.651a4.38,4.38,0,0,1-3.734-2,6.3,6.3,0,0,1,.44-4.9c1.32-1.795,3.316-2.827,5.593-4.624v-22.937l32.331-8.316c.058,1.034.144,1.875.145,2.715q.015,12.532,0,25.065c-.009,4.276-2.432,7.56-5.808,7.427a4.134,4.134,0,0,1-3.284-2.038c-.509-1.254-.4-3.777.315-4.726,1.4-1.853,3.416-2.995,5.639-4.808v-18.063l-11.552,2.812v6.611c0,5.538.012,11.076,0,16.613-.01,3.959-2.014,6.886-5.114,7.44-1.751.312-3.647-.049-4.128-2.257a7.64,7.64,0,0,1,.883-5.2C2159.593-129.317,2161.556-130.13,2163.689-131.643Z" fill="#fff"/>
  </g>
</svg>
