<svg xmlns="http://www.w3.org/2000/svg" width="295" height="234" viewBox="0 0 295 234">
  <g id="Grupo_54103" data-name="Grupo 54103" transform="translate(-168.35 -1811.122)">
    <g id="Grupo_54104" data-name="Grupo 54104">
      <g id="Rectángulo_5281" data-name="Rectángulo 5281" transform="translate(0 -54.35)">
        <rect id="Rectángulo_5281-2" data-name="Rectángulo 5281" width="295" height="234" transform="translate(168.35 1865.472)" fill="none"/>
        <rect id="Rectángulo_5282" data-name="Rectángulo 5282" width="294" height="233.35" transform="translate(168.85 1865.622)" fill="none"/>
      </g>
      <g id="Grupo_54105" data-name="Grupo 54105">
        <path id="Trazado_100699" data-name="Trazado 100699" d="M434.4,2071.254c5.129-36.486,4.023-74.657-7.721-89.4-24.014-30.147-77.143-26.732-77.143-26.732-16.8,24.172-25.73,74.352-28.19,116.133Z" transform="translate(-26.068 -26.132)" fill="#162d47"/>
        <path id="Trazado_100700" data-name="Trazado 100700" d="M411.616,1993.871c-13.706-24.162-62.187-26.416-62.187-26.416-13.648,29.893-19.777,63.774-21.131,100.189h87.764C419.809,2037.907,418.675,2006.314,411.616,1993.871Z" transform="translate(-24.051 -22.521)" fill="#151a31"/>
        <path id="Trazado_100701" data-name="Trazado 100701" d="M293.544,2067.156c6.575-19.788,13.7-51.088,2.225-98.021,0,0-25.971,36.7-30.226,98.021Z" transform="translate(-42.249 -22.034)" fill="#08a8b1"/>
        <path id="Trazado_100702" data-name="Trazado 100702" d="M392.775,2069.213l15.48-90.541-33.364-11.419-1.791-.614-7.488-2.563-5.944-2.032-35.288,4.728-5.741.766-2.025.272-25.243,3.38-10.66,98.022Z" transform="translate(-37.851 -24.091)" fill="#02c6cb"/>
        <path id="Trazado_100703" data-name="Trazado 100703" d="M385.332,2065.475h32.186c0-1.6-.028-2.47-.028-2.47-8.474-48.6-34.377-88.071-34.377-88.071-18.559,3.977-15.513,50.737-15.513,50.737C374.345,2046.564,381.154,2059.035,385.332,2065.475Z" transform="translate(-12.708 -20.354)" fill="#02c6cb"/>
        <g id="Grupo_54025" data-name="Grupo 54025" transform="translate(277.581 1910.843)">
          <g id="Grupo_54024" data-name="Grupo 54024" transform="translate(0 0)">
            <path id="Trazado_100704" data-name="Trazado 100704" d="M344.376,1941.028s28.72.249,41.772,12.135.466,35.891-13.751,38.921-58.546-2.389-63.129-10.008S307.73,1941.477,344.376,1941.028Z" transform="translate(-307.627 -1941.028)" fill="#02c6cb"/>
          </g>
        </g>
        <g id="Grupo_54028" data-name="Grupo 54028" transform="translate(310.423 1938.498)">
          <g id="Grupo_54027" data-name="Grupo 54027" transform="translate(0)">
            <g id="Grupo_54026" data-name="Grupo 54026">
              <path id="Trazado_100705" data-name="Trazado 100705" d="M334.411,1986.1c25.271,0,31.217-22.25,31.274-22.475a.932.932,0,0,0-1.807-.46c-.221.866-5.68,21.071-29.459,21.071a2.076,2.076,0,0,0-.4,0,.932.932,0,0,0-.008,1.864Z" transform="translate(-333.086 -1962.466)" fill="#08a8b1"/>
            </g>
          </g>
        </g>
        <g id="Grupo_54031" data-name="Grupo 54031" transform="translate(276.648 1945.662)">
          <g id="Grupo_54030" data-name="Grupo 54030" transform="translate(0)">
            <g id="Grupo_54029" data-name="Grupo 54029">
              <path id="Trazado_100706" data-name="Trazado 100706" d="M318.273,1980.916a.932.932,0,0,0,.019-1.864c-.333-.009-7.678-.333-9.539-10.272a.933.933,0,0,0-1.833.344c2.153,11.489,11.245,11.79,11.336,11.792Z" transform="translate(-306.903 -1968.02)" fill="#08a8b1"/>
            </g>
          </g>
        </g>
        <g id="Grupo_54033" data-name="Grupo 54033" transform="translate(305.084 1966.452)">
          <g id="Grupo_54032" data-name="Grupo 54032" transform="translate(0 0)">
            <path id="Trazado_100707" data-name="Trazado 100707" d="M330.151,2060.059l.079,0a.849.849,0,0,0,.828-.885c-2.006-20.886,6.913-73.564,7-74.094a.832.832,0,0,0-.761-.931.905.905,0,0,0-1.037.684c-.09.532-9.041,53.4-7.016,74.482A.876.876,0,0,0,330.151,2060.059Z" transform="translate(-328.947 -1984.137)" fill="#fff"/>
          </g>
        </g>
        <g id="Grupo_54035" data-name="Grupo 54035" transform="translate(274.372 1961.844)">
          <g id="Grupo_54034" data-name="Grupo 54034" transform="translate(0 0)">
            <path id="Trazado_100708" data-name="Trazado 100708" d="M306.334,2056.9c.026,0,.053,0,.079,0a.847.847,0,0,0,.828-.885c-2-20.885,7.208-73.975,7.3-74.509a.832.832,0,0,0-.757-.934.9.9,0,0,0-1.04.681c-.094.535-9.341,53.823-7.317,74.9A.878.878,0,0,0,306.334,2056.9Z" transform="translate(-305.139 -1980.564)" fill="#fff"/>
          </g>
        </g>
        <g id="Grupo_54102" data-name="Grupo 54102" transform="translate(248.923 1823.444)">
          <g id="Grupo_54038" data-name="Grupo 54038" transform="translate(2.287 21.368)">
            <g id="Grupo_54037" data-name="Grupo 54037">
              <g id="Grupo_54036" data-name="Grupo 54036">
                <path id="Trazado_100709" data-name="Trazado 100709" d="M293.412,1889.841s-8.66,5.709-5.557,21.223,9.1,17.167,9.1,17.167S306.042,1893.883,293.412,1889.841Z" transform="translate(-287.184 -1889.841)" fill="#162d47"/>
              </g>
            </g>
          </g>
          <g id="Grupo_54041" data-name="Grupo 54041" transform="translate(42.276 87.709)">
            <g id="Grupo_54040" data-name="Grupo 54040">
              <g id="Grupo_54039" data-name="Grupo 54039">
                <path id="Trazado_100710" data-name="Trazado 100710" d="M318.184,1948.665l1.694,19.573.775,8.97c11.548,8.011,29.561-4.048,29.561-4.048l.666-30.762c-5.333-3.363-18.3,1.619-26.321,4.11C320.778,1947.684,318.184,1948.665,318.184,1948.665Z" transform="translate(-318.184 -1941.269)" fill="#ffaf82"/>
              </g>
            </g>
          </g>
          <g id="Grupo_54044" data-name="Grupo 54044" transform="translate(42.276 92.494)">
            <g id="Grupo_54043" data-name="Grupo 54043">
              <g id="Grupo_54042" data-name="Grupo 54042">
                <path id="Trazado_100711" data-name="Trazado 100711" d="M318.184,1947.589l1.694,19.573c13.169-3.469,23.718-22.184,23.718-22.184l-19.036.454C320.778,1946.608,318.184,1947.589,318.184,1947.589Z" transform="translate(-318.184 -1944.978)" fill="#f88968"/>
              </g>
            </g>
          </g>
          <g id="Grupo_54047" data-name="Grupo 54047" transform="translate(4.778 11.6)">
            <g id="Grupo_54046" data-name="Grupo 54046">
              <g id="Grupo_54045" data-name="Grupo 54045">
                <path id="Trazado_100712" data-name="Trazado 100712" d="M289.115,1915.064c0,.578,0,1.173.009,1.766,0,.1.005.208.005.31.01.574.021,1.148.041,1.736.183,6.076.8,12.782,1.609,19.5.173,1.41.356,2.818.548,4.213.168,1.207.33,2.416.5,3.609.365,2.487.742,4.944,1.127,7.32.263,1.654.528,3.274.8,4.843a24.326,24.326,0,0,0,.787,3.208,23.3,23.3,0,0,0,26.768,15.681c6.818-1.375,14.347-3.066,21.372-5.026.351-.092.685-.182,1.036-.279a116.51,116.51,0,0,0,15.188-5.264q.838-1.2,1.61-2.432a67.99,67.99,0,0,0,8.751-23.55c.63-3.331,1.1-6.7,1.427-10.083a6.736,6.736,0,0,1,.137-.787c-.005-3.111-.04-6.212-.1-9.2a39.074,39.074,0,0,0-41.054-38.307c-17.438.9-34.043,7.655-38.236,16.641C289.779,1902.524,289.124,1908.256,289.115,1915.064Z" transform="translate(-289.115 -1882.269)" fill="#ffaf82"/>
              </g>
            </g>
          </g>
          <g id="Grupo_54050" data-name="Grupo 54050" transform="translate(74.804 70.026)">
            <g id="Grupo_54049" data-name="Grupo 54049">
              <g id="Grupo_54048" data-name="Grupo 54048">
                <path id="Trazado_100713" data-name="Trazado 100713" d="M344.779,1951.116a68.044,68.044,0,0,0,8.749-23.555c-2.475.031-5.709.782-9.916,2.731C343.612,1930.292,342.662,1942.571,344.779,1951.116Z" transform="translate(-343.399 -1927.561)" fill="#162d47"/>
              </g>
            </g>
          </g>
          <g id="Grupo_54053" data-name="Grupo 54053" transform="translate(36.293 52.622)">
            <g id="Grupo_54052" data-name="Grupo 54052">
              <g id="Grupo_54051" data-name="Grupo 54051">
                <path id="Trazado_100714" data-name="Trazado 100714" d="M313.546,1918.775c0,2.6,1.157,4.706,2.585,4.706s2.585-2.106,2.585-4.706-1.157-4.706-2.585-4.706S313.546,1916.177,313.546,1918.775Z" transform="translate(-313.546 -1914.069)" fill="#162d47"/>
              </g>
            </g>
          </g>
          <g id="Grupo_54056" data-name="Grupo 54056" transform="translate(9.573 52.622)">
            <g id="Grupo_54055" data-name="Grupo 54055">
              <g id="Grupo_54054" data-name="Grupo 54054">
                <path id="Trazado_100715" data-name="Trazado 100715" d="M292.832,1918.775c0,2.6,1.158,4.706,2.586,4.706s2.585-2.106,2.585-4.706-1.157-4.706-2.585-4.706S292.832,1916.177,292.832,1918.775Z" transform="translate(-292.832 -1914.069)" fill="#162d47"/>
              </g>
            </g>
          </g>
          <g id="Grupo_54059" data-name="Grupo 54059" transform="translate(0 0)">
            <g id="Grupo_54058" data-name="Grupo 54058">
              <g id="Grupo_54057" data-name="Grupo 54057">
                <path id="Trazado_100716" data-name="Trazado 100716" d="M371.85,1925.369s-8.287-5.4-15.268,4.236h-5.43s.31-11.153-2.327-17.2-13.03-5.894-14.582-13.03c0,0-25.441,12.248-40.077,4.44-33.084-17.651,36.443-40.289,61.9-26.045C374.977,1888.35,375.795,1906.379,371.85,1925.369Z" transform="translate(-285.411 -1873.276)" fill="#162d47"/>
              </g>
            </g>
          </g>
          <g id="Grupo_54062" data-name="Grupo 54062" transform="translate(32.091 42.616)">
            <g id="Grupo_54061" data-name="Grupo 54061">
              <g id="Grupo_54060" data-name="Grupo 54060">
                <path id="Trazado_100717" data-name="Trazado 100717" d="M327.534,1913.213s-2.487-5.112-7.264-6.392a12.2,12.2,0,0,0-9.165.82,1.585,1.585,0,0,0-.715,1.948h0a1.593,1.593,0,0,0,2.166.889C315.234,1909.232,321.125,1907.628,327.534,1913.213Z" transform="translate(-310.288 -1906.313)" fill="#162d47"/>
              </g>
            </g>
          </g>
          <g id="Grupo_54065" data-name="Grupo 54065" transform="translate(4.778 42.197)">
            <g id="Grupo_54064" data-name="Grupo 54064">
              <g id="Grupo_54063" data-name="Grupo 54063">
                <path id="Trazado_100718" data-name="Trazado 100718" d="M289.115,1908.186c0,.578,0,1.173.009,1.766,0,.1.005.208.005.31a12.734,12.734,0,0,1,11.053-.112,1.592,1.592,0,0,0,1.451-2.832,12.209,12.209,0,0,0-9.163-.823A9.588,9.588,0,0,0,289.115,1908.186Z" transform="translate(-289.115 -1905.988)" fill="#162d47"/>
              </g>
            </g>
          </g>
          <g id="Grupo_54075" data-name="Grupo 54075" transform="translate(70.898 50.275)">
            <g id="Grupo_54068" data-name="Grupo 54068" transform="translate(0.272)">
              <g id="Grupo_54067" data-name="Grupo 54067">
                <g id="Grupo_54066" data-name="Grupo 54066">
                  <path id="Trazado_100719" data-name="Trazado 100719" d="M340.583,1918.3s8.313-10.071,15.268-4.236c7.666,6.429,1.794,28.228-13.785,27.734Z" transform="translate(-340.583 -1912.249)" fill="#ffaf82"/>
                </g>
              </g>
            </g>
            <g id="Grupo_54071" data-name="Grupo 54071" transform="translate(0 8.112)">
              <g id="Grupo_54070" data-name="Grupo 54070">
                <g id="Grupo_54069" data-name="Grupo 54069">
                  <path id="Trazado_100720" data-name="Trazado 100720" d="M341.745,1935.25a1.372,1.372,0,0,0,1.361-1.214c1.268-11.027,7.808-12.724,8.087-12.792a1.371,1.371,0,0,0-.608-2.673c-.355.079-8.7,2.087-10.2,15.152a1.371,1.371,0,0,0,1.206,1.518C341.64,1935.247,341.692,1935.25,341.745,1935.25Z" transform="translate(-340.372 -1918.538)" fill="#f88968"/>
                </g>
              </g>
            </g>
            <g id="Grupo_54074" data-name="Grupo 54074" transform="translate(2.748 13.241)">
              <g id="Grupo_54073" data-name="Grupo 54073">
                <g id="Grupo_54072" data-name="Grupo 54072">
                  <path id="Trazado_100721" data-name="Trazado 100721" d="M349.878,1927.113a1.371,1.371,0,0,0,1.024-2.281,7.776,7.776,0,0,0-7.323-2.117,1.37,1.37,0,1,0,.588,2.677,4.985,4.985,0,0,1,4.684,1.259A1.367,1.367,0,0,0,349.878,1927.113Z" transform="translate(-342.502 -1922.514)" fill="#f88968"/>
                </g>
              </g>
            </g>
          </g>
          <g id="Grupo_54078" data-name="Grupo 54078" transform="translate(23.39 91.413)">
            <g id="Grupo_54077" data-name="Grupo 54077">
              <g id="Grupo_54076" data-name="Grupo 54076">
                <path id="Trazado_100722" data-name="Trazado 100722" d="M309.82,1949.675a13.2,13.2,0,0,0,8.794-3.178,1.371,1.371,0,0,0-1.9-1.975c-.192.182-4.377,4.016-11.354,1.627a1.371,1.371,0,1,0-.886,2.594A16.434,16.434,0,0,0,309.82,1949.675Z" transform="translate(-303.543 -1944.14)" fill="#f88968"/>
              </g>
            </g>
          </g>
          <g id="Grupo_54095" data-name="Grupo 54095" transform="translate(0.151 46.23)">
            <g id="Grupo_54082" data-name="Grupo 54082" transform="translate(28.903)">
              <g id="Grupo_54081" data-name="Grupo 54081">
                <g id="Grupo_54080" data-name="Grupo 54080">
                  <g id="Grupo_54079" data-name="Grupo 54079">
                    <path id="Trazado_100723" data-name="Trazado 100723" d="M307.934,1920.212a11.1,11.1,0,1,1,11.1,11.1A11.111,11.111,0,0,1,307.934,1920.212Zm1.828,0a9.27,9.27,0,1,0,9.271-9.27A9.28,9.28,0,0,0,309.762,1920.212Z" transform="translate(-307.934 -1909.114)" fill="#162d47"/>
                  </g>
                </g>
              </g>
            </g>
            <g id="Grupo_54086" data-name="Grupo 54086">
              <g id="Grupo_54085" data-name="Grupo 54085">
                <g id="Grupo_54084" data-name="Grupo 54084">
                  <g id="Grupo_54083" data-name="Grupo 54083">
                    <path id="Trazado_100724" data-name="Trazado 100724" d="M285.528,1920.212a11.1,11.1,0,1,1,11.1,11.1A11.111,11.111,0,0,1,285.528,1920.212Zm1.828,0a9.27,9.27,0,1,0,9.27-9.27A9.28,9.28,0,0,0,287.356,1920.212Z" transform="translate(-285.528 -1909.114)" fill="#162d47"/>
                  </g>
                </g>
              </g>
            </g>
            <g id="Grupo_54090" data-name="Grupo 54090" transform="translate(49.717 5.766)">
              <g id="Grupo_54089" data-name="Grupo 54089">
                <g id="Grupo_54088" data-name="Grupo 54088">
                  <g id="Grupo_54087" data-name="Grupo 54087">
                    <rect id="Rectángulo_5283" data-name="Rectángulo 5283" width="20.99" height="1.828" transform="translate(0 1.622) rotate(-4.432)" fill="#162d47"/>
                  </g>
                </g>
              </g>
            </g>
            <g id="Grupo_54094" data-name="Grupo 54094" transform="translate(20.593 7.179)">
              <g id="Grupo_54093" data-name="Grupo 54093">
                <g id="Grupo_54092" data-name="Grupo 54092">
                  <g id="Grupo_54091" data-name="Grupo 54091">
                    <path id="Trazado_100725" data-name="Trazado 100725" d="M310.31,1917.77l1.059-1.49c-1.766-1.259-6.1-2.873-9.877.019l1.113,1.45C306.237,1914.967,310.145,1917.655,310.31,1917.77Z" transform="translate(-301.492 -1914.679)" fill="#162d47"/>
                  </g>
                </g>
              </g>
            </g>
          </g>
          <g id="Grupo_54098" data-name="Grupo 54098" transform="translate(15.815 54.958)">
            <g id="Grupo_54097" data-name="Grupo 54097">
              <g id="Grupo_54096" data-name="Grupo 54096">
                <path id="Trazado_100726" data-name="Trazado 100726" d="M304.936,1933.375a1.371,1.371,0,0,0,.832-2.46l-3.653-2.789,3.167-.822a1.372,1.372,0,0,0,1.009-1.109l1.4-8.727a1.371,1.371,0,0,0-2.708-.433l-1.255,7.84-5.027,1.3a1.371,1.371,0,0,0-.488,2.416l5.9,4.5A1.37,1.37,0,0,0,304.936,1933.375Z" transform="translate(-297.671 -1915.88)" fill="#f88968"/>
              </g>
            </g>
          </g>
          <g id="Grupo_54101" data-name="Grupo 54101" transform="translate(15.257 81.342)">
            <g id="Grupo_54100" data-name="Grupo 54100">
              <g id="Grupo_54099" data-name="Grupo 54099">
                <path id="Trazado_100727" data-name="Trazado 100727" d="M307.213,1945.491a23.9,23.9,0,0,0,17.215-6.825,1.362,1.362,0,1,0-1.913-1.94c-9.7,9.564-23.319,4.84-23.454,4.792a1.362,1.362,0,1,0-.92,2.564A29.124,29.124,0,0,0,307.213,1945.491Z" transform="translate(-297.238 -1936.333)" fill="#f88968"/>
              </g>
            </g>
          </g>
        </g>
        <path id="Trazado_100728" data-name="Trazado 100728" d="M283.268,2068.027c9.863-61.688,25.885-100.154,25.885-100.154-10.472-5.84-15.742,4.871-15.742,4.871-16.491,32.47-19.661,68.645-19.041,95.283Z" transform="translate(-39.71 -22.905)" fill="#162d47"/>
        <path id="Trazado_100729" data-name="Trazado 100729" d="M357.822,2068.041c.175-46.409,20.027-95.845,20.027-95.845-7.87-10.735-14.662-4.057-14.662-4.057s-13.513,25.452-20.481,86.005c-.56,4.868-.833,9.482-.906,13.9Z" transform="translate(-20.136 -22.919)" fill="#162d47"/>
      </g>
    </g>
  </g>
</svg>
