<svg xmlns="http://www.w3.org/2000/svg" xmlns:xlink="http://www.w3.org/1999/xlink" width="295" height="155" viewBox="0 0 295 155">
  <defs>
    <clipPath id="clip-path">
      <rect id="Rectángulo_5242" data-name="Rectángulo 5242" width="295" height="155" transform="translate(278.662 1637.875)" fill="none"/>
    </clipPath>
  </defs>
  <g id="Grupo_54023" data-name="Grupo 54023" transform="translate(-278.662 -1637.875)">
    <rect id="Rectángulo_5242-2" data-name="Rectángulo 5242" width="295" height="155" transform="translate(278.662 1637.875)" fill="#f6f6f6"/>
    <g id="Grupo_54022" data-name="Grupo 54022">
      <g id="Grupo_54021" data-name="Grupo 54021" clip-path="url(#clip-path)">
        <g id="Grupo_54020" data-name="Grupo 54020">
          <g id="Grupo_54019" data-name="Grupo 54019">
            <path id="Trazado_100668" data-name="Trazado 100668" d="M395.047,1797.541a19.263,19.263,0,0,0-2.728,6.987c-.732,4.125-6.987,21.894-8.585,28.416s-3.593,24.32-3.593,24.32H408.89s4.926-13.671,6.656-13.671,4.258,13.671,4.258,13.671h25.822s-1.331-37.763-1.863-45.881-4.325-11.913-4.325-11.913-6.789,6.323-15.441,7.188-28.95-9.117-28.95-9.117Z" fill="#3d5fc0" fill-rule="evenodd"/>
            <path id="Trazado_100669" data-name="Trazado 100669" d="M454.677,1654.988s-13.975.134-17.036,10.649.931,22.761,12.777,23.425,14.774-8.119,14.774-8.119Z" fill="#666" fill-rule="evenodd"/>
            <path id="Trazado_100670" data-name="Trazado 100670" d="M417.142,1683.6a37.379,37.379,0,0,0,1.265-8.252c-.067-3.326-6.588-7.786-13.377-7.252s-11.247,10.713-11.247,10.713-4.724,4.46-4.059,10.183,5.374,9.932,5.374,9.932,4.719,7.042,5.54-2.079-2.794-12.779,1.73-14.774,14.774,1.529,14.774,1.529Z" fill="#333" fill-rule="evenodd"/>
            <path id="Trazado_100671" data-name="Trazado 100671" d="M417.01,1681.042a8.316,8.316,0,0,0-8.52-4.326c-6.122.733-9.715,2.331-11.247,7.654s.865,12.978-.132,13.311-2.728-3.527-4.858-1.6.4,9.051,3.4,9.649,3.791-.6,3.791-.6,5.591,12.446,2.265,15.906-21.616,4.125-31.413,19.034-9.85,44.721-7.721,54.039,11.98,37.533,13.711,39.264,6.389,3.2,10.914,1.73,5.025-1.231,5.191-3.692a8.845,8.845,0,0,0-.234-3.461s2,.9,2.763-.7-2.563-7.12-7.42-8.186-7.387-2.727-7.522-6.72-4.392-33.808-4.392-33.808a11.483,11.483,0,0,0,6.389-4.659c2.662-3.86,5.059-11.048,5.059-11.048s6.389,12.112,6.654,19.832.4,12.512.8,15.573,7.72,12.512,23.293,11.314,23.027-5.723,22.759-9.451-3.86-23.957,1.466-38.067,7.985-21.029,14.374-24.225,34.505-11.977,34.505-22.094-16-37.4-16-37.4-3.995,1.863-9.45-1.064-10.25-11.713-10.25-11.713-3.194,3.194-1.8,6.123,10.115,5.456,12.245,14.507,4.194,25.29,3.728,25.621-11.049.865-14.708,2.863-5.657,6.389-12.112,4.127-13.044,3.593-16.5,2.262-6.522-12.977-6.522-12.977,4.058-8.919-2.5-27.021Z" fill="#fbc49d" fill-rule="evenodd"/>
            <path id="Trazado_100672" data-name="Trazado 100672" d="M399.439,1705.134a52.668,52.668,0,0,1,2.282,6.31c3.869,1.265,10.59,3.074,13.492,1.51a21.22,21.22,0,0,0,4.716-3.406c-.273-.909-.423-1.485-.423-1.485a9.512,9.512,0,0,1-7.654,3.959c-5.059-.033-11.148-6.221-11.448-6.888s-.965,0-.965,0Z" fill="#d18f5f" fill-rule="evenodd"/>
            <path id="Trazado_100673" data-name="Trazado 100673" d="M402.213,1688.047a.443.443,0,0,1-.622-.631c.009-.007,2.7-2.7,5.6-1a.443.443,0,0,1-.45.764c-2.3-1.357-4.518.858-4.523.865Z"/>
            <path id="Trazado_100674" data-name="Trazado 100674" d="M414.43,1686.8a.442.442,0,1,1-.7-.542c.007-.009,2.066-2.678,4.412-.879a.443.443,0,0,1-.539.7c-1.646-1.262-3.171.713-3.175.717Z"/>
            <path id="Trazado_100675" data-name="Trazado 100675" d="M412.331,1690.005a.443.443,0,1,1,.838-.287,29.093,29.093,0,0,0,1.62,3.9c1.106,1.768-2.171,1.675-2.18,1.675a.443.443,0,1,1,.017-.885c.005,0,1.638.04,1.411-.322a29.225,29.225,0,0,1-1.706-4.083Z" fill="#d18f5f"/>
            <path id="Trazado_100676" data-name="Trazado 100676" d="M410.322,1700.585a.442.442,0,0,1-.335-.819c.013,0,4.513-1.876,6.625-.781a.442.442,0,1,1-.4.786c-1.748-.9-5.873.81-5.886.814Z" fill="#bf4f24"/>
            <path id="Trazado_100677" data-name="Trazado 100677" d="M386.621,1750.608a.443.443,0,0,1,.88-.106,8.158,8.158,0,0,0,6.827,6.807c3.877.71,10.925,1.423,16.511.547,3.637-.569,6.63-1.8,7.627-4.147,2.609-6.131.642-16.487.638-16.518a.442.442,0,0,1,.87-.159c0,.031,2.021,10.645-.693,17.023-1.139,2.675-4.388,4.061-8.308,4.675-5.7.894-12.867.17-16.8-.552a9.052,9.052,0,0,1-7.548-7.57Z" fill="#b9764c"/>
            <path id="Trazado_100678" data-name="Trazado 100678" d="M422.225,1752.981a.443.443,0,1,1,.216-.859c.031.007,10.706,2.741,14.127.079,3.525-2.738,11.047-16.2,11.067-16.237a.443.443,0,0,1,.774.433c-.022.04-7.632,13.655-11.295,16.5-3.766,2.929-14.856.088-14.889.08Z" fill="#b9764c"/>
            <path id="Trazado_100679" data-name="Trazado 100679" d="M432.982,1749.513a.443.443,0,1,1,.267-.845s2.218.722,2.218-1.174a.443.443,0,1,1,.887,0c0,3.118-3.363,2.024-3.372,2.019Z" fill="#b9764c"/>
            <path id="Trazado_100680" data-name="Trazado 100680" d="M396.122,1752.495a.442.442,0,1,1,.779-.419c.005.006,1.386,2.6,2.624,1.359a.444.444,0,0,1,.627.629c-2.088,2.088-4.026-1.558-4.03-1.569Z" fill="#b9764c"/>
            <path id="Trazado_100681" data-name="Trazado 100681" d="M369.991,1779.814a.444.444,0,1,1,.068-.885,9.964,9.964,0,0,0,4.317-.548.443.443,0,0,1,.413.784c-1.731.909-4.79.649-4.8.649Z" fill="#b9764c"/>
            <path id="Trazado_100682" data-name="Trazado 100682" d="M406.786,1772.411a.443.443,0,1,1,.815.345c-.02.044-6.829,15.957-1.5,24.143a.442.442,0,1,1-.741.483c-5.587-8.583,1.408-24.922,1.427-24.971Z" fill="#b9764c"/>
            <path id="Trazado_100683" data-name="Trazado 100683" d="M429.27,1775.192a.442.442,0,1,1,.834-.293c.015.039,4.988,13.878,1.315,21.763a.443.443,0,1,1-.8-.375c3.518-7.554-1.333-21.055-1.346-21.095Z" fill="#b9764c"/>
            <path id="Trazado_100684" data-name="Trazado 100684" d="M416.63,1772.06a.442.442,0,1,1,.561-.684c0,.005,1.361,1.064,1.361,6.465a.445.445,0,0,1-.889,0c0-4.982-1.031-5.778-1.033-5.781Z" fill="#b9764c"/>
            <path id="Trazado_100685" data-name="Trazado 100685" d="M407.875,1782.582a.442.442,0,1,1,.3-.83,12.859,12.859,0,0,0,7.277.223.442.442,0,0,1,.249.849,13.814,13.814,0,0,1-7.828-.242Z" fill="#b9764c"/>
            <path id="Trazado_100686" data-name="Trazado 100686" d="M420.534,1782.509a.443.443,0,0,1,.007-.885c.013,0,4.524.061,4.928-1.314a.443.443,0,0,1,.85.252c-.594,2.02-5.772,1.947-5.785,1.947Z" fill="#b9764c"/>
            <path id="Trazado_100687" data-name="Trazado 100687" d="M418.27,1781.471a.441.441,0,0,1,.366-.507.445.445,0,0,1,.508.366c0,.022,1.282,7.625-.013,11.717a.445.445,0,0,1-.848-.267c1.234-3.893-.009-11.287-.013-11.309Z" fill="#b9764c"/>
            <path id="Trazado_100688" data-name="Trazado 100688" d="M410.357,1792.86a.442.442,0,0,1,.327-.821c.009,0,2.894,1.167,3.891.393a.443.443,0,1,1,.543.7c-1.4,1.088-4.749-.267-4.761-.271Z" fill="#b9764c"/>
            <path id="Trazado_100689" data-name="Trazado 100689" d="M420.85,1792.809a.443.443,0,0,1,.238-.854c.011,0,3.825,1.11,5.24-.954a.442.442,0,1,1,.73.5c-1.779,2.6-6.2,1.311-6.208,1.309Z" fill="#b9764c"/>
            <path id="Trazado_100690" data-name="Trazado 100690" d="M404.866,1688.866l.682-.133a.964.964,0,0,1,1.126.757l.324,1.658a.961.961,0,0,1-.759,1.126l-.68.134a.96.96,0,0,1-1.125-.759l-.325-1.655a.964.964,0,0,1,.757-1.128Z" fill-rule="evenodd"/>
            <path id="Trazado_100691" data-name="Trazado 100691" d="M415.915,1687.934l.68-.132a.962.962,0,0,1,1.127.757l.323,1.658a.961.961,0,0,1-.757,1.125l-.68.135a.966.966,0,0,1-1.128-.759l-.324-1.656a.965.965,0,0,1,.759-1.128Z" fill-rule="evenodd"/>
            <path id="Trazado_100692" data-name="Trazado 100692" d="M399.4,1678.27a.444.444,0,0,1-.854-.243c.006-.02,1.935-6.919,5.539-7.568a.442.442,0,1,1,.157.87c-3.052.549-4.838,6.921-4.842,6.941Z" fill="#fff"/>
            <path id="Trazado_100693" data-name="Trazado 100693" d="M405.118,1675.752a.442.442,0,1,1-.706-.532c.009-.011,3.246-4.355,5.447-4.5a.443.443,0,0,1,.059.885c-1.792.119-4.791,4.138-4.8,4.15Z" fill="#fff"/>
            <path id="Trazado_100694" data-name="Trazado 100694" d="M408.718,1675.067a.442.442,0,0,1-.453-.759c.013-.006,4.266-2.562,6.039-1.02a.442.442,0,1,1-.579.669c-1.288-1.121-5,1.1-5.007,1.11Z" fill="#fff"/>
            <path id="Trazado_100695" data-name="Trazado 100695" d="M444.779,1660.042a.443.443,0,0,1,.364.808c-.011,0-3.752,1.624-4.266,8.81-.005.064-.007.106-.009.121a17.546,17.546,0,0,0,2.531,10.407,11.2,11.2,0,0,0,8.826,5.365l.084.007a.442.442,0,1,1-.055.882l-.093,0a12.057,12.057,0,0,1-9.506-5.774,18.4,18.4,0,0,1-2.67-10.938c0-.066.007-.108.009-.128.552-7.72,4.774-9.55,4.785-9.556Z" fill="#b3b3b3"/>
            <path id="Trazado_100696" data-name="Trazado 100696" d="M417.775,1809.552c-15.279,1.176-22.615-7.9-23.262-11.133a19.783,19.783,0,0,0-2.194,6.109c-.053.3-.134.66-.238,1.088,3.827,3.009,10.973,7.994,17.806,9.361,9.257,1.851,27.1-.989,33.358-7.357a19.738,19.738,0,0,0-2.755-6.791c-.682,3.567-8.144,7.6-22.715,8.723Z" fill="#30a0e0" fill-rule="evenodd"/>
          </g>
          <circle id="Elipse_4443" data-name="Elipse 4443" cx="2.882" cy="2.882" r="2.882" transform="translate(439.252 1725.082)" fill="#8979f3"/>
          <circle id="Elipse_4444" data-name="Elipse 4444" cx="2.882" cy="2.882" r="2.882" transform="translate(482.055 1712.947)" fill="#8979f3"/>
          <line id="Línea_139" data-name="Línea 139" y1="11.509" x2="41.953" transform="translate(442.559 1715.829)" fill="none" stroke="#8979f3" stroke-miterlimit="10" stroke-width="2.195"/>
          <line id="Línea_140" data-name="Línea 140" x2="17.244" y2="39.447" transform="translate(467.693 1675.928)" fill="none" stroke="#8979f3" stroke-miterlimit="10" stroke-width="2.195"/>
          <path id="Trazado_100697" data-name="Trazado 100697" d="M455.176,1665.537s-8.484-22.024,9.883-25.237,22.828,17.283,23.093,24.538-13.276,13.476-13.276,13.476a9.509,9.509,0,0,1-7.819,1.364c-4.326-1.265-12.38-9.316-11.881-14.141Z" fill="#4d4d4d" fill-rule="evenodd"/>
          <path id="Trazado_100698" data-name="Trazado 100698" d="M468.524,1642.319a.443.443,0,0,1,.256.848c-.028.009-10.079,2.97-10.466,13.566-.388,10.619,16.066,18.063,16.112,18.085a.441.441,0,0,1-.366.8c-.049-.022-17.041-7.707-16.631-18.918.411-11.232,11.064-14.373,11.1-14.384Z" fill="#b3b3b3"/>
        </g>
      </g>
    </g>
  </g>
</svg>
