<svg xmlns="http://www.w3.org/2000/svg" width="191" height="172" viewBox="0 0 191 172">
  <g id="Grupo_55629" data-name="Grupo 55629" transform="translate(-1020 -5873.307)">
    <rect id="Rectángulo_5680" data-name="Rectángulo 5680" width="191" height="83" rx="7" transform="translate(1020 5946.307)" fill="#8979f3"/>
    <rect id="Rectángulo_5681" data-name="Rectángulo 5681" width="155" height="147" rx="9" transform="translate(1039 5873.307)" fill="#f6f6f6"/>
    <rect id="Rectángulo_5682" data-name="Rectángulo 5682" width="140" height="131" rx="9" transform="translate(1047 5881.307)" fill="#fff"/>
    <path id="Polígono_2" data-name="Polígono 2" d="M10,0,20,17H0Z" transform="translate(1126 6045.307) rotate(180)" fill="#8979f3"/>
    <g id="Grupo_55587" data-name="Grupo 55587" transform="translate(109.832 3968.309)">
      <g id="Grupo_55588" data-name="Grupo 55588" transform="translate(949.168 1932.692)">
        <rect id="Rectángulo_5600" data-name="Rectángulo 5600" width="6.763" height="8.383" transform="translate(0 41.115)" fill="#64dde0"/>
        <rect id="Rectángulo_5601" data-name="Rectángulo 5601" width="6.763" height="8.383" transform="translate(9.878 41.115)" fill="#64dde0"/>
        <rect id="Rectángulo_5602" data-name="Rectángulo 5602" width="6.763" height="15.475" transform="translate(19.756 37.567)" fill="#64dde0"/>
        <rect id="Rectángulo_5603" data-name="Rectángulo 5603" width="6.763" height="23.858" transform="translate(29.633 33.377)" fill="#64dde0"/>
        <rect id="Rectángulo_5604" data-name="Rectángulo 5604" width="6.763" height="55.466" transform="translate(39.509 17.574)" fill="#64dde0"/>
        <rect id="Rectángulo_5605" data-name="Rectángulo 5605" width="6.763" height="90.609" transform="translate(49.387)" fill="#64dde0"/>
        <rect id="Rectángulo_5606" data-name="Rectángulo 5606" width="6.763" height="78.035" transform="translate(59.265 6.287)" fill="#64dde0"/>
        <rect id="Rectángulo_5607" data-name="Rectángulo 5607" width="6.763" height="36.11" transform="translate(69.143 27.253)" fill="#64dde0"/>
        <rect id="Rectángulo_5608" data-name="Rectángulo 5608" width="6.763" height="20.957" transform="translate(79.02 34.826)" fill="#64dde0"/>
        <rect id="Rectángulo_5609" data-name="Rectángulo 5609" width="6.763" height="14.508" transform="translate(88.898 38.052)" fill="#64dde0"/>
        <rect id="Rectángulo_5610" data-name="Rectángulo 5610" width="6.763" height="8.383" transform="translate(98.774 41.115)" fill="#64dde0"/>
        <rect id="Rectángulo_5611" data-name="Rectángulo 5611" width="6.763" height="8.383" transform="translate(108.652 41.115)" fill="#64dde0"/>
      </g>
      <g id="Grupo_55589" data-name="Grupo 55589" transform="translate(949.168 1986.386)">
        <rect id="Rectángulo_5612" data-name="Rectángulo 5612" width="6.763" height="4.191" transform="translate(0)" fill="#00c2c7"/>
        <rect id="Rectángulo_5613" data-name="Rectángulo 5613" width="6.763" height="4.191" transform="translate(9.878)" fill="#00c2c7"/>
        <rect id="Rectángulo_5614" data-name="Rectángulo 5614" width="6.763" height="7.739" transform="translate(19.756)" fill="#00c2c7"/>
        <rect id="Rectángulo_5615" data-name="Rectángulo 5615" width="6.763" height="11.929" transform="translate(29.633)" fill="#00c2c7"/>
        <rect id="Rectángulo_5616" data-name="Rectángulo 5616" width="6.763" height="19.345" transform="translate(39.509)" fill="#00c2c7"/>
        <rect id="Rectángulo_5617" data-name="Rectángulo 5617" width="6.763" height="36.917" transform="translate(49.387)" fill="#00c2c7"/>
        <rect id="Rectángulo_5618" data-name="Rectángulo 5618" width="6.763" height="30.63" transform="translate(59.265)" fill="#00c2c7"/>
        <rect id="Rectángulo_5619" data-name="Rectángulo 5619" width="6.763" height="18.054" transform="translate(69.143)" fill="#00c2c7"/>
        <rect id="Rectángulo_5620" data-name="Rectángulo 5620" width="6.763" height="10.477" transform="translate(79.02)" fill="#00c2c7"/>
        <rect id="Rectángulo_5621" data-name="Rectángulo 5621" width="6.763" height="7.254" transform="translate(88.898)" fill="#00c2c7"/>
        <rect id="Rectángulo_5622" data-name="Rectángulo 5622" width="6.763" height="4.191" transform="translate(98.774)" fill="#00c2c7"/>
        <rect id="Rectángulo_5623" data-name="Rectángulo 5623" width="6.763" height="4.191" transform="translate(108.652)" fill="#00c2c7"/>
      </g>
    </g>
  </g>
</svg>
