<svg xmlns="http://www.w3.org/2000/svg" width="190.092" height="199.592" viewBox="0 0 190.092 199.592">
  <g id="Grupo_55578" data-name="Grupo 55578" transform="translate(-531 -4680)">
    <g id="Grupo_55577" data-name="Grupo 55577" transform="translate(531 4680)">
      <path id="Trazado_101819" data-name="Trazado 101819" d="M1739.684,920.835l36.74,37.177v19.245l-85.653,85.653-35.865-35.865v-19.609Z" transform="translate(-1586.332 -863.318)" fill="#eb078d"/>
      <path id="Trazado_101820" data-name="Trazado 101820" d="M1685.268,1057.212l.729.729,85.653-85.653V953.043l-.6-.607-85.782,87.208Z" transform="translate(-1581.558 -858.349)" fill="#d5128c"/>
      <path id="Trazado_101821" data-name="Trazado 101821" d="M1721.632,942.39l7.483,7.483,7.483-7.483,4.552,4.552-7.524,7.524,7.709,7.709-4.265,4.265-7.709-7.709-7.893,7.893-4.346-4.346,7.7-7.7-7.668-7.668Z" transform="translate(-1576.55 -859.929)" fill="#383838"/>
      <rect id="Rectángulo_5562" data-name="Rectángulo 5562" width="5.335" height="5.335" transform="translate(95.175 135.023) rotate(-45)" fill="#383838"/>
      <rect id="Rectángulo_5563" data-name="Rectángulo 5563" width="5.335" height="5.335" transform="translate(110.762 150.61) rotate(-45)" fill="#383838"/>
      <rect id="Rectángulo_5564" data-name="Rectángulo 5564" width="5.335" height="5.335" transform="translate(95.175 150.61) rotate(-45)" fill="#383838"/>
      <rect id="Rectángulo_5565" data-name="Rectángulo 5565" width="5.335" height="5.335" transform="translate(110.633 135.152) rotate(-45)" fill="#383838"/>
      <path id="Trazado_101822" data-name="Trazado 101822" d="M1680.454,883.49l-1.8-10.511s-.424-2.31-2.46-1.762c-1.475.4-.861,2.651-.861,2.651L1677.6,885.2Z" transform="translate(-1583.141 -871.133)" fill="#eb078d"/>
      <g id="Grupo_55576" data-name="Grupo 55576" transform="translate(0 11.913)">
        <path id="Trazado_101823" data-name="Trazado 101823" d="M1683.552,896.819c-.385-4.047-1.045-9.055-2.029-15.392l-5.718.888c1.026,6.612,1.679,11.637,2.039,15.551Z" transform="translate(-1583.046 -881.427)" fill="#eb078d"/>
        <path id="Trazado_101824" data-name="Trazado 101824" d="M1645.443,964.823q-1.293-1.3-2.747-2.621c-22.04-20.025-33.518-29.237-38.276-32.865l35.868-38.038c4.261,2.924,14.6,10.142,24.686,18.135,6.111,4.845,10.694,8.837,14.127,12.107-6.634,4.033-14.675,9.562-10.858,19.1,2.466,6.165,7.635,9.6,13.5,8.967,6.595-.713,12.043-6.265,13.249-13.5.434-2.6-.3-6.4-6.729-13.522a13.562,13.562,0,0,0,4.005-4.144c.324-.59.641-1.126.943-1.638,2.531-4.282,3.966-7.424,3.119-18.3l-5.714,1.047c.661,9.154-.584,11.259-2.385,14.307-.33.558-.675,1.142-1.029,1.786a10.016,10.016,0,0,1-3.01,2.734c-3.815-3.712-8.9-8.151-15.65-13.5-13.251-10.5-26.923-19.674-27.06-19.764l-2.034-1.362-43.8,46.452,2.793,1.911c.1.069,10.591,7.318,40.361,34.367q.366.333.718.658c-9.788,4.149-14.519,7.684-17.471,12.839-4.3,7.508-3.291,12.327-1.69,15.045,2.264,3.843,7.168,6.03,13.494,6.03l.376,0c6.939-.095,15.935-2.959,19.289-9.026,3.832-6.928,2.577-14.337-3.854-22.484,30.007-8.889,56.482,11.144,56.882,11.451l0,0,3.549-4.57C1708.838,975.446,1679.436,953.04,1645.443,964.823Zm43.844-29.667c-.912,5.47-4.871,8.346-8.163,8.7-3.273.354-6-1.6-7.509-5.364-2.075-5.187,2.272-8.268,9.679-12.725C1689.429,932.388,1689.349,934.788,1689.287,935.156Zm-40.831,54.073c-1.826,3.3-8.11,5.958-14.3,6.041-4.312.118-7.6-1.128-8.808-3.178-1.493-2.533.115-6.42,1.727-9.234,2.435-4.254,6.887-7.258,16.795-11.251C1652.625,981.688,1649.672,987.032,1648.457,989.229Z" transform="translate(-1595.649 -881.061)" fill="#eb078d"/>
      </g>
    </g>
  </g>
</svg>
