<svg xmlns="http://www.w3.org/2000/svg" width="191" height="172" viewBox="0 0 191 172">
  <g id="Grupo_55628" data-name="Grupo 55628" transform="translate(-389 -5873.307)">
    <rect id="Rectángulo_5568" data-name="Rectángulo 5568" width="191" height="83" rx="7" transform="translate(389 5946.307)" fill="#8979f3"/>
    <rect id="Rectángulo_5566" data-name="Rectángulo 5566" width="155" height="147" rx="9" transform="translate(408 5873.307)" fill="#f6f6f6"/>
    <rect id="Rectángulo_5569" data-name="Rectángulo 5569" width="140" height="131" rx="9" transform="translate(416 5881.307)" fill="#fff"/>
    <path id="Polígono_1" data-name="Polígono 1" d="M10,0,20,17H0Z" transform="translate(495 6045.307) rotate(180)" fill="#8979f3"/>
    <g id="Grupo_55586" data-name="Grupo 55586" transform="translate(431.379 5901.307)">
      <g id="Grupo_55580" data-name="Grupo 55580" transform="translate(0 47.975)">
        <rect id="Rectángulo_5574" data-name="Rectángulo 5574" width="16.957" height="6.652" transform="translate(0 35.983)" fill="#666"/>
        <rect id="Rectángulo_5575" data-name="Rectángulo 5575" width="16.957" height="6.652" transform="translate(0 23.989)" fill="#666"/>
        <rect id="Rectángulo_5576" data-name="Rectángulo 5576" width="16.957" height="6.652" transform="translate(0 11.994)" fill="#666"/>
        <rect id="Rectángulo_5577" data-name="Rectángulo 5577" width="16.957" height="6.652" fill="#666"/>
      </g>
      <g id="Grupo_55581" data-name="Grupo 55581" transform="translate(0)">
        <rect id="Rectángulo_5578" data-name="Rectángulo 5578" width="16.957" height="6.652" transform="translate(0 35.983)" fill="#04b1d9"/>
        <rect id="Rectángulo_5579" data-name="Rectángulo 5579" width="16.957" height="6.652" transform="translate(0 23.989)" fill="#04b1d9"/>
        <rect id="Rectángulo_5580" data-name="Rectángulo 5580" width="16.957" height="6.652" transform="translate(0 11.994)" fill="#04b1d9"/>
        <rect id="Rectángulo_5581" data-name="Rectángulo 5581" width="16.957" height="6.652" fill="#04b1d9"/>
      </g>
      <g id="Grupo_55582" data-name="Grupo 55582" transform="translate(30.147 59.97)">
        <rect id="Rectángulo_5582" data-name="Rectángulo 5582" width="16.957" height="6.652" transform="translate(0 23.989)" fill="#666"/>
        <rect id="Rectángulo_5583" data-name="Rectángulo 5583" width="16.957" height="6.652" transform="translate(0 11.994)" fill="#666"/>
        <rect id="Rectángulo_5584" data-name="Rectángulo 5584" width="16.957" height="6.652" fill="#666"/>
      </g>
      <g id="Grupo_55583" data-name="Grupo 55583" transform="translate(30.147 35.983)">
        <rect id="Rectángulo_5585" data-name="Rectángulo 5585" width="16.957" height="6.652" transform="translate(0 11.992)" fill="#04b1d9"/>
        <rect id="Rectángulo_5586" data-name="Rectángulo 5586" width="16.957" height="6.652" fill="#04b1d9"/>
      </g>
      <rect id="Rectángulo_5587" data-name="Rectángulo 5587" width="16.957" height="6.652" transform="translate(60.294 83.958)" fill="#666"/>
      <rect id="Rectángulo_5588" data-name="Rectángulo 5588" width="16.957" height="6.652" transform="translate(60.294 71.964)" fill="#666"/>
      <rect id="Rectángulo_5624" data-name="Rectángulo 5624" width="16.957" height="6.652" transform="translate(60.294 59.97)" fill="#666"/>
      <rect id="Rectángulo_5625" data-name="Rectángulo 5625" width="16.957" height="6.652" transform="translate(60.294 47.976)" fill="#04b1d9"/>
      <g id="Grupo_55584" data-name="Grupo 55584" transform="translate(90.441 35.983)">
        <rect id="Rectángulo_5589" data-name="Rectángulo 5589" width="16.957" height="6.652" transform="translate(0 47.975)" fill="#666"/>
        <rect id="Rectángulo_5590" data-name="Rectángulo 5590" width="16.957" height="6.652" transform="translate(0 35.981)" fill="#666"/>
        <rect id="Rectángulo_5591" data-name="Rectángulo 5591" width="16.957" height="6.652" transform="translate(0 23.987)" fill="#666"/>
        <rect id="Rectángulo_5592" data-name="Rectángulo 5592" width="16.957" height="6.652" transform="translate(0 11.992)" fill="#666"/>
        <rect id="Rectángulo_5593" data-name="Rectángulo 5593" width="16.957" height="6.652" fill="#666"/>
      </g>
      <g id="Grupo_55585" data-name="Grupo 55585" transform="translate(90.441)">
        <rect id="Rectángulo_5594" data-name="Rectángulo 5594" width="16.957" height="6.652" transform="translate(0 23.989)" fill="#04b1d9"/>
        <rect id="Rectángulo_5595" data-name="Rectángulo 5595" width="16.957" height="6.652" transform="translate(0 11.994)" fill="#04b1d9"/>
        <rect id="Rectángulo_5596" data-name="Rectángulo 5596" width="16.957" height="6.652" fill="#04b1d9"/>
      </g>
    </g>
  </g>
</svg>
